<svg fill="none" height="48" viewBox="0 0 42 48" width="42" xmlns="http://www.w3.org/2000/svg"><g fill="#fabb00"><path d="m41.875 4.01953c0-1.90625-1.5508-3.45703-3.457-3.45703-1.0102 0-1.9672.43984-2.6242 1.20781l-6.8641 8.00781c-.4914-.90156-1.1227-1.73437-1.886-2.46953-2.0054-1.93281-4.6289-2.9414-7.4382-2.83203-5.1492.19453-9.3469 4.3375-9.72737 9.40544-5.25079.3844-9.40938 4.7703-9.40938 10.118v8.5938c0 1.0585.67109 1.9304 1.71016 2.221.22343.0625.44687.0922.66718.0922.43594 0 .85078-.1265 1.21328-.3476l3.47032 12.3093c.09453.336.40156.5688.75156.5688h23.43755c.3507 0 .6593-.2344.7531-.5719l3.432-12.3539c.3109.2235.6672.3774 1.0516.4149.6578.0656 1.3187-.1524 1.807-.5969.4891-.4438.7687-1.0758.7687-1.7359v-8.5938c0-2.7859-1.1054-5.3852-3.1132-7.3172-1.2657-1.218-2.7844-2.0687-4.4321-2.5047l8.6969-7.53748c.757-.65781 1.1922-1.60937 1.1922-2.62109zm-22.2102 2.01797c2.3649-.08359 4.5977.76328 6.2954 2.39609 1.5195 1.46328 2.4226 3.37971 2.5968 5.45471-4.9375.3969-8.9093 4.3742-9.2961 9.3156-.6062-.0016-1.2039.2172-1.6476.6297-.4758.443-.7383 1.0469-.7383 1.7289 0 .4312-.35.7813-.7812.7813-.4313 0-.7813-.3501-.7813-.7813v-2.5742c0-.6953-.2961-1.3406-.8117-1.7711-1.9438-1.6219-3.0719-3.9961-3.0946-6.5141-.0406-4.6039 3.6641-8.49216 8.2586-8.6656zm11.9665 32.7664c.0257 0 .0507 0 .0773-.0008.5461-.0164 1.1062-.2187 1.543-.5828l-.3266 1.1758c-.9641.1945-1.5953.7344-2.1172 1.1906-.5883.5141-1.0133.8852-1.843.8852-.8093 0-1.1859-.361-1.7062-.8602-.6024-.5773-1.3508-1.2953-2.7875-1.2953s-2.1852.718-2.7859 1.2953c-.5204.4992-.8954.8602-1.7047.8602-.8071 0-1.1836-.361-1.7032-.8602-.6007-.5773-1.3484-1.2953-2.7835-1.2953-1.4368 0-2.1844.718-2.7852 1.2953-.5203.4992-.8953.8602-1.7039.8602-.8328 0-1.29142-.393-1.87189-.8899-.52109-.4461-1.14765-.9734-2.08359-1.1758l-1.97266-7h-.00156c-.05078-.1875-.12734-.339-.18984-.4601-.02422-.0461-.05-.0906-.06641-.1367-.02891-.0821.04375-.2117.12813-.3031.30312-.3266.80937-.0383 2.08828.9351 1.0539.8039 2.24922 1.7148 3.58984 1.7148 1.9805 0 3.8234-.5781 5.3875-1.5624h7.9484c.2039.1289.4133.2515.6274.3664.7367.3945 1.6453.7093 2.7015.9375.2016.0437.4094.0781.6188.1117.5469.089 1.0648.1734 1.4031.4547.4102.3414.3656.8125.3024 1.0625l-.0438.1648c-.0828.3094-.1773.6617-.1531 1.0633.0703 1.1984.9961 2.0492 2.2141 2.0492zm3.2132-6.3203-.7953 2.8641c.0047-1.5336.0133-3.9235.0133-3.9258 0-.2149.1758-.3907.3906-.3907.2149 0 .3907.1758.3907.3907v1.0531c0 .0023.0007.0055.0007.0086zm-16.9078-1.4524c.8719-.9062 1.5797-1.9695 2.0696-3.1484.4851 1.1649 1.1843 2.2336 2.0585 3.1484zm-14.43279 1.9461c-.22266.3696-.61407.4149-.90313.3321-.13359-.0367-.56953-.1985-.56953-.7156v-8.5938c0-4.4906 3.46328-8.182 7.85859-8.5562.21876 2.7031 1.50156 5.2148 3.60936 6.9734.1563.1312.25.3437.25.5711v2.5742c0 1.2922 1.0516 2.3437 2.3438 2.3437s2.3437-1.0515 2.3437-2.3742c0-.2133.0852-.4101.2406-.5547.1344-.125.3149-.1851.5016-.2023-.393 4.3766-4.0766 7.8188-8.5539 7.8188-.8125 0-1.78516-.7407-2.64375-1.3946-1.27266-.9687-2.85703-2.1758-4.17813-.7578-.50937.5461-.68203 1.2508-.45937 1.8867.04141.1164.09609.2282.15313.3391.02656.0492.06171.1187.06874.1414.00235.018-.01093.0844-.06171.1687zm27.62109 12.8977h-22.25234l-1.27422-4.5211c.17031.125.33906.2609.51718.4141.6586.564 1.47735 1.2656 2.88828 1.2656 1.4367 0 2.1844-.718 2.7852-1.2953.5203-.4992.8953-.8602 1.7039-.8602.807 0 1.1828.361 1.7023.8602.6008.5765 1.3485 1.2953 2.7844 1.2953s2.1851-.718 2.7859-1.2953c.5203-.4992.8953-.8602 1.7047-.8602s1.1859.361 1.7063.8602c.6023.5773 1.3507 1.2953 2.7875 1.2953 1.4164 0 2.2234-.7039 2.8711-1.2703.196-.1711.3757-.3172.5562-.4485zm6.8438-21.875v8.5938c0 .2226-.0907.4289-.2563.5789s-.3773.2179-.6062.1984c-.3579-.0352-.6977-.4742-.7001-.9v-1.0492c0-1.0774-.8757-1.9531-1.9531-1.9531-1.0773 0-1.9531.8757-1.9531 1.9499 0 0-.0164 4.3508-.0164 5.0821 0 .5656-.5164.732-.8219.7398-.2453.0117-.6562-.0578-.6859-.5773-.0086-.15.0461-.3524.1031-.5672l.0492-.1875c.2563-1.018-.0492-2.007-.8187-2.6469-.6657-.5539-1.4547-.682-2.1516-.7953-.182-.0297-.3641-.0586-.5391-.0969-.9132-.1968-1.6851-.4625-2.2937-.7883-2.8812-1.5421-4.6625-4.6492-4.5391-7.9179.1672-4.3836 3.8688-8.086 8.2524-8.2524 2.3617-.0804 4.5969.7618 6.2945 2.3953 1.7008 1.6376 2.636 3.836 2.636 6.1938zm1.6898-18.53984-9.5469 8.27424c-.0695-.8125-.2375-1.6024-.493-2.361l7.3602-8.58668c.3609-.42031.8852-.66172 1.4391-.66172 1.0445 0 1.8945.85 1.8945 1.90391 0 .54921-.2383 1.07109-.6539 1.43125z"/><path d="m22.3438 7.59375h.7812v1.5625h-.7812z"/><path d="m17.6562 9.15625h.7813v1.56255h-.7813z"/><path d="m14.5312 11.5h.7813v1.5625h-.7813z"/><path d="m20.7812 10.7188h.7813v1.5624h-.7813z"/><path d="m25.4688 10.7188h.7812v1.5624h-.7812z"/><path d="m7.5 17.75h.78125v1.5625h-.78125z"/><path d="m5.15625 19.3125h.78125v1.5625h-.78125z"/><path d="m30.1562 17.75h.7813v1.5625h-.7813z"/><path d="m24.6875 19.3125h.7813v1.5625h-.7813z"/><path d="m27.8125 20.875h.7813v1.5625h-.7813z"/><path d="m34.0625 19.3125h.7813v1.5625h-.7813z"/></g></svg>