<svg width="60" height="54" viewBox="0 0 60 54" fill="none" xmlns="http://www.w3.org/2000/svg">
<path d="M57.8096 32.0002C57.5466 31.5927 57.0032 31.4757 56.5959 31.7386C56.1885 32.0015 56.0713 32.5449 56.3343 32.9523C57.5837 34.8883 58.244 37.1356 58.244 39.451C58.244 46.0692 52.8598 51.4533 46.2418 51.4533C39.6238 51.4533 34.2396 46.069 34.2396 39.451C34.2396 32.833 39.6238 27.4488 46.2418 27.4488C49.0234 27.4488 51.7347 28.422 53.876 30.1892C54.25 30.4979 54.8033 30.4449 55.112 30.0709C55.4205 29.6969 55.3676 29.1436 54.9936 28.8349C52.6947 26.9378 49.8234 25.8388 46.8496 25.7067C46.8563 24.8196 46.8012 23.9576 46.6819 23.1238C46.2246 19.9275 44.8427 17.1296 42.575 14.8079C39.8301 11.9978 36.7579 10.6513 33.4442 10.8053C31.2304 10.9085 28.939 11.6857 26.6097 13.1147C27.2004 9.81316 28.1347 6.84122 28.9444 4.65403C29.3366 3.59467 29.1854 2.40866 28.54 1.48158C27.8942 0.553909 26.8336 0 25.7029 0C24.33 0 23.0845 0.818222 22.5301 2.08465C20.7719 6.10014 20.4668 10.2452 20.5855 13.328C18.1383 11.7618 15.7308 10.9135 13.4086 10.8053C10.0952 10.651 7.02287 11.9977 4.27791 14.8079C1.08462 18.0771 -0.332575 22.2339 0.0655324 27.1632C0.386266 31.1335 1.86363 35.4812 4.45654 40.0854C4.69451 40.5078 5.23004 40.6573 5.65227 40.4196C6.07472 40.1816 6.22432 39.6463 5.98646 39.2238C3.5538 34.9042 2.11155 30.685 1.81564 27.0219C1.46014 22.6212 2.71112 18.9247 5.53392 16.0349C10.0163 11.4461 15.2558 11.3785 21.1065 15.8341C22.4725 16.8743 24.3805 16.8743 25.7465 15.8341C31.5971 11.3785 36.8366 11.4461 41.319 16.0349C43.8776 18.6543 45.1385 21.9053 45.0992 25.7409C38.0457 26.3237 32.484 32.2498 32.484 39.451C32.484 42.4382 33.4414 45.2056 35.0647 47.4636C33.8473 48.8671 32.3696 50.3325 30.5448 51.0492C29.1915 51.5809 26.6289 51.6392 24.9712 50.8784C23.9897 50.4281 22.8637 50.428 21.8818 50.8784C20.2241 51.639 17.6616 51.5807 16.3082 51.0492C14.3548 50.2819 12.7987 48.6563 11.534 47.1674C10.3679 45.7943 9.2501 44.3256 8.21287 42.8033L8.1012 42.6387C7.82892 42.2376 7.28297 42.1328 6.88182 42.4051C6.48055 42.6773 6.37602 43.2233 6.64818 43.6244L6.7609 43.7904C7.83396 45.3652 8.98953 46.8838 10.1957 48.3039C11.6015 49.9592 13.3508 51.7739 15.6662 52.6834C16.558 53.0336 17.6751 53.2057 18.8103 53.2056C20.1717 53.2056 21.5591 52.9581 22.614 52.4741C23.1304 52.2371 23.7224 52.2372 24.2389 52.4741C26.1736 53.3618 29.2256 53.4536 31.1868 52.6834C33.255 51.8709 34.8707 50.3364 36.1942 48.8384C38.7068 51.526 42.2813 53.209 46.242 53.209C53.8283 53.209 60.0001 47.0371 60.0001 39.4509C60 36.797 59.2425 34.2205 57.8096 32.0002ZM24.6139 14.485C23.9671 14.9373 23.1201 14.979 22.4368 14.6085C22.1912 11.6594 22.255 7.09055 24.1385 2.78898C24.4132 2.16144 25.0273 1.75596 25.7029 1.75596C26.2676 1.75596 26.7764 2.02167 27.0988 2.48487C27.4208 2.94747 27.4933 3.5159 27.2976 4.04464C26.3259 6.66997 25.1786 10.3893 24.6139 14.485V14.485Z" fill="black"/>
<path d="M48.5286 36.0248C48.37 35.6392 47.9983 35.3903 47.5814 35.3903C47.5811 35.3903 47.5806 35.3903 47.5803 35.3903C47.163 35.3907 46.7912 35.6406 46.6333 36.0268C46.6306 36.0334 46.628 36.04 46.6254 36.0466L44.1993 42.4167C44.0268 42.8698 44.2541 43.377 44.7072 43.5495C45.1605 43.7223 45.6676 43.4946 45.8401 43.0416L46.229 42.0205H48.915L49.2995 43.0391C49.4322 43.3906 49.7662 43.6072 50.1211 43.6072C50.2241 43.6072 50.3288 43.589 50.4308 43.5505C50.8844 43.3793 51.1135 42.8727 50.9422 42.4191L48.5382 36.0489C48.5352 36.0409 48.532 36.0329 48.5286 36.0248V36.0248ZM46.8978 40.2649L47.5783 38.4783L48.2525 40.2649H46.8978Z" fill="black"/>
<path d="M53.333 35.2947C52.8482 35.2947 52.4551 35.6878 52.4551 36.1726V42.6282C52.4551 43.0559 52.7632 43.4213 53.1847 43.4935C53.247 43.5042 53.2924 43.512 54.0189 43.512C54.3657 43.512 54.8676 43.5103 55.6003 43.5062C56.0851 43.5035 56.476 43.1082 56.4733 42.6233C56.4706 42.1385 56.0728 41.7523 55.5904 41.7503C55.1698 41.7527 54.6444 41.7548 54.2108 41.7555V36.1726C54.2109 35.6878 53.8178 35.2947 53.333 35.2947V35.2947Z" fill="black"/>
<path d="M40.1183 37.0506C40.5898 37.0506 41.0446 37.1895 41.4331 37.4519C41.8349 37.7234 42.3807 37.6177 42.652 37.2158C42.9234 36.8141 42.8177 36.2683 42.4159 35.9969C41.7359 35.5376 40.9413 35.2947 40.1182 35.2947C37.8528 35.2947 36.0098 37.1377 36.0098 39.4031C36.0098 41.6685 37.8528 43.5115 40.1182 43.5115C41.0255 43.5115 41.8406 43.2129 42.4754 42.6477C42.5997 42.5369 42.7177 42.4152 42.8261 42.286C43.1377 41.9144 43.0891 41.3608 42.7177 41.0491C42.3461 40.7375 41.7923 40.786 41.4808 41.1575C41.4268 41.222 41.3684 41.2823 41.3075 41.3366C40.9952 41.6148 40.5951 41.7558 40.1183 41.7558C38.8211 41.7558 37.7657 40.7004 37.7657 39.4032C37.7657 38.106 38.8211 37.0506 40.1183 37.0506Z" fill="black"/>
</svg>
