<svg fill="none" height="45" viewBox="0 0 42 45" width="42" xmlns="http://www.w3.org/2000/svg"><path d="m32.9708 33.6972c-.0076-.0391-.0041-.0775-.018-.1159l-.8588-2.3385s0 0 0-.0007l-4.4274-12.0495c0-.0007 0-.0014-.0007-.0021l-.3416-.9304c0-.0007 0-.0007 0-.0014l-1.5885-4.3229c-.0007-.0021-.0013-.0042-.002-.0063l-1.5191-4.13565c-.0007-.00139-.0014-.00209-.0014-.00349l-.0673-.183c-.0007-.0014-.0014-.00349-.0021-.00489l-1.5878-4.32289c-.0007-.00139-.0014-.00209-.0014-.00349l-1.4052-3.82557c-.0035-.00908-.0104-.01397-.0139-.02235-.0187-.0454-.0486-.08452-.0764-.12573-.0243-.03492-.0437-.07264-.0729-.10198-.0277-.02514-.0618-.0433-.093-.06565-.0437-.03144-.0854-.06357-.1347-.08312-.0076-.00349-.0125-.01048-.0201-.01327-.0299-.01188-.0604-.00769-.091-.01467-.0493-.01118-.0979-.02375-.1499-.02375-.0514 0-.0993.01327-.1493.02375-.0305.00768-.0611.00349-.0916.01467-.0084.00279-.0132.00978-.0209.01327-.0479.01955-.0888.05099-.1312.08172-.0319.02235-.0673.04121-.0944.06845-.0292.02934-.0479.06636-.0722.10058-.0285.04191-.059.08033-.0778.12712-.0034.00908-.0104.01467-.0139.02236l-1.4038 3.82207c-.0014.0035-.0027.00699-.0041.01048l-1.5858 4.3173c-.0013.00349-.0027.00769-.0041.01118l-.0653.17811c-.0007.0007-.0007.0014-.0007.0014l-1.519 4.13364c-.0028.0069-.0049.0132-.007.0188l-1.5843 4.3131c-.0014.0021-.0021.0049-.0028.0077l-.3402.9262c-.0007.0007-.0007.0014-.0007.0021l-2.8368 7.721c-.0007.0014-.0014.0035-.002.0056l-.61447 1.6721v.0014l-.97059 2.641c-.00209.0063-.00417.0118-.00625.0174l-.85535 2.3288c-.01457.0384-.0111.0775-.01805.1166-.00833.0426-.02499.081-.02499.1257 0 .0056.00278.0105.00347.0154.0007.0531.01736.102.03055.1537.00972.0384.0125.0775.02708.1131.01666.037.04443.0664.06803.1006.02708.0405.0493.0838.08401.118.02361.0231.05554.0364.08262.0559.04652.0342.09164.0692.1458.0908.00486.0014.00763.0056.01249.0077.07915.03.16038.044.24092.044h.28603l-.07428.2033c-.00278.007-.00486.0132-.00694.0188l-.85535 2.3281c-.01458.0391-.0118.0782-.01805.118-.00833.0426-.02499.0803-.02499.1243 0 .0056.00278.0098.00347.0147.00069.0552.01736.1062.03194.1593.00902.0363.0111.0733.02568.1068.01736.0412.0486.0741.0736.1111.02569.037.04512.0761.07706.1075.025.0245.05971.0399.08887.0601.04443.0321.08817.0664.13955.0866.00486.0021.00833.0063.01319.0084.07914.03.16037.044.24091.044h.28534l-.07775.2075c-.00139.0035-.00278.0069-.00417.0104l-.85673 2.3337c-.01527.0419-.0125.0845-.01944.1271-.00694.0391-.02291.074-.02291.1152 0 .0056.00278.0098.00278.0147.00139.0552.01805.1069.03263.1599.00972.0364.01111.0734.02569.1069.01735.0398.04721.072.0722.1069.02638.0384.04652.0796.07984.1117.02569.0252.0611.0406.09165.0622.04373.0307.0847.0643.13468.0838.00556.0021.00903.007.01458.0091.07915.0293.16038.0433.24092.0433h.28603l-.07428.2033c-.00278.007-.00486.0132-.00694.0188l-.85535 2.3281c-.01458.0391-.0118.0782-.01805.118-.00833.0426-.02499.0803-.02499.1243 0 .0056.00278.0098.00347.0147.00069.0552.01736.1062.03194.1592.00902.0364.0111.0734.02568.1069.01736.0412.0486.0741.0736.1111.02569.037.04512.0761.07706.1075.025.0245.05971.0399.08887.0601.04443.0321.08817.0664.13955.0866.00486.0021.00833.0063.01319.0084.07914.03.16037.044.24091.044h3.15134c.002 0 .0041.0014.0062.0014s.0042-.0014.0063-.0014l5.8811.0007c.0014 0 .0028.0007.0042.0007s.0028-.0007.0042-.0007h5.8839c.0014 0 .0021.0007.0028.0007s.0014-.0007.0028-.0007l5.5104.0007h.0007.0007.3693c.0021 0 .0049.0014.0077.0014.0027 0 .0055-.0014.0076-.0014h2.7701c.0799 0 .1611-.014.2409-.0433.0056-.0021.0091-.007.0146-.0091.0486-.0195.0889-.0517.1312-.0817.032-.0217.0688-.0384.0959-.065.0312-.0307.0506-.0705.0756-.1061.0264-.0377.057-.0713.075-.1118.0146-.0328.016-.0705.0257-.1048.0146-.0537.0312-.1054.0326-.1613 0-.0056.0028-.0098.0028-.0147 0-.0412-.016-.0754-.0229-.1145-.0069-.0433-.0042-.0852-.0194-.1278l-.9373-2.5516h.2853c.0799 0 .1611-.014.2409-.044.0049-.0021.0077-.0063.0125-.0077.0535-.0209.0979-.0559.1438-.0894.0277-.0195.0611-.0342.0847-.0573.0333-.0328.0541-.074.0805-.1124.0243-.0356.0541-.0678.0715-.1062.0146-.0342.0167-.0726.0264-.1089.0139-.0517.0305-.102.0312-.1579.0007-.0049.0035-.0098.0035-.0147 0-.044-.0167-.0831-.025-.1257-.0076-.0391-.0042-.0775-.018-.1166l-.8589-2.3372c0-.0007 0-.0014-.0007-.0021l-.0819-.2123h.2861c.0798 0 .161-.014.2409-.0433.0055-.0021.009-.007.0146-.0091.0486-.0195.0888-.0517.1312-.0817.0319-.0217.0687-.0384.0958-.065.0312-.0307.0507-.0705.0757-.1061.0263-.0377.0569-.0713.0749-.1118.0146-.0328.016-.0705.0257-.1048.0146-.0537.0313-.1054.0327-.1613 0-.0056.0027-.0098.0027-.0147 0-.0412-.0159-.0754-.0229-.1145-.0069-.0433-.0041-.0852-.0194-.1278l-.9373-2.5516h.2854c.0798 0 .161-.014.2409-.044.0048-.0021.0076-.0063.0125-.0077.0541-.0216.0993-.0566.1458-.0908.027-.0195.059-.0328.0826-.0559.0347-.0342.0576-.0775.0847-.1187.0222-.0335.0507-.0629.0673-.0999.0153-.0356.0174-.0754.0271-.1138.0132-.0503.0299-.0999.0306-.153.0007-.0056.0034-.0105.0034-.0154-.0007-.0447-.018-.0838-.0257-.1264zm-23.15042-.9269.35272.3549h-.48255zm3.17972-8.6548.6242.6279-1.3566 1.3641zm3.1791-8.6542.3909.3926-.8484.8535zm3.1798-8.65554.1569.15786-.3402.34155zm1.1386-3.09845.6082 1.65609-.6082.61257-.6089-.61187zm-.0007 14.12259-1.9634-1.976 1.9641-1.9767 1.9634 1.976zm2.9458-.9884 1.9634 1.9753-1.9641 1.976-1.9634-1.9753zm-3.9275 1.976-1.9634 1.9746-1.9634-1.9753 1.9634-1.9753zm.9817.9877 1.9634 1.9753-1.9627 1.9753-1.9641-1.976zm4.4343 20.3034 1.458-1.4662 1.4579 1.4662zm-4.7579 0c-.0097 0-.0187 0-.0284 0h-1.1053l1.458-1.4676 1.4593 1.4676zm-5.223 0c-.0048 0-.009 0-.0138 0h-1.7885l1.4587-1.4676 1.4586 1.4676zm5.2189-3.4917c-.007 0-.0139 0-.0202 0h-1.1101l1.4594-1.4676 1.4579 1.4676zm-2.4314 1.3969c.0014 0 .0028.0007.0042.0007s.0028-.0007.0042-.0007h1.4114l-1.6058 1.6156-1.6066-1.6156zm5.8923 0c.0014 0 .0021.0007.0028.0007s.0014-.0007.0028-.0007h1.4142l-1.6058 1.6156-1.6059-1.6156zm-1.7919-3.4917h3.2117l-1.6058 1.6156zm-1.6649-1.3969c-.0097 0-.0187 0-.0284 0h-1.1053l1.4587-1.4676 1.4586 1.4676zm-2.4382 1.3969c.002 0 .0041.0014.0069.0014s.0049-.0014.007-.0014h1.4093l-1.6058 1.6156-1.6073-1.6156zm-1.6704 2.0948-1.1192-.0007c-.0014 0-.0028 0-.0042 0h-.6713c-.0007 0-.0021 0-.0028 0h-1.1192l1.458-1.4669zm8.8665 0 1.458-1.4669 1.4579 1.4676zm-.0007-3.4917 1.4587-1.4668 1.4579 1.4668zm-1.4871-.4799-1.9634-1.9753 1.9634-1.9753 1.9634 1.976zm-2.9451-2.9629-1.9641-1.976 1.9634-1.9753 1.9641 1.976zm3.9268-1.9753 1.9634-1.9753 1.9634 1.976-1.9634 1.9752zm-.9817-.9877-1.9648-1.976 1.9634-1.9753 1.9648 1.976zm-3.9275-1.976-1.9634 1.9753-1.9641-1.9753 1.9634-1.976zm-2.9451 2.963-1.9648 1.976-1.9641-1.9753 1.9648-1.976zm.9817.9876 1.9641 1.976-1.9641 1.976-1.9648-1.976zm-1.4878 4.4312h-1.1144c-.0048 0-.009 0-.0138 0h-1.7885l1.458-1.4676zm-4.2205 1.3969c.0021 0 .0048.0014.0069.0014s.0049-.0014.007-.0014h1.4079l-1.6058 1.6156-1.3101-1.318.109-.2976zm.0007 3.491c.0021 0 .0041.0014.0062.0014s.0042-.0014.0063-.0014h1.41l-1.6065 1.6163-1.3101-1.318.1097-.299h1.3844zm-.0007 3.4924c.0021 0 .0048.0014.0069.0014s.0049-.0014.007-.0014h1.4079l-1.6058 1.6156-1.3101-1.318.109-.2976zm5.8909 0c.002 0 .0041.0014.0069.0014s.0049-.0014.007-.0014h1.4093l-1.6058 1.6156-1.6066-1.6156zm7.3148 0-1.6058 1.6156-1.6059-1.6156zm4.4669 0c.0021 0 .0049.0014.007.0014s.0048-.0014.0069-.0014h1.0039l.1097.299-1.31 1.318-1.6066-1.6163h1.7891zm-1.7891-3.491h1.4177.0007.0007.3694c.002 0 .0048.0014.0076.0014s.0055-.0014.0076-.0014h1.0039l.109.2976-1.3107 1.3187zm0-3.4924h1.7891c.0021 0 .0049.0014.007.0014s.0048-.0014.0069-.0014h1.0039l.1097.299-1.31 1.318zm-.3575-3.8514 1.9634-1.976.545.5483.7664 2.0843-1.3107 1.3187zm1.3573-4.5611-1.3573-1.3655.6241-.6279zm-2.339-2.3531-1.9648-1.976 1.9641-1.976.0368.0363 1.0407 2.833zm-1.115-7.0498-.8491-.8535.3908-.3933zm-1.8308-1.8412-1.9634-1.976 1.7468-1.7574 1.0594 2.8855zm-2.9451-2.9636-1.9641-1.97534 1.9641-1.97529 1.9634 1.97529zm1.3219-4.59533-.3409-.34295.1576-.15856zm-4.0504 3.82693 1.7468 1.7567-1.9641 1.976-.8422-.8465zm-3.1985 8.7066.0361-.0363 1.9634 1.9753-1.9634 1.976-1.0768-1.0834zm-3.454 9.4008.5429-.5462 1.9641 1.9753-1.9634 1.976-1.3101-1.3187zm-1.29622 7.0204.35342.3549h-.48325zm.00069 3.4924.35203.3549h-.48186zm-.00069 3.491.35342.3548h-.48325zm4.78562-1.112 1.4593 1.4675-2.9166-.0007zm5.8923 0 1.4579 1.4675h-2.9166zm5.8902.0007 1.4579 1.4675-2.9152-.0007zm4.7856 1.1134.1305.3541h-.4818zm-.352-3.1382.3527-.3549.1305.3549zm.2284-3.491c-.0007 0-.0007 0-.0014 0h-.227l.352-.3542.1305.3542zm-.2284-3.4924.3527-.3549.1305.3549z" fill="#fabb00"/></svg>