<svg width="41" height="32" viewBox="0 0 41 32" fill="none" xmlns="http://www.w3.org/2000/svg">
<path d="M39.3722 15.7783C40.0795 15.2429 40.538 14.3945 40.538 13.4409C40.538 11.8257 39.2236 10.5112 37.6083 10.5112C36.7055 10.5112 35.8115 10.6926 34.9814 11.0388C34.3539 8.09984 31.8454 5.86303 28.7729 5.65063C29.2707 4.58544 29.0981 3.25048 28.1882 2.34057C26.8989 1.05151 25.1821 0.341308 23.3545 0.341308C20.8227 0.341308 18.6728 1.80005 18.0136 3.02441C16.7637 1.17895 14.6492 0 12.3474 0C9.94116 0 8.55396 2.76074 10.0115 4.6936C7.6648 5.32787 5.8274 7.18334 5.19483 9.51024C4.70387 9.15136 4.10401 8.94872 3.46852 8.94872C1.85304 8.94872 0.538838 10.2632 0.538838 11.8784C0.538838 13.2629 0.96413 14.6123 1.74538 15.7471C1.51613 15.914 1.3091 16.1162 1.13161 16.3506C0.574238 17.0879 0.398702 18.021 0.650654 18.9109C1.18483 20.7971 2.18629 22.5654 3.6277 24.1657C4.96632 25.6518 6.62183 26.9253 8.55273 27.9543C8.74634 30.1796 10.6995 31.9956 12.9902 31.9956H28.0898C29.2311 31.9956 30.3652 31.5317 31.2011 30.7224C31.9772 29.9707 32.4409 28.9987 32.528 27.9538C36.6511 25.748 39.7541 22.1521 40.4755 18.7178C40.6569 17.8489 40.4396 16.9553 39.8798 16.2666C39.7289 16.0813 39.558 15.9184 39.3722 15.7783V15.7783ZM28.2995 6.80419C31.3815 6.80419 33.9636 9.34496 33.9636 12.4682C33.9636 14.2822 31.5344 14.9009 30.6635 13.3093C30.8413 11.4678 29.3037 9.93041 27.4643 10.1081C25.8515 9.23656 26.4973 6.80419 28.2995 6.80419V6.80419ZM31.1506 15.199H29.7302C29.8347 15.0605 29.9897 14.9519 30.2109 14.6094C30.4833 14.8628 30.8022 15.0635 31.1506 15.199ZM28.9912 14.2659C28.7277 14.5293 28.5419 14.8493 28.4433 15.199H24.8794C25.0109 13.906 25.5761 12.7087 26.5051 11.7798C27.1906 11.0945 28.3056 11.0945 28.9912 11.7795C29.6804 12.4692 29.674 13.5825 28.9912 14.2659ZM19.3498 3.16943C21.5595 0.959227 25.1499 0.959227 27.3596 3.16943C28.2014 4.01098 27.9821 5.43627 26.9123 5.97973C26.2319 6.32519 25.4133 6.19457 24.8737 5.65527C24.0358 4.81762 22.6731 4.81762 21.8354 5.65527C21.1486 6.34228 20.0366 6.34228 19.3498 5.65527C19.1416 5.4475 18.9936 5.19994 18.9094 4.92016C18.7226 4.29858 18.8913 3.62768 19.3498 3.16943ZM19.1797 6.97948C20.2722 7.58275 21.7038 7.44433 22.6643 6.48388C23.0446 6.10326 23.6643 6.10302 24.0451 6.48388C24.4941 6.9331 25.0595 7.21142 25.6543 7.30639C25.1379 8.39354 25.3357 9.67845 26.1604 10.5613C25.873 10.7466 25.6799 10.9363 25.4492 11.1899C25.3212 9.85912 24.8056 8.55907 23.9016 7.47484C23.6948 7.22607 23.3249 7.19286 23.0769 7.39989C22.8281 7.60717 22.7944 7.97655 23.0017 8.22509C24.6687 10.2251 24.7458 13.1157 23.2141 15.199H18.1538C18.8398 14.8579 19.4438 14.4126 19.938 13.9182C21.6687 12.1872 20.6262 9.28466 18.2849 8.94457C18.8059 8.44213 19.1423 7.7495 19.1797 6.97948V6.97948ZM18.8855 10.4143C19.7771 11.0508 19.875 12.324 19.1096 13.0893C19.0293 13.1697 18.9399 13.2524 18.8286 13.3501C16.5925 15.3049 13.1975 15.1875 11.0996 13.0893C10.8393 12.8291 10.6699 12.4997 10.6096 12.1372C10.3284 10.4516 12.3828 9.40038 13.5852 10.6035C14.4238 11.4421 15.7849 11.4424 16.6235 10.6035C17.2336 9.9934 18.1853 9.91405 18.8855 10.4143ZM12.0564 15.199H10.2441C10.1328 14.6472 9.86694 14.1465 9.48242 13.7495C9.62475 13.657 9.75879 13.552 9.88281 13.436C10.3325 14.1301 11.28 14.8139 12.0564 15.199ZM13.9377 9.39061C14.0581 9.26342 14.1658 9.12597 14.26 8.9807C14.6924 9.3828 15.2402 9.65013 15.8362 9.73558C15.3511 10.2031 14.758 10.1189 14.414 9.77489C14.2681 9.62865 14.1077 9.50121 13.9377 9.39061ZM12.3474 1.17187C15.4182 1.17187 18.0114 3.68164 18.0114 6.83593C18.0114 8.65453 15.5749 9.26561 14.7102 7.67577C14.8711 5.90551 13.5425 4.40258 11.4929 4.46581C9.9165 3.58593 10.5413 1.17187 12.3474 1.17187ZM11.4055 5.64282C13.8196 5.47851 14.1423 8.12841 12.6267 8.93163C10.7903 8.75463 9.24927 10.2925 9.42822 12.1321C8.55664 13.7236 6.12745 13.1064 6.12745 11.2922C6.12745 8.32445 8.4458 5.84301 11.4055 5.64282ZM1.71071 11.8784C1.71071 10.1108 4.04103 9.45751 4.96388 10.9565C4.85816 13.1113 6.49976 14.3586 8.15234 14.2085C8.57104 14.4145 8.88159 14.7717 9.03174 15.199H3.43873C3.23439 15.199 3.03395 15.2209 2.83913 15.2622C2.10988 14.2864 1.71071 13.0989 1.71071 11.8784ZM39.3283 18.4775C38.6764 21.581 35.6635 24.9939 31.8115 27.0058H11.4668C11.1433 27.0058 10.8799 27.2683 10.8799 27.5918C10.8799 27.9145 11.1433 28.1777 11.4668 28.1777H31.3134C31.0241 29.6616 29.6657 30.8239 28.0895 30.8239H12.99C11.394 30.8239 9.77636 29.5349 9.70703 27.5705C9.69922 27.3545 9.57324 27.1643 9.38965 27.07C5.51588 25.0854 2.74147 21.9953 1.77809 18.5918C1.62697 18.0586 1.73219 17.4992 2.06618 17.0574C2.39626 16.6211 2.8965 16.3708 3.43873 16.3708H37.6406C38.1576 16.3708 38.6423 16.6023 38.9699 17.0056C39.3066 17.4199 39.4372 17.9565 39.3283 18.4775ZM37.6069 15.199H33.2653C34.3679 14.7693 35.1806 13.707 35.1313 12.2563C35.9008 11.8806 36.7502 11.6831 37.6083 11.6831C38.5776 11.6831 39.3661 12.4717 39.3661 13.4409C39.3661 14.4077 38.5802 15.199 37.6069 15.199Z" fill="black"/>
</svg>
