<svg width="40" height="37" viewBox="0 0 40 37" fill="none" xmlns="http://www.w3.org/2000/svg">
<path d="M35.3662 24.8231C35.9289 23.5747 36.2423 22.191 36.2423 20.735C36.2423 16.5986 33.6837 12.9448 29.9514 11.4595C29.9698 11.2123 29.9795 10.9624 29.9795 10.7145C29.9795 5.21131 25.5023 0.734375 19.9993 0.734375C18.2174 0.734375 16.5432 1.20435 15.0936 2.02588C14.9786 2.05335 14.8748 2.11499 14.7958 2.20166C12.4865 3.61829 10.7952 5.94739 10.2273 8.6836C7.36963 6.91144 3.98309 6.22236 0.607534 6.74268C0.349355 6.78266 0.148854 6.98835 0.11559 7.24714C-0.158458 9.38001 0.0569963 11.5785 0.738455 13.6052C1.4547 15.735 2.63848 17.6152 4.25653 19.1933C4.38622 19.3193 4.51867 19.4435 4.65325 19.565C3.30804 21.266 2.5039 23.4135 2.5039 25.7454C2.5039 31.2483 6.98114 35.7256 12.4841 35.7256C16.6192 35.7256 20.1748 33.1972 21.6873 29.6056C22.4282 29.9883 23.2141 30.2751 24.0255 30.461C24.884 31.6603 25.9253 32.7159 27.1231 33.5994C28.9422 34.941 30.989 35.8046 33.2071 36.1668C33.9566 36.2892 34.718 36.3503 35.4806 36.3503C36.8649 36.3503 38.2531 36.1498 39.5819 35.7527C39.8318 35.678 40.0024 35.4466 40 35.1857C39.9615 31.2135 38.2776 27.4599 35.3662 24.8231V24.8231ZM15.3259 3.25177C15.3744 3.28015 15.4199 3.31372 15.4605 3.35431C15.5865 3.48004 15.6558 3.64759 15.6558 3.8255C15.6558 4.00373 15.5865 4.17096 15.4605 4.297C15.3506 4.40686 15.2889 4.55579 15.2889 4.71112C15.2889 4.86676 15.3506 5.01569 15.4605 5.12555C15.5865 5.25159 15.6558 5.41883 15.6558 5.59705C15.6558 5.77497 15.5865 5.94251 15.4605 6.06824C15.3344 6.19428 15.1672 6.26356 14.9893 6.26356C14.811 6.26356 14.6438 6.19428 14.5178 6.06824C14.2889 5.83936 13.9178 5.83936 13.6892 6.06824C13.4292 6.32825 13.0062 6.32825 12.7465 6.06824C12.6974 6.01911 12.6577 5.96235 12.6263 5.90162C13.3242 4.83594 14.2465 3.93018 15.3259 3.25177ZM1.84899 13.2313C1.27099 11.5123 1.05858 9.65803 1.22857 7.8404C4.35266 7.46534 7.46179 8.21241 10.0472 9.96351C10.0289 10.2113 10.0192 10.4619 10.0192 10.7145C10.0192 12.5334 10.5035 14.2811 11.4245 15.8214C11.0891 15.8571 10.7586 15.9093 10.4339 15.9773L5.38324 10.9263C5.15435 10.6978 4.78326 10.6978 4.55438 10.9263C4.32549 11.1552 4.32549 11.5263 4.55438 11.7552L9.14087 16.3417C7.73279 16.8437 6.46936 17.653 5.43267 18.6894C5.31152 18.5795 5.19158 18.4682 5.0747 18.354C3.59094 16.9069 2.50573 15.1835 1.84899 13.2313ZM12.4841 34.5534C7.6272 34.5534 3.67577 30.6023 3.67577 25.7454C3.67577 20.8885 7.6272 16.9371 12.4841 16.9371C17.341 16.9371 21.2921 20.8885 21.2921 25.7454C21.2921 30.6023 17.341 34.5534 12.4841 34.5534ZM18.0752 17.4821C19.2803 14.4545 22.1194 12.2999 25.3649 11.9719C25.6869 11.9392 25.9216 11.6521 25.8889 11.3301C25.8566 11.0081 25.5691 10.7725 25.2471 10.8058C23.3761 10.995 21.6027 11.7085 20.1184 12.8694C18.7673 13.9262 17.7154 15.3053 17.0568 16.8761C15.7705 16.2102 14.3221 15.8162 12.7874 15.7701C11.7434 14.2845 11.191 12.5401 11.191 10.7145C11.191 9.38398 11.4883 8.12177 12.0187 6.98987C12.6071 7.49677 13.4429 7.57032 14.1027 7.20869C14.3713 7.3567 14.674 7.43543 14.9893 7.43543C15.4803 7.43543 15.942 7.24409 16.2893 6.8968C16.6363 6.54951 16.8276 6.08808 16.8276 5.59675C16.8276 5.28211 16.7492 4.97937 16.6012 4.71112C16.7492 4.44287 16.8276 4.14014 16.8276 3.8255C16.8276 3.39887 16.6833 2.99451 16.4178 2.66797C17.5128 2.17877 18.7246 1.90625 19.9993 1.90625C24.8562 1.90625 28.8076 5.85767 28.8076 10.7145C28.8076 10.8363 28.8049 10.9587 28.8 11.0808C28.6035 11.0295 28.4048 10.9831 28.2034 10.9434C27.8854 10.8809 27.5778 11.0878 27.5152 11.4052C27.4527 11.7225 27.6593 12.0308 27.9766 12.0933C32.0871 12.9039 35.0705 16.5382 35.0705 20.735C35.0705 25.5919 31.119 29.5433 26.2622 29.5433C24.7973 29.5433 23.3596 29.1789 22.0806 28.4886C22.3303 27.6164 22.4642 26.6963 22.4642 25.7451C22.4642 22.3125 20.722 19.279 18.0752 17.4821V17.4821ZM33.396 35.0102C31.3632 34.6782 29.487 33.8863 27.8186 32.6561C27.0379 32.0805 26.3317 31.4235 25.7049 30.6984C25.8902 30.7088 26.076 30.7152 26.2622 30.7152C27.893 30.7152 29.4339 30.3221 30.7946 29.6254L34.2782 32.2624C34.3838 32.3427 34.508 32.3814 34.6313 32.3814C34.8086 32.3814 34.9838 32.3012 35.0988 32.1492C35.2942 31.891 35.2435 31.5236 34.9853 31.3283L31.8814 28.9784C33.0603 28.1725 34.0585 27.1205 34.801 25.8971C37.2274 28.2008 38.6688 31.3738 38.8162 34.7505C37.0501 35.2123 35.1858 35.3026 33.396 35.0102V35.0102Z" fill="black"/>
<path d="M13.1584 22.0476C12.8111 21.7003 12.3494 21.5093 11.8584 21.509C11.8581 21.509 11.8581 21.509 11.8581 21.509C11.5431 21.509 11.2401 21.5877 10.9718 21.736C10.2736 21.353 9.37758 21.4568 8.78676 22.0476C8.19563 22.6384 8.09187 23.535 8.47548 24.2333C8.09217 24.9315 8.19593 25.8281 8.78676 26.419C9.37758 27.0101 10.2745 27.1135 10.9724 26.7302C11.2474 26.8813 11.5529 26.9567 11.8581 26.9567C12.3289 26.9567 12.7998 26.7772 13.1584 26.419C13.7492 25.8281 13.853 24.9315 13.4694 24.2333C13.853 23.535 13.7492 22.6384 13.1584 22.0476ZM12.3296 24.6477C12.5896 24.9074 12.5896 25.3304 12.3296 25.5904C12.0698 25.8504 11.6469 25.8504 11.3869 25.5904C11.2724 25.476 11.1226 25.4186 10.9724 25.4186C10.8226 25.4186 10.6727 25.476 10.5583 25.5904C10.2983 25.8504 9.87532 25.8504 9.61562 25.5904C9.35561 25.3304 9.35561 24.9074 9.61562 24.6477C9.84419 24.4188 9.84419 24.0477 9.61562 23.8189C9.35561 23.5592 9.35561 23.1362 9.61562 22.8765C9.87532 22.6165 10.2983 22.6165 10.5583 22.8765C10.7872 23.1054 11.1583 23.1054 11.3869 22.8762C11.5126 22.7504 11.6801 22.6812 11.8581 22.6812C12.0363 22.6812 12.2035 22.7504 12.3296 22.8765C12.5896 23.1362 12.5896 23.5592 12.3296 23.8189C12.1007 24.0477 12.1007 24.4188 12.3296 24.6477V24.6477Z" fill="black"/>
<path d="M28.2541 23.7533C28.4769 24.518 29.184 25.0786 30.0198 25.0786C30.8557 25.0786 31.5628 24.518 31.7856 23.7533C32.5504 23.5308 33.111 22.8234 33.111 21.9875C33.111 21.1519 32.5504 20.4445 31.7856 20.2221C31.5628 19.457 30.8557 18.8964 30.0198 18.8964C29.184 18.8964 28.4769 19.457 28.2541 20.2221C27.4893 20.4445 26.9287 21.1519 26.9287 21.9875C26.9287 22.8234 27.4893 23.5308 28.2541 23.7533V23.7533ZM28.7674 21.321C29.0909 21.321 29.3533 21.0588 29.3533 20.7351C29.3533 20.3676 29.6521 20.0685 30.0198 20.0685C30.3873 20.0685 30.6864 20.3676 30.6864 20.7351C30.6864 21.0588 30.9488 21.321 31.2723 21.321C31.64 21.321 31.9388 21.6201 31.9388 21.9875C31.9388 22.3552 31.64 22.6543 31.2723 22.6543C30.9488 22.6543 30.6864 22.9165 30.6864 23.2403C30.6864 23.6077 30.3873 23.9068 30.0198 23.9068C29.6521 23.9068 29.3533 23.6077 29.3533 23.2403C29.3533 22.9165 29.0909 22.6543 28.7674 22.6543C28.3997 22.6543 28.1006 22.3552 28.1006 21.9875C28.1006 21.6201 28.3997 21.321 28.7674 21.321Z" fill="black"/>
</svg>
