<svg width="40" height="40" viewBox="0 0 40 40" fill="none" xmlns="http://www.w3.org/2000/svg">
<path d="M18.125 11.25H21.875C22.22 11.25 22.5 10.97 22.5 10.625V4.375C22.5 4.03 22.22 3.75 21.875 3.75H18.125C17.78 3.75 17.5 4.03 17.5 4.375V10.625C17.5 10.97 17.78 11.25 18.125 11.25ZM18.75 5H21.25V10H18.75V5Z" fill="black"/>
<path d="M24.375 11.25H28.125C28.47 11.25 28.75 10.97 28.75 10.625V4.375C28.75 4.03 28.47 3.75 28.125 3.75H24.375C24.03 3.75 23.75 4.03 23.75 4.375V10.625C23.75 10.97 24.03 11.25 24.375 11.25ZM25 5H27.5V10H25V5Z" fill="black"/>
<path d="M11.875 11.25H15.625C15.97 11.25 16.25 10.97 16.25 10.625V4.375C16.25 4.03 15.97 3.75 15.625 3.75H11.875C11.53 3.75 11.25 4.03 11.25 4.375V10.625C11.25 10.97 11.53 11.25 11.875 11.25ZM12.5 5H15V10H12.5V5Z" fill="black"/>
<path d="M18.125 20H21.875C22.22 20 22.5 19.72 22.5 19.375V13.125C22.5 12.78 22.22 12.5 21.875 12.5H18.125C17.78 12.5 17.5 12.78 17.5 13.125V19.375C17.5 19.72 17.78 20 18.125 20ZM18.75 13.75H21.25V18.75H18.75V13.75Z" fill="black"/>
<path d="M24.375 20H28.125C28.47 20 28.75 19.72 28.75 19.375V13.125C28.75 12.78 28.47 12.5 28.125 12.5H24.375C24.03 12.5 23.75 12.78 23.75 13.125V19.375C23.75 19.72 24.03 20 24.375 20ZM25 13.75H27.5V18.75H25V13.75Z" fill="black"/>
<path d="M11.875 20H15.625C15.97 20 16.25 19.72 16.25 19.375V13.125C16.25 12.78 15.97 12.5 15.625 12.5H11.875C11.53 12.5 11.25 12.78 11.25 13.125V19.375C11.25 19.72 11.53 20 11.875 20ZM12.5 13.75H15V18.75H12.5V13.75Z" fill="black"/>
<path d="M8.74999 27.1712V37.5C8.74999 38.1894 9.31061 38.75 9.99999 38.75H30C30.6894 38.75 31.25 38.1894 31.25 37.5V28.5775L32.4112 28.7431C32.7444 28.7919 33.0544 28.5669 33.1144 28.2363L34.3644 21.3619C34.4056 21.1363 34.32 20.905 34.14 20.7612L31.25 18.45V2.5C31.25 1.81062 30.6894 1.25 30 1.25H9.99999C9.31061 1.25 8.74999 1.81062 8.74999 2.5V18.4375L6.49999 20.125C6.33124 20.2519 6.23749 20.455 6.25124 20.6656C6.25561 20.7312 6.26999 20.795 6.29374 20.8544L8.74999 27.1712ZM15.85 26.3906L11.485 30.7556L9.99999 26.9369V26.875H9.97624L8.09061 22.0256L15.85 26.3906ZM15 24.4781L12.5 23.0719V22.5H15V24.4781ZM9.99999 37.5V35.625H30V37.5H9.99999ZM30 34.375H9.99999V30.385L10.6675 32.1012C10.7444 32.2981 10.915 32.4431 11.1219 32.4863C11.1644 32.4956 11.2075 32.5 11.25 32.5C11.4137 32.5 11.5737 32.435 11.6919 32.3169L16.9544 27.0544L24.0281 31.77C24.1344 31.8406 24.255 31.875 24.375 31.875C24.5362 31.875 24.6962 31.8125 24.8175 31.6919L28.3462 28.1631L30 28.3994V34.375ZM21.25 24.3019L18.75 25.0425V22.5H21.25V24.3019ZM31.9925 27.4213L28.2131 26.8812C28.0175 26.8531 27.8219 26.9187 27.6825 27.0581L24.295 30.4456L18.3312 26.47L32.9525 22.1381L31.9925 27.4213ZM25 23.1906V22.5H27.3306L25 23.1906ZM32.425 20.9906L31.25 21.3387V20.05L32.425 20.9906ZM30 2.5V21.7094L28.75 22.08V21.875C28.75 21.53 28.47 21.25 28.125 21.25H24.375C24.03 21.25 23.75 21.53 23.75 21.875V23.5613L22.5 23.9319V21.875C22.5 21.53 22.22 21.25 21.875 21.25H18.125C17.78 21.25 17.5 21.53 17.5 21.875V25.4131L16.9506 25.5756L16.25 25.1813V21.875C16.25 21.53 15.97 21.25 15.625 21.25H11.875C11.53 21.25 11.25 21.53 11.25 21.875V22.3688L9.99999 21.6656V2.5H30ZM8.74999 20V20.9625L8.01686 20.55L8.74999 20Z" fill="black"/>
</svg>
