<svg fill="none" height="40" viewBox="0 0 50 40" width="50" xmlns="http://www.w3.org/2000/svg"><g fill="#fabb00"><path d="m47.2351 20.3373h-4.2034v-11.3573c0-1.51123-1.2295-2.74062-2.7406-2.74062h-6.3253v-2.72285c0-1.46514-1.192-2.657033-2.657-2.657033h-28.65177c-1.46504 0-2.65703 1.191893-2.65703 2.657033v1.17158c0 .40459.32793.73242.732422.73242.404488 0 .732418-.32783.732418-.73242v-1.17158c0-.65733.53487-1.19219 1.19219-1.19219h28.65167c.6573 0 1.1922.53486 1.1922 1.19219v23.06767h-31.03606v-18.46201c0-.40459-.32793-.73242-.732418-.73242-.404492 0-.732422.32783-.732422.73242v24.82711c0 1.4652 1.19199 2.6571 2.65703 2.6571h1.6832c.36827 2.0078 2.13096 3.534 4.24356 3.534 2.11261 0 3.87531-1.5262 4.24351-3.534h11.6511c.4045 0 .7324-.3279.7324-.7325 0-.4045-.3279-.7324-.7324-.7324h-11.6347c-.3291-2.0547-2.114-3.6296-4.26001-3.6296-2.14599 0-3.93086 1.575-4.25986 3.6297h-1.6668c-.65732 0-1.19219-.5348-1.19219-1.1922v-4.9004h31.03606v6.0926h-4.663c-.4045 0-.7324.3279-.7324.7324 0 .4046.3279.7325.7324.7325h9.4986c.3683 2.0078 2.131 3.534 4.2435 3.534s3.8753-1.5262 4.2435-3.534h1.4358c1.5112 0 2.7406-1.2295 2.7406-2.7407v-9.7634c.0001-1.5247-1.2402-2.7651-2.7648-2.7651zm-38.65141 11.6396c1.57121 0 2.84941 1.2782 2.84941 2.8494s-1.2782 2.8495-2.84941 2.8495c-1.57119 0-2.84941-1.2783-2.84941-2.8495s1.27832-2.8494 2.84941-2.8494zm32.99641 5.6988c-1.5712 0-2.8494-1.2783-2.8494-2.8495s1.2782-2.8494 2.8494-2.8494 2.8494 1.2782 2.8494 2.8494-1.2782 2.8495-2.8494 2.8495zm6.9551-10.6022h-1.9492c-.4038 0-.7324-.3286-.7324-.7325s.3285-.7324.7324-.7324h1.9492zm0-2.9297h-1.9492c-1.2115 0-2.1972.9857-2.1972 2.1972 0 1.2116.9856 2.1973 2.1972 2.1973h1.9492v4.3274c0 .7036-.5724 1.2758-1.2758 1.2758h-1.4194c-.329-2.0547-2.1139-3.6296-4.2599-3.6296s-3.9309 1.5749-4.2599 3.6296h-3.3545v-26.43728h6.3253c.7035 0 1.2758.57227 1.2758 1.27578v.17061h-4.9036c-.4045 0-.7324.32783-.7324.73242v11.18667c0 .4046.3279.7325.7324.7325h10.5718c.7169 0 1.3001.5833 1.3001 1.3001v1.0415zm-6.9683-13.5283v9.7218h-4.1712v-9.7218z"/><path d="m38.3564 24.1438h-1.6933c-.4045 0-.7324.3278-.7324.7324s.3279.7324.7324.7324h1.6933c.4045 0 .7325-.3278.7325-.7324s-.328-.7324-.7325-.7324z"/><path d="m21.2785 12.8167c.4045 0 .7324-.3279.7324-.7325s-.3279-.7324-.7324-.7324h-2.9279c-.4045 0-.7324.3278-.7324.7324v5.8577c0 .4046.3279.7325.7324.7325h2.9279c.4045 0 .7324-.3279.7324-.7325 0-.4045-.3279-.7324-.7324-.7324h-2.1955v-1.4639h2.1955c.4045 0 .7324-.3279.7324-.7325s-.3279-.7324-.7324-.7324h-2.1955v-1.464z"/><path d="m27.0388 12.8167c.4045 0 .7324-.3279.7324-.7325s-.3279-.7324-.7324-.7324h-2.928c-.4045 0-.7324.3278-.7324.7324v5.8577c0 .4046.3279.7325.7324.7325h2.928c.4045 0 .7324-.3279.7324-.7325 0-.4045-.3279-.7324-.7324-.7324h-2.1955v-1.4639h2.1955c.4045 0 .7324-.3279.7324-.7325s-.3279-.7324-.7324-.7324h-2.1955v-1.464z"/><path d="m9.85469 12.8167c.40451 0 .73241-.3279.73241-.7325s-.3279-.7324-.73241-.7324h-2.92793c-.40449 0-.73242.3278-.73242.7324v5.8577c0 .4046.32793.7325.73242.7325s.73242-.3279.73242-.7325v-2.1963h2.19551c.40451 0 .73241-.3279.73241-.7325s-.3279-.7324-.73241-.7324h-2.19551v-1.464z"/><path d="m16.2512 15.0133v-2.9289c0-.4046-.328-.7325-.7324-.7325h-2.928c-.4045 0-.7324.3279-.7324.7325v5.8577c0 .4046.3279.7324.7324.7324s.7324-.3278.7324-.7324v-1.9722l1.5862 2.3785c.1411.2117.3733.3262.61.3262.1397 0 .2808-.0399.4057-.1232.3365-.2245.4274-.6792.203-1.0157l-1.1937-1.79h.5844c.4044 0 .7324-.328.7324-.7324zm-1.4649-.7325h-1.4631v-1.464h1.4631z"/></g></svg>