<svg fill="none" height="45" viewBox="0 0 60 45" width="60" xmlns="http://www.w3.org/2000/svg"><g fill="#000"><path d="m52.9358 19.8273c-2.0416-1.0207-5.8695-1.0325-6.0315-1.0325-.4854 0-.8789.3935-.8789.8789s.3935.8789.8789.8789c.9878.0001 3.8557.1522 5.2454.847.1263.0632.2603.093.3924.093.3224 0 .6328-.1782.7868-.486.2171-.4342.0411-.9621-.3931-1.1793z"/><path d="m57.3178 32.3408-3.6299-1.0371c-.1567-.0448-.2661-.1898-.2661-.3528v-1.2116c.2953-.2047.577-.4336.8403-.6892 1.2762-1.2385 1.979-2.8996 1.979-4.6776v-1.6719l.351-.7018c.3852-.7705.5887-1.6331.5887-2.4945v-4.5293c0-.4854-.3935-.8789-.8789-.8789h-8.4578c-3.0754 0-5.5776 2.5022-5.5776 5.5777v.0524c0 .7162.1693 1.4335.4896 2.0741l.4501.9002v1.4356c0 2.275 1.1211 4.3163 2.8193 5.5447l.0002 1.2698c0 .1958 0 .2769-.7257.4844l-1.7712.506-5.1235-1.8631c.0184-.2417-.0632-.4876-.2396-.6729l-1.6372-1.72v-2.8875c.1731-.1427.3437-.2891.5091-.4441 2.0654-1.9359 3.2499-4.6692 3.2499-7.4989v-2.306c.6237-1.3572.9398-2.7933.9398-4.2723v-9.397294c0-.48539-.3935-.878906-.8789-.878906h-13.1566c-4.63 0-8.3968 3.76687-8.3968 8.39684v1.87956c0 1.479.3161 2.9152.9397 4.2723v1.9841c0 3.2855 1.4609 6.2454 3.759 8.1968v2.9555l-1.6372 1.7201c-.1763.1852-.2579.4311-.2395.6728l-5.4076 1.9663c-.3919.1425-.756.3355-1.0866.5693l-.8491-.4245c2.5277-1.1003 3.3284-2.6478 3.3669-2.7246.1237-.2474.1237-.5388 0-.7861-.6336-1.2673-.7104-3.5901-.772-5.4564-.0206-.6213-.04-1.2083-.0772-1.731-.2996-4.2157-3.5044-7.3949-7.45484-7.3949-3.95039 0-7.15535 3.1791-7.45488 7.3949-.03715.5228-.0566 1.1098-.07711 1.7312-.06164 1.8662-.13852 4.1888-.77203 5.456-.123751.2474-.123751.5388 0 .7861.03844.0769.83754 1.6212 3.37031 2.7228l-2.35863 1.1792c-1.260939.631-2.04422 1.8983-2.04422 3.308v6.4932c0 .4854.393516.8789.878906.8789.485394 0 .878904-.3935.878904-.8789v-6.4932c0-.7397.41098-1.4047 1.0725-1.7355l2.93707-1.4685 1.02164.9709c.71438.6788 1.63078 1.0181 2.54754 1.0181.91654 0 1.83344-.3395 2.54754-1.0181l1.0215-.9708.9577.4788c-.451.7215-.7069 1.5676-.7069 2.4539v6.7647c0 .4854.3935.8789.8789.8789s.8789-.3935.8789-.8789v-6.7647c0-1.2065.7619-2.2943 1.8959-2.7067l5.7014-2.0731 2.3734 3.5603c.3034.4551.7896.747 1.3339.8009.0607.006.1211.0089.1813.0089.4803 0 .9402-.189 1.284-.5327l1.448-1.448v9.1552c0 .4854.3935.8789.8789.8789s.8789-.3935.8789-.8789v-9.1552l1.448 1.448c.3437.3438.8037.5329 1.284.5329.0601 0 .1206-.003.1812-.009.5444-.0539 1.0307-.3458 1.334-.8009l2.3736-3.5602 5.7013 2.0732c1.1339.4124 1.8958 1.5001 1.8958 2.7067v6.7646c0 .4854.3935.8789.8789.8789s.8789-.3935.8789-.8789v-6.7646c0-1.2221-.4855-2.3682-1.2999-3.2158l.2171-.062c.219-.0626.5179-.1482.8179-.2953l2.244 2.244v8.0937c0 .4854.3935.8789.8789.8789s.8789-.3935.8789-.8789v-8.0937l2.2284-2.2284c.1185.0602.243.1111.374.1485l3.63 1.0371c.8285.2367 1.4073 1.0039 1.4073 1.8657v7.2708c0 .4854.3935.8789.8789.8789s.8789-.3935.8789-.8789v-7.2708c0-1.6427-1.103-3.1051-2.6822-3.5564zm-51.67932-1.5524c-1.64403-.5915-2.46868-1.3802-2.82071-1.8109.24-.6274.39563-1.346.50098-2.1045.48469 1.1621 1.29645 2.1542 2.31973 2.862zm5.03492 2.3787c-.74961.7123-1.92395.7122-2.67336-.0001l-.81738-.7767c.13793-.2584.21375-.5514.21375-.8583v-.9368c.61312.1916 1.26492.295 1.94039.295.6746 0 1.3261-.1039 1.9403-.2944l-.0001.9361c0 .307.0757.6001.2137.8586zm-1.33637-4.0348c-2.62453 0-4.75957-2.1351-4.75957-4.7595 0-.4854-.39351-.8789-.87891-.8789-.04921 0-.09726.005-.14425.0129.00257-.0756.00504-.1513.00761-.2262.01957-.6044.03844-1.1752.07325-1.6648.11226-1.5792.74332-3.0344 1.77691-4.0978 1.04285-1.073 2.43668-1.6638 3.92473-1.6638 1.488 0 2.8818.5908 3.9247 1.6638 1.0336 1.0634 1.6647 2.5186 1.7769 4.0978.0347.4895.0537 1.0602.0736 1.6644.0018.0519.0035.1046.0053.1568-.9562-1.4732-2.433-2.559-4.3412-3.1721-1.76286-.5664-3.27903-.5313-3.34301-.5297-.23016.0064-.4486.1028-.60832.2685l-1.58579 1.6446c-.33691.3494-.32683.9058.02262 1.2428.34945.3369.90586.3267 1.24277-.0227l1.31954-1.3684c1.13636.0556 4.79229.4807 6.21409 3.6116-.3578 2.3072-2.3408 4.0207-4.70097 4.0207zm3.69757 1.6591.0002-1.0483c1.0224-.7039 1.8354-1.6942 2.3204-2.8651.1053.7568.2609 1.4738.5004 2.0998-.3501.4265-1.1786 1.2222-2.821 1.8136zm8.4579-14.2587v-2.1806c0-.1323-.0298-.263-.0874-.3822-.5655-1.1711-.8523-2.4138-.8523-3.6935v-1.87945c0-3.66082 2.9783-6.63902 6.639-6.63902h12.2777v8.51857c0 1.2797-.2868 2.5224-.8524 3.6935-.0575.1192-.0874.2499-.0874.3822v2.5025c0 2.3802-.9568 4.5879-2.6942 6.2165-.2169.2032-.4421.3937-.6748.5713-.0052.0035-.0101.0073-.0151.011-1.6276 1.2357-3.6212 1.8363-5.7032 1.7014-4.4579-.2886-7.9499-4.1638-7.9499-8.8222zm4.9487 17.6849c-.006.0061-.0202.0205-.0489.0174-.0286-.0028-.0399-.0195-.0447-.0268l-2.7334-4.1002.8796-.9242 4.1467 2.8344zm3.5699-3.3918-4.7595-3.2533v-1.6407c1.2315.6658 2.6104 1.0821 4.077 1.1771.2317.015.462.0224.6916.0224 1.6805 0 3.298-.4018 4.7505-1.1643v1.6055zm3.6635 3.3826c-.0048.0073-.016.0241-.0446.0269-.0287.0036-.0428-.0115-.049-.0175l-2.1992-2.1992 4.1466-2.8346.8798.9243zm16.049-.7415-1.9945-1.9944c.0348-.1581.0545-.3312.0543-.5221l-.0001-.3709c.5535.1816 1.1369.2894 1.7405.3075.0677.0021.1349.003.2024.003.667 0 1.3181-.1007 1.9378-.293v.3539c0 .1753.022.3471.0635.5122zm3.3144-5.6782c-.9315.904-2.1621 1.3814-3.4614 1.3413-2.5434-.0763-4.6126-2.3166-4.6126-4.9937v-1.6431c0-.1365-.0317-.2711-.0928-.393l-.5429-1.0859c-.1989-.3979-.304-.8432-.304-1.288v-.0524c0-2.1063 1.7136-3.8198 3.8198-3.8198h7.5789v3.6504c0 .5899-.1394 1.1806-.4032 1.7083l-.4437.8874c-.0611.1221-.0928.2565-.0928.393v1.8795c0 1.2984-.5133 2.5115-1.4453 3.416z"/><path d="m55.3613 36.6501c-.4854 0-.8789.3936-.8789.879v5.6384c0 .4854.3935.8789.8789.8789s.8789-.3935.8789-.8789v-5.6384c0-.4853-.3935-.879-.8789-.879z"/><path d="m4.63867 37.8118c-.48539 0-.8789.3935-.8789.8789v4.4767c0 .4853.39351.8789.8789.8789s.87891-.3936.87891-.8789v-4.4767c0-.4853-.39352-.8789-.87891-.8789z"/><path d="m37.2096 10.5947c-3.3241-3.32417-10.2791-2.68867-13.1153-2.26117-.8933.13465-1.5416.89063-1.5416 1.79757v2.0247c0 .4854.3936.8789.8789.8789.4854 0 .8789-.3935.8789-.8789v-2.0248c0-.0299.0197-.0555.046-.0595 1.1328-.1707 3.3808-.43414 5.71-.27887 2.7407.18246 4.7259.87047 5.9002 2.04487.3433.3433.8998.3433 1.2429 0 .3433-.3432.3433-.8997 0-1.2428z"/><path d="m19.6738 38.5295c-.4854 0-.8789.3936-.8789.8789v3.7591c0 .4854.3935.8789.8789.8789s.8789-.3935.8789-.8789v-3.7591c0-.4852-.3935-.8789-.8789-.8789z"/><path d="m40.3477 38.5295c-.4854 0-.8789.3936-.8789.8789v3.7591c0 .4854.3935.8789.8789.8789.4853 0 .8789-.3935.8789-.8789v-3.7591c0-.4852-.3936-.8789-.8789-.8789z"/></g></svg>