<svg fill="none" height="60" viewBox="0 0 60 60" width="60" xmlns="http://www.w3.org/2000/svg"><g fill="#000"><path d="m29.7935 7.62422c.6518 0 1.1802-.5284 1.1802-1.1802v-5.26382c0-.651802-.5284-1.1802-1.1802-1.1802s-1.1802.528398-1.1802 1.1802v5.26382c.0001.6518.5285 1.1802 1.1802 1.1802z"/><path d="m58.639 40.5452-2.0849-2.079c-.7417-.7408-1.7302-1.1488-2.7834-1.1488-.6735 0-1.32.1676-1.893.4815l-3.9288-3.9241.1914-.1912c1.5938-1.597 1.5933-4.1921-.0001-5.7837-.5695-.5705-1.28-.9509-2.0545-1.111.1067-.3681.1628-.7536.1628-1.1482 0-1.0963-.4258-2.1242-1.1967-2.8919-.5695-.5705-1.2799-.9509-2.0544-1.111.1066-.3681.1628-.7535.1628-1.1482 0-1.0964-.4259-2.1242-1.1981-2.8931-.5831-.5824-1.2999-.9511-2.0526-1.108.4026-1.3883.0586-2.9503-1.0336-4.0444-.9091-.9053-2.1428-1.2943-3.3316-1.1682l-7.7854-1.47366c-1.1873-.22523-2.6701-.37418-3.6061.47956-.0591.0539-.1193.1159-.1786.1849-1.4512-.52899-3.1439-.214-4.306.9469-.771.77-1.1957 1.7975-1.1957 2.8932 0 .3947.0559.7801.1624 1.1483-.7737.16-1.4832.5399-2.0508 1.1085-.7725.7693-1.1984 1.7957-1.1993 2.8901-.0003.3956.0558.7823.1629 1.1515-.774.1596-1.484.5388-2.0533 1.1074-.7725.7717-1.1979 1.7998-1.1979 2.8949 0 .8388.2504 1.6379.7145 2.3129-.586.1986-1.1227.5292-1.5721.9782-1.59492 1.5929-1.5955 4.1881.0011 5.7875l.1906.1899-3.92927 3.9221c-1.46028-.6875-3.25946-.43-4.46449.7736l-2.08618 2.0803c-.742027.7411-1.15054281 1.7297-1.15066 2.7835 0 1.054.408633 2.0427 1.15066 2.7839l2.60356 2.6004c.46113.4607 1.20844.4602 1.66898-.0009.46067-.4612.4602-1.2085-.00093-1.669l-2.60356-2.6004c-.29555-.2952-.45832-.6908-.45832-1.1139 0-.4229.16277-.8184.45762-1.1129l2.08629-2.0804c.52125-.5207 1.31906-.5983 1.92492-.236.04265.0641.09199.125.14847.1816.10114.1014.21657.1791.33915.2359l11.96406 11.9465c.0568.1238.1348.2404.2367.3424.0991.0992.2122.176.3322.2325.253.286.3928.6514.3928 1.0412 0 .423-.1628.8185-.4583 1.1137l-2.0842 2.0818c-.6158.6131-1.6175.613-2.2315.0018l-2.6035-2.6038c-.4609-.4609-1.2081-.4609-1.669 0s-.4609 1.2081 0 1.669l2.6054 2.6057c.7669.7637 1.774 1.1454 2.7816 1.1454 1.0078 0 2.0161-.3823 2.7839-1.1467l2.0855-2.083c.742-.7412 1.1506-1.7298 1.1506-2.7839 0-.7522-.2092-1.4706-.5981-2.0901l4.4222-4.4168c.0047-.0048.0094-.0096.0142-.0144.5063-.5234 1.9165-.4255 3.2802-.3308.9689.0674 2.0491.1423 3.1045.0206l4.8426 4.837c-.3137.5719-.4811 1.2176-.4811 1.8901 0 1.0529.4086 2.0409 1.1506 2.7821l2.0856 2.083c.7416.7408 1.7301 1.1488 2.7833 1.1488s2.0417-.4079 2.7834-1.1488l12.6493-12.634c.742-.7411 1.1507-1.7296 1.1507-2.7836-.0002-1.0539-.4088-2.0425-1.1515-2.7843zm-31.3195-28.4238 5.1195.969-3.0643 3.0632c-.474-.2278-1.1237-.6528-1.8365-1.3346-.9755-.9332-1.6734-2.0108-1.7369-2.6829-.0001-.0003-.0001-.0007-.0001-.001 0-.0001-.0001-.0002-.0001-.0004-.0046-.0482-.0058-.0868-.0052-.1162.1543-.0375.5643-.0791 1.5236.1029zm-5.9834.9622c.5979-.5973 1.5267-.6662 2.2023-.2087.3828 1.6052 1.7522 3.0601 2.3682 3.6496.4566.4368 1.9216 1.7466 3.4002 2.1066.2001.2868.3089.6286.3089.9893 0 .4647-.1787.8991-.5043 1.2244-.3248.3253-.7599.5044-1.2253.5044-.4656 0-.9008-.1791-1.227-.5059l-.0001-.0001-.0006-.0006-5.3224-5.3128c-.3245-.324-.5032-.7585-.5032-1.223.0001-.4646.1788-.8991.5033-1.2232zm-3.0839 5.15c.3247-.3251.7594-.5043 1.2241-.5043.4654 0 .9014.1795 1.2283.506l4.2858 4.2772c.6748.676.6748 1.7759.0023 2.4495-.3265.3252-.7631.5042-1.2294.5042s-.9029-.179-1.228-.5028l-.0001-.0001-3.2514-3.2507c-.0051-.005-.0106-.0097-.0157-.0149l-1.0172-1.0167c-.3264-.326-.506-.7613-.5057-1.2256.0005-.4627.1796-.8957.507-1.2218zm-3.0898 5.149c.325-.3245.7606-.5032 1.2267-.5032.4623 0 .8942.1762 1.2177.495l3.2614 3.2598c.3252.3239.5043.7579.5043 1.2219s-.1791.8979-.5056 1.2231c-.3249.3244-.76.5031-1.2253.5031-.4661 0-.9026-.1792-1.2279-.5031l-1.1823-1.1809c-.0003-.0003-.0006-.0006-.0009-.0008l-2.068-2.0655c-.326-.3257-.5055-.7607-.5055-1.2248 0-.4639.1795-.899.5054-1.2246zm-2.0554 6.1859c.3263-.326.7625-.5056 1.2281-.5056.4654 0 .9015.1795 1.2278.5052l1.1839 1.1826c.3253.3239.5044.7578.5044 1.2219s-.1792.8979-.5069 1.2244c-.3247.3252-.7598.5043-1.2253.5043-.4656 0-.9007-.179-1.2278-.5067l-.1482-.1476c-.002-.002-.0035-.0041-.0054-.006-.0022-.0021-.0046-.004-.0068-.0061l-1.0227-1.0187c-.6749-.6763-.6754-1.7742-.0011-2.4477zm24.0508 13.413c-.4607-.4612-1.208-.4616-1.669-.001l-1.05 1.0487c-.9977.9977-2.8056.8721-4.5539.7508-1.8985-.1319-3.8618-.2681-5.1322 1.0362l-4.3471 4.3418-10.87064-10.8547 3.84704-3.8402c.6359.3898 1.3696.5987 2.1373.5987 1.0967 0 2.1252-.4251 2.8933-1.1947.7733-.7701 1.1993-1.798 1.1993-2.8944 0-.0102-.0007-.0203-.0007-.0305.0102.0002.0204.0007.0306.0007 1.0952 0 2.1228-.4238 2.8921-1.1921.7733-.7702 1.1993-1.7981 1.1993-2.8944 0-.0102-.0007-.0203-.0007-.0305.0103 0 .0206.0007.031.0007 1.0949 0 2.1231-.4234 2.8975-1.1946.8039-.8052 1.2015-1.8653 1.1939-2.9231.0105.0001.0211.0007.0316.0007 1.0968-.0001 2.1251-.4252 2.8944-1.1959.771-.7701 1.1957-1.7976 1.1957-2.8933 0-.7662-.2084-1.4988-.5968-2.1334l3.3718-3.3704c.2512-.2502.5611-.4072.8858-.472.0352-.0038.0699-.0094.1042-.0162.521-.0718 1.0682.089 1.4666.4858.6749.676.6749 1.7759.0025 2.4495l-1.027 1.0227c-.0034.0034-.007.0065-.0104.0099l-1.1828 1.1807c-.4612.4606-.4617 1.2079-.001 1.669.4608.4613 1.208.4616 1.669.0011l1.031-1.0296c.0002-.0003.0005-.0005.0007-.0007l.1559-.1553c.6767-.6705 1.7731-.6691 2.4492.006.3253.3239.5045.7578.5045 1.2219 0 .4639-.1792.8979-.5071 1.2244l-1.0328 1.0348c-.0001.0002-.0002.0003-.0003.0005l-1.1827 1.1779c-.4618.4599-.4634 1.2072-.0034 1.669s1.2072.4632 1.669.0034l1.188-1.1833c.3248-.3253.7599-.5044 1.2254-.5044s.9008.1791 1.2278.5068c.3254.324.5044.7579.5044 1.222 0 .4639-.179.8979-.5062 1.2237l-2.059 2.0598c-.4608.461-.4607 1.2082.0002 1.6689.2305.2304.5324.3455.8344.3455.3021 0 .6042-.1153.8346-.3458l1.0091-1.0095c.0058-.0055.012-.0103.0177-.016.3247-.3253.7598-.5044 1.2253-.5044.4656 0 .9007.1791 1.2266.5056.6742.6734.6736 1.7715 0 2.4462l-1.026 1.0249c-.0003.0003-.0008.0007-.0011.001-.0004.0004-.0007.0008-.0011.0012l-1.6284 1.6264c-.4612.4607-.4616 1.208-.0011 1.6691.2305.2308.5329.3462.8351.3462.3018 0 .6036-.1151.834-.3451l.7965-.7956 3.8177 3.8132-10.8698 10.8564-3.8946-3.8899c.2716-.1746.5314-.3799.7752-.6238l1.0494-1.0481c.4614-.4604.4619-1.2077.0012-1.6689zm19.8138 1.4616-12.6493 12.634c-.2959.2955-.692.4583-1.1153.4583s-.8194-.1628-1.1154-.4584l-2.0855-2.083c-.2956-.2951-.4584-.69-.4584-1.112 0-.4219.1628-.8168.4584-1.112l12.6493-12.634c.296-.2957.692-.4584 1.1154-.4584.4233 0 .8193.1627 1.1161.4591l2.0849 2.079c.2955.2952.4583.6906.4583 1.1137-.0001.4231-.1629.8186-.4585 1.1137z"/><path d="m14.1217 6.62929c.2303.22992.532.34476.8336.34476.3024 0 .6048-.11554.8353-.34652.4605-.46137.4598-1.20855-.0016-1.66898l-4.3006-4.291997c-.4612-.460429-1.2085-.459844-1.66894.001641-.46043.461366-.45972 1.208556.00164 1.668986z"/><path d="m44.6294 6.97413c.3017 0 .6036-.11508.834-.34512l4.2973-4.29211c.4611-.46054.4616-1.20785.0009-1.66898-.4605-.461133-1.2077-.461601-1.669-.000937l-4.2972 4.292107c-.4612.46055-.4616 1.20785-.001 1.66899.2305.23074.5328.34605.835.34605z"/><path d="m7.25849 50.766c-.45691.4648-.45059 1.2121.0143 1.669l.0034.0033c.22933.2255.5271.3377.82476.3377.30551 0 .61102-.1182.84246-.3536.45691-.4648.44883-1.2137-.01594-1.6707-.46465-.4569-1.21183-.4504-1.66898.0143z"/><path d="m40.0445 41.2812c.1795 0 .3617-.0409.5326-.1271.582-.2935.8158-1.0032.5223-1.5852-.2935-.5819-1.0033-.8158-1.5852-.5223l-.0065.0033c-.582.2936-.8125 1.0016-.519 1.5836.2071.4111.6239.6477 1.0558.6477z"/></g></svg>