<svg fill="none" height="60" viewBox="0 0 60 60" width="60" xmlns="http://www.w3.org/2000/svg"><g fill="#000"><path d="m29.998 21.2701h-22.49812c-.48539 0-.87879.3936-.87879.8788 0 .4854.3934.8788.87879.8788h22.49822c.4854 0 .8788-.3935.8788-.8788 0-.4852-.3934-.8788-.8789-.8788z"/><path d="m29.998 27.4457h-22.49812c-.48539 0-.87879.3935-.87879.8788 0 .4852.3934.8788.87879.8788h22.49822c.4854 0 .8788-.3936.8788-.8788 0-.4853-.3934-.8788-.8789-.8788z"/><path d="m29.998 33.6207h-22.49812c-.48539 0-.87879.3935-.87879.8788s.3934.8788.87879.8788h22.49822c.4854 0 .8788-.3935.8788-.8788s-.3934-.8788-.8789-.8788z"/><path d="m30.8769 40.6749c0-.4854-.3934-.8788-.8788-.8788h-22.49822c-.48539 0-.87879.3936-.87879.8788 0 .4853.3934.8788.87879.8788h22.49822c.4854 0 .8788-.3934.8788-.8788z"/><path d="m7.49988 48.8462c-.48539 0-.87879.3935-.87879.8788s.3934.8788.87879.8788h11.27792c.4854 0 .8788-.3935.8788-.8788s-.3934-.8788-.8788-.8788z"/><path d="m40.1238 10.8811v-2.85162c0-1.08633-.8837-1.97015-1.9701-1.97015h-18.043c-1.0864 0-1.9701.88382-1.9701 1.97015v2.85162c0 1.0864.8837 1.9701 1.9701 1.9701h1.5236c.4854 0 .8788-.3936.8788-.8788 0-.4854-.3934-.8788-.8788-.8788h-1.5236c-.1171 0-.2124-.0953-.2124-.2124v-2.85172c0-.11707.0953-.21246.2124-.21246h18.043c.1172 0 .2124.09527.2124.21246v2.85162c0 .1171-.0952.2124-.2124.2124h-12.4108c-.4854 0-.8788.3935-.8788.8788s.3934.8787.8788.8787h12.4109c1.0863.0003 1.97-.8835 1.97-1.9699z"/><path d="m46.6962 53.5894c-.4854 0-.8788.3935-.8788.8788v1.1834c0 1.4284-1.1622 2.5907-2.5908 2.5907h-38.87836c-1.4284 0-2.59066-1.1621-2.59066-2.5907v-42.2421c0-.1902.02226-.3767.06199-.5583h8.00191c1.67062 0 3.02972-1.3591 3.02972-3.02972v-8.00179c.1816-.03973.368-.06199.5582-.06199h29.8171c1.4285 0 2.5908 1.16214 2.5908 2.59066v11.70024c0 .4854.3934.8788.8787.8788.4854 0 .8788-.3935.8788-.8788v-11.70036c.0002-2.39754-1.9505-4.34824-4.3482-4.34824h-29.8171c-1.1614 0-2.2535.452344-3.0747 1.27359l-9.06132 9.06131c-.821253.8212-1.27348 1.9132-1.27348 3.0747v42.2422c0 2.3976 1.95059 4.3482 4.34824 4.3482h38.87836c2.3977 0 4.3484-1.9507 4.3484-4.3482v-1.1835c0-.4854-.3934-.8789-.8788-.8789zm-35.6025-50.58893v6.82101c0 .70152-.5707 1.27222-1.27222 1.27222h-6.82101z"/><path d="m58.7326 31.406c.6169-.9055.7765-2.0224.4379-3.0644-.3385-1.042-1.1243-1.8518-2.1555-2.2216-.6842-.2454-1.1406-.8736-1.1624-1.6001-.0332-1.0951-.5606-2.0926-1.4472-2.7367-.8862-.644-1.9981-.8372-3.0495-.5304-.6982.2037-1.4362-.0363-1.881-.6111-.6704-.8666-1.6834-1.3636-2.7791-1.3636-1.0956 0-2.1087.497-2.7792 1.3636-.4449.5749-1.1833.8145-1.8809.6111-1.0515-.307-2.1633-.1136-3.0498.5304-.8864.6441-1.4136 1.6414-1.4469 2.7366-.0219.7265-.4782 1.3545-1.1625 1.6-1.0312.3699-1.817 1.1798-2.1554 2.2217-.3386 1.042-.179 2.159.4379 3.0644.4092.6008.4092 1.3771 0 1.9778-.6169.9055-.7765 2.0224-.4379 3.0645.3384 1.042 1.1242 1.8518 2.1554 2.2217.6843.2455 1.1407.8735 1.1625 1.6001.0306 1.0073.4922 1.9539 1.2668 2.5966.5111.4242 1.125.6897 1.7675.7784v8.0013c0 .6751.3663 1.2992.9556 1.6283.5886.329 1.3123.3143 1.8875-.0399l3.2233-1.9842c.0525-.0325.0838-.0179.1127 0l3.223 1.9842c.575.3539 1.2984.3691 1.8877.0398.5894-.3293.9555-.9533.9555-1.6283v-8.0014c.6423-.0886 1.2563-.3541 1.7673-.7782.7747-.6427 1.2365-1.5891 1.267-2.5967.0218-.7266.4783-1.3547 1.1624-1.6001 1.0314-.3698 1.8171-1.1797 2.1556-2.2218.3385-1.042.1789-2.1589-.438-3.0644-.4097-.6005-.4097-1.3767-.0003-1.9776zm-7.836 20.332-3.2231-1.9843c-.5992-.3687-1.3557-.3693-1.9555 0l-3.2231 1.9841c-.0734.0447-.164-.0068-.164-.0916v-8.1681c.6042-.0699 1.2033.1759 1.5857.6701.6706.8665 1.6836 1.3635 2.7793 1.3635 1.0956 0 2.1086-.497 2.779-1.3635.3825-.4943.9817-.74 1.5858-.6701v8.1681c0 .0854-.0918.1364-.1641.0918zm6.3834-17.3644c.3085.4526.3882 1.0107.219 1.5315-.1693.5208-.562.9256-1.0775 1.1105-1.369.491-2.2818 1.7476-2.3258 3.2013-.0156.5111-.2402.9717-.6324 1.2973-.441.3659-1.0382.504-1.615.3357-1.3961-.4073-2.8734.0727-3.7636 1.2227-.335.4331-.8414.6815-1.389.6815-.5475 0-1.0539-.2483-1.3892-.6815-.6795-.8784-1.7015-1.3659-2.7683-1.3659-.3302 0-.6649.0468-.9949.1431-.5824.1697-1.1779.0274-1.6153-.3357-.3922-.3256-.6169-.7863-.6322-1.2972-.0441-1.4537-.957-2.7103-2.3261-3.2014-.5154-.185-.908-.5896-1.0773-1.1104-.1692-.5208-.0895-1.0791.2189-1.5316.8188-1.202.8188-2.7551 0-3.9571-.3084-.4526-.3881-1.0109-.2189-1.5318.1692-.5207.5619-.9255 1.0773-1.1103 1.3691-.4911 2.282-1.7477 2.3261-3.2015.0165-.5473.2799-1.0459.723-1.3677.4429-.3219.9983-.4184 1.5244-.2651 1.3957.4074 2.8734-.0727 3.7633-1.2228.3352-.4331.8414-.6815 1.3892-.6815.5476 0 1.0538.2483 1.389.6814.89 1.1502 2.3671 1.6302 3.7635 1.2229.5257-.1536 1.0811-.0569 1.5242.265.4431.3218.7068.8205.7232 1.3677.0441 1.4537.9569 2.7105 2.3259 3.2015.5155.1848.9081.5895 1.0775 1.1103.1692.5208.0895 1.0792-.219 1.5317-.819 1.2021-.819 2.7554 0 3.9574z"/><path d="m46.6977 25.0293c-4.0615 0-7.3657 3.3042-7.3657 7.3657s3.3042 7.3657 7.3657 7.3657c4.0614 0 7.3656-3.3042 7.3656-7.3657s-3.3042-7.3657-7.3656-7.3657zm0 12.9738c-3.0923 0-5.6081-2.5158-5.6081-5.608s2.5158-5.6081 5.6081-5.6081c3.0924 0 5.608 2.5158 5.608 5.6081s-2.5157 5.608-5.608 5.608z"/></g></svg>