<svg fill="none" height="60" viewBox="0 0 56 60" width="56" xmlns="http://www.w3.org/2000/svg"><g fill="#000"><path d="m55.3635 8.41816c0-1.67824-1.3654-3.04347-3.0435-3.04347h-.6797v-.32262c.0001-2.78566-2.2663-5.05207-5.0519-5.05207h-37.50567c-2.78566 0-5.05195 2.26641-5.05195 5.05207v2.31211h-.92332c-1.71351 0-3.10746 1.39395-3.10746 3.10742 0 1.7136 1.39395 3.1075 3.10746 3.1075h.92332v3.5491h-.92332c-1.71351 0-3.10746 1.394-3.10746 3.1075s1.39395 3.1075 3.10746 3.1075h.92332v3.5492h-.92332c-1.71351 0-3.10746 1.394-3.10746 3.1075s1.39395 3.1074 3.10746 3.1074h.92332v3.5493h-.92332c-1.71351 0-3.10746 1.3939-3.10746 3.1075 0 1.7135 1.39395 3.1074 3.10746 3.1074h.92332v3.5492h-.92332c-1.71351 0-3.10746 1.3939-3.10746 3.1074s1.39395 3.1075 3.10746 3.1075h.92332v2.3121c0 2.7857 2.26629 5.0521 5.05195 5.0521h37.50567c2.7856 0 5.052-2.2664 5.052-5.0521v-3.3641c0-.4857-.3937-.8795-.8795-.8795-.4857 0-.8795.3938-.8795.8795v3.3641c0 1.8158-1.4772 3.2931-3.293 3.2931h-37.50567c-1.81582 0-3.29308-1.4773-3.29308-3.2931v-2.3121h.92332c1.71351 0 3.10746-1.394 3.10746-3.1075s-1.39395-3.1074-3.10746-3.1074h-.92332v-3.5492h.92332c1.71351 0 3.10746-1.3939 3.10746-3.1074 0-1.7136-1.39395-3.1075-3.10746-3.1075h-.92332v-3.5493h.92332c1.71351 0 3.10746-1.3939 3.10746-3.1074s-1.39395-3.1075-3.10746-3.1075h-.92332v-3.5492h.92332c1.71351 0 3.10746-1.394 3.10746-3.1075s-1.39395-3.1075-3.10746-3.1075h-.92332v-3.5491h.92332c1.71351 0 3.10746-1.3939 3.10746-3.1075 0-1.71347-1.39395-3.10742-3.10746-3.10742h-.92332v-2.31211c0-1.81582 1.47726-3.29309 3.29308-3.29309h37.50567c1.8158 0 3.293 1.47727 3.293 3.29309v42.42063c0 .4857.3938.8795.8795.8795.4858 0 .8795-.3938.8795-.8795v-14.3065h.6797c1.6781 0 3.0435-1.3653 3.0435-3.0435v-4.3495c0-.8459-.3471-1.6119-.906-2.164.5589-.5521.906-1.3181.906-2.164v-4.3495c0-.8459-.3471-1.6119-.906-2.164.5589-.5521.906-1.3181.906-2.164v-4.34954zm-48.65053 39.76174c.74355 0 1.34848.605 1.34848 1.3485 0 .7434-.60493 1.3484-1.34848 1.3484h-3.60563c-.74355 0-1.34847-.605-1.34847-1.3484 0-.7435.60492-1.3485 1.34847-1.3485zm0-9.7642c.74355 0 1.34848.605 1.34848 1.3485s-.60493 1.3485-1.34848 1.3485h-3.60563c-.74355 0-1.34847-.6051-1.34847-1.3485 0-.7436.60492-1.3485 1.34847-1.3485zm0-9.7642c.74355 0 1.34848.6051 1.34848 1.3485s-.60493 1.3485-1.34848 1.3485h-3.60563c-.74355 0-1.34847-.6051-1.34847-1.3485s.60492-1.3485 1.34847-1.3485zm0-9.7643c.74355 0 1.34848.6051 1.34848 1.3485 0 .7436-.60493 1.3485-1.34848 1.3485h-3.60563c-.74355 0-1.34847-.6051-1.34847-1.3485 0-.7436.60492-1.3485 1.34847-1.3485zm0-9.76415c.74355 0 1.34848.60504 1.34848 1.34845 0 .7436-.60493 1.3485-1.34848 1.3485h-3.60563c-.74355 0-1.34847-.605-1.34847-1.3485 0-.74353.60492-1.34845 1.34847-1.34845zm46.89153 20.99965c0 .7083-.5762 1.2845-1.2845 1.2845h-.6797v-6.9185h.6797c.7083 0 1.2845.5762 1.2845 1.2845zm0-8.6775c0 .7083-.5762 1.2845-1.2845 1.2845h-.6797v-6.9185h.6797c.7083 0 1.2845.5762 1.2845 1.2845zm0-8.6775c0 .7083-.5762 1.2845-1.2845 1.2845h-.6797v-6.91864h.6797c.7083 0 1.2845.57621 1.2845 1.28449z"/><path d="m23.2526 25.9039 2.0566-1.2798c1.5036-.9358 2.0017-2.8779 1.1338-4.4216l-2.8901-5.1409c-.8651-1.539-2.779-2.1249-4.3574-1.3343l-1.7599.8816c-.0091.0045-.0182.0093-.0271.0141-1.1615.6334-3.9206 2.5059-4.4538 6.2055-.6667 4.6265 2.3155 10.2925 8.8637 16.8408 4.2669 4.2669 10.8376 9.7282 16.8406 8.8637 3.6997-.5331 5.5722-3.2922 6.2056-4.4537.0049-.0091.0096-.0181.0142-.0272l.8816-1.76c.7908-1.5784.2047-3.4923-1.3342-4.3573l-5.141-2.8901c-1.5438-.8677-3.486-.3696-4.4216 1.1338l-1.2824 2.0607c-.2495.4056-.8123.4726-1.1498.1351l-9.3181-9.318c-.3332-.3337-.2766-.8965.1393-1.1524zm13.1046 9.204c.4373-.7028 1.3448-.9355 2.0662-.5298l5.141 2.8901c.7191.4043.9931 1.2985.6235 2.0362l-.4486.8954-7.9087-4.4459zm-16.1555-13.7891 1.8483 3.2878c-1.1299.9252-1.2325 2.641-.1803 3.6934l9.3182 9.3182c1.0541 1.0541 2.7722.9466 3.6938-.18l8.0061 4.5008c-.7801 1.1284-2.1842 2.5223-4.4794 2.853-3.9906.5752-9.2974-2.3179-15.346-8.3666-6.0486-6.0485-8.9417-11.3551-8.3665-15.346.3307-2.2953 1.7246-3.6993 2.853-4.4794l.6372 1.1333c.1613.2871.4599.4486.7674.4486.1459 0 .2939-.0363.4302-.113.4234-.2381.5737-.7742.3356-1.1976l-.6312-1.1228.8954-.4486c.7375-.3697 1.6319-.0956 2.0362.6236l2.8901 5.141c.4056.7213.1729 1.6289-.5298 2.0662l-.846.5264-1.7989-3.2001c-.238-.4235-.7741-.5738-1.1977-.3358-.4235.2381-.5737.7742-.3357 1.1976z"/></g></svg>