<svg fill="none" height="50" viewBox="0 0 50 50" width="50" xmlns="http://www.w3.org/2000/svg"><circle cx="25" cy="25" fill="#ffd561" r="25"/><g stroke="#130f26" stroke-linecap="round" stroke-linejoin="round" stroke-width="1.5"><path d="m16 16 2.08.36.963 11.473c.077.937.86 1.656 1.8 1.653h10.909c.897.002 1.658-.658 1.785-1.546l.949-6.558c.106-.733-.403-1.413-1.135-1.519-.064-.009-14.937-.014-14.937-.014"/><path d="m27.375 23.5449h2.773"/><path clip-rule="evenodd" d="m20.4044 32.9526c.301 0 .544.244.544.544 0 .301-.243.545-.544.545s-.544-.244-.544-.545c0-.3.243-.544.544-.544z" fill="#130f26" fill-rule="evenodd"/><path clip-rule="evenodd" d="m31.6846 32.9526c.301 0 .545.244.545.544 0 .301-.244.545-.545.545s-.544-.244-.544-.545c0-.3.243-.544.544-.544z" fill="#130f26" fill-rule="evenodd"/></g></svg>