<svg fill="none" height="20" viewBox="0 0 21 20" width="21" xmlns="http://www.w3.org/2000/svg"><g stroke="#130f26" stroke-linecap="round" stroke-linejoin="round" stroke-width="1.5"><path d="m1 1 2.08.36.963 11.473c.077.937.86 1.656 1.8 1.653h10.909c.897.002 1.658-.658 1.785-1.546l.949-6.558"/><path d="m8 4.59872 3.5945 3.40128 7.4055-7"/><g clip-rule="evenodd" fill="#130f26" fill-rule="evenodd"><path d="m5.40429 17.9526c.301 0 .544.244.544.544 0 .301-.243.545-.544.545s-.544-.244-.544-.545c0-.3.243-.544.544-.544z"/><path d="m16.6846 17.9526c.301 0 .545.244.545.544 0 .301-.244.545-.545.545s-.544-.244-.544-.545c0-.3.243-.544.544-.544z"/></g></g></svg>