<svg fill="none" height="34" viewBox="0 0 36 34" width="36" xmlns="http://www.w3.org/2000/svg"><g fill="#5f0609"><path d="m16.4996 33.4765c-9.09724 0-16.4996-7.4021-16.4996-16.4993 0-9.09721 7.40236-16.499569 16.4996-16.499569 3.1634 0 6.2411.901399 8.9005 2.608349.5222.33617.6751 1.03213.339 1.55561-.3373.52349-1.0319.67482-1.5554.33892-2.2949-1.47459-4.9527-2.25295-7.6841-2.25295-7.85693 0-14.24967 6.39275-14.24967 14.24964 0 7.8566 6.39274 14.2494 14.24967 14.2494 7.8566 0 14.2493-6.3928 14.2493-14.2494 0-.4696-.0225-.9346-.0659-1.3919-.0598-.6196.3931-1.1687 1.011-1.2285.621-.0572 1.1684.393 1.2285 1.011.0508.5295.0764 1.0664.0764 1.6094 0 9.0972-7.4021 16.4993-16.4993 16.4993z"/><path d="m18.3742 20.727c-.2878 0-.5759-.1096-.7948-.3299l-6.7498-6.7498c-.4395-.4397-.4395-1.1521 0-1.5916.4394-.4394 1.1519-.4394 1.5913 0l5.955 5.955 15.7028-15.70309c.4397-.43944 1.1522-.43944 1.5916 0s.4394 1.15188 0 1.59132l-16.4996 16.49957c-.2205.2189-.5084.3285-.7965.3285z"/></g></svg>