<svg width="29" height="29" viewBox="0 0 29 29" fill="none" xmlns="http://www.w3.org/2000/svg">
<path d="M16.1021 14.5L28.6682 1.93389C29.1106 1.49147 29.1106 0.774177 28.6682 0.331814C28.2258 -0.110548 27.5085 -0.110605 27.0661 0.331814L14.5 12.898L1.93389 0.331814C1.49147 -0.110605 0.774177 -0.110605 0.331814 0.331814C-0.110548 0.774233 -0.110605 1.49153 0.331814 1.93389L12.8979 14.5L0.331814 27.0661C-0.110605 27.5086 -0.110605 28.2259 0.331814 28.6682C0.552996 28.8894 0.842938 29 1.13288 29C1.42282 29 1.71271 28.8894 1.93395 28.6682L14.5 16.1021L27.0661 28.6682C27.2873 28.8894 27.5772 29 27.8671 29C28.1571 29 28.447 28.8894 28.6682 28.6682C29.1106 28.2258 29.1106 27.5085 28.6682 27.0661L16.1021 14.5Z" fill="black"/>
</svg>
