<svg fill="none" height="20" viewBox="0 0 18 20" width="18" xmlns="http://www.w3.org/2000/svg"><g fill="#000"><path d="m15.3578 5.64115h-12.97405c-.14036-.01192-.27944.03446-.38461.12819-.10341.09934-.15131.24313-.12819.38462l1.33328 11.61504c.15636 1.2806 1.24833 2.2402 2.53837 2.2307h6.4614c1.3263.0189 2.4436-.9866 2.564-2.3076l1.1025-11.58942c.0068-.12432-.0398-.24564-.1282-.33334-.1051-.09373-.2442-.14011-.3845-.12819zm-1.6154 11.99965c-.0806.7808-.7541 1.3645-1.5384 1.3333h-6.46135c-.77022.0313-1.43227-.541-1.51281-1.3077l-1.28199-10.99963h11.84585z"/><path d="m17.2303 2.30791h-5.2819v-.82052c.0285-.7925-.5909-1.4579872-1.3834-1.48645202-.026-.00093247-.0521-.00117785-.0781-.00068708h-3.23069c-.79289-.0146741-1.44748.6161651-1.46215 1.4090591-.00049.02601-.00025.05207.00068.07808v.82047h-5.281932c-.283225 0-.512808.22959-.512808.51281s.229583.51281.512808.51281h16.717492c.2832 0 .5128-.22959.5128-.51281s-.2296-.51276-.5128-.51276zm-6.3075-.82052v.82047h-4.10249v-.82047c-.02891-.22473.12986-.43031.35458-.45922.02695-.00348.05418-.00422.08128-.0023h3.23073c.226-.016.4222.1542.4382.38025.0019.02709.0012.05433-.0023.08127z"/></g></svg>