<svg fill="none" height="113" viewBox="0 0 172 113" width="172" xmlns="http://www.w3.org/2000/svg"><g fill="#ffb612"><path d="m108.205 112.77h-33.3624c-.3409 0-.616-.274-.616-.614v-43.9214c0-.3397.2751-.614.616-.614h33.3624c.341 0 .616.2743.616.614v43.9214c0 .34-.275.614-.616.614zm-32.7422-1.228h32.1302v-42.6934h-32.1302z"/><path d="m101.822 60.4368c-2.1561 0-3.9099-1.7479-3.9099-3.8969s1.7538-3.8968 3.9099-3.8968c2.156 0 3.91 1.7478 3.91 3.8968s-1.754 3.8969-3.91 3.8969zm0-6.5698c-1.478 0-2.6777 1.1993-2.6777 2.6688 0 1.4696 1.2037 2.6689 2.6777 2.6689 1.479 0 2.678-1.1993 2.678-2.6689 0-1.4695-1.199-2.6688-2.678-2.6688z"/><path d="m113.355 57.9726c-2.156 0-3.91-1.7479-3.91-3.8969s1.754-3.8969 3.91-3.8969c2.157 0 3.91 1.7479 3.91 3.8969s-1.753 3.8969-3.91 3.8969zm0-6.5699c-1.478 0-2.678 1.1994-2.678 2.6689s1.204 2.6689 2.678 2.6689c1.479 0 2.678-1.1994 2.678-2.6689s-1.199-2.6689-2.678-2.6689z"/><path d="m105.116 57.1499c-.341 0-.616-.2743-.616-.614v-13.1356c0-.2579.164-.4912.411-.5772l11.533-4.1056c.188-.0655.398-.0368.562.0778.165.1146.263.3029.263.5035v14.777c0 .3397-.275.614-.616.614s-.616-.2743-.616-.614v-13.9092l-10.301 3.6676v12.7017c-.004.3397-.279.614-.62.614z"/><path d="m112.496 69.8762c-1.228 0-2.23-.9988-2.23-2.2227s1.002-2.2227 2.23-2.2227 2.23.9988 2.23 2.2227c.004 1.2239-.998 2.2227-2.23 2.2227zm0-3.2174c-.551 0-.998.4462-.998.9947s.447.9947.998.9947c.55 0 .998-.4462.998-.9947.004-.5485-.448-.9947-.998-.9947z"/><path d="m118.146 68.6685c-1.228 0-2.23-.9988-2.23-2.2227s1.002-2.2227 2.23-2.2227 2.23.9988 2.23 2.2227-.998 2.2227-2.23 2.2227zm0-3.2174c-.55 0-.998.4462-.998.9947s.448.9947.998.9947c.551 0 .998-.4462.998-.9947s-.447-.9947-.998-.9947z"/><path d="m114.114 68.2674c-.341 0-.616-.2742-.616-.614v-6.4347c0-.2579.164-.4912.411-.5772l5.651-2.0098c.189-.0696.399-.0409.563.0778.164.1146.263.3029.263.5035v7.2411c0 .3397-.275.614-.616.614s-.616-.2743-.616-.614v-6.3693l-4.42 1.5719v6.0049c-.004.3316-.283.6058-.62.6058z"/><path d="m88.0265 102.926c-2.6121 0-4.7355-2.116-4.7355-4.7198 0-2.6034 2.1234-4.7196 4.7355-4.7196 2.6122 0 4.7356 2.1162 4.7356 4.7196 0 2.6038-2.1275 4.7198-4.7356 4.7198zm0-8.2114c-1.9303 0-3.5033 1.5677-3.5033 3.4916 0 1.9238 1.573 3.4918 3.5033 3.4918 1.9304 0 3.5034-1.568 3.5034-3.4918 0-1.9239-1.573-3.4916-3.5034-3.4916z"/><path d="m88.2316 83.8386c-2.6121 0-4.7355-2.1163-4.7355-4.7197 0-2.6033 2.1234-4.7196 4.7355-4.7196 2.6122 0 4.7355 2.1163 4.7355 4.7196 0 2.6034-2.1274 4.7197-4.7355 4.7197zm0-8.2113c-1.9303 0-3.5034 1.5678-3.5034 3.4916 0 1.9239 1.5731 3.4917 3.5034 3.4917 1.9304 0 3.5034-1.5678 3.5034-3.4917 0-1.9238-1.573-3.4916-3.5034-3.4916z"/><path d="m88.0264 106.827c-4.7684 0-8.6455-3.868-8.6455-8.6208 0-4.7524 3.8812-8.6165 8.6455-8.6165s8.6455 3.8682 8.6455 8.6165c0 4.7528-3.8771 8.6208-8.6455 8.6208zm0-16.0093c-4.0907 0-7.4134 3.3156-7.4134 7.3885 0 4.0768 3.3268 7.3928 7.4134 7.3928s7.4134-3.316 7.4134-7.3928c0-4.0769-3.3268-7.3885-7.4134-7.3885z"/><path d="m101.411 103.536c-.341 0-.616-.274-.616-.614v-29.1449c0-.3398.275-.614.616-.614s.616.2742.616.614v29.1449c0 .34-.275.614-.616.614z"/><path d="m101.411 107.036c.456 0 .826-.369.826-.823 0-.455-.37-.823-.826-.823-.455 0-.825.368-.825.823 0 .454.37.823.825.823z"/><path d="m66.304 65.705c-1.1911 0-2.3698-.1924-2.8093-.6181-3.565-3.4466-5.2941-6.9014-5.442-10.8802 0-.0245 0-.0532.0041-.0777l.115-1.2812c.1972-2.1286 1.3718-4.2203 3.1338-5.5998 1.3143-1.0274 3.5691-2.149 6.8219-1.67 1.9756.2947 3.9675 1.6127 5.327 3.5284 1.3471 1.8912 1.9057 4.0811 1.5361 6.005-.8872 4.6296-2.719 7.8183-5.7624 10.0369-.4846.3561-1.7126.5567-2.9242.5567zm-7.0191-11.5064c.1478 3.6267 1.7578 6.8072 5.0682 10.0082.4928.3848 3.5978.3561 4.1482-.045 2.7764-2.0221 4.4521-4.9734 5.2777-9.2796.308-1.6005-.1767-3.4467-1.3308-5.0676-1.1705-1.6456-2.8544-2.7753-4.5055-3.0209-2.8216-.4175-4.756.5403-5.8814 1.4204-1.5032 1.1748-2.5012 2.9472-2.6696 4.7442z"/><path d="m66.3956 96.8718c-.041 0-.078-.0041-.1191-.0123-.3327-.0655-.5503-.3889-.4846-.7204.1643-.8473-.1725-1.6619-.5422-2.1449-2.5464-3.2993-1.3635-6.2997-.0534-8.5429.9858-1.6823.9488-3.3238-.1026-4.8792-1.8072-2.6689-1.8852-5.4442-.23-8.0312.5093-.7941.8091-1.5882.9241-2.4314.0452-.3357.3532-.5731.6941-.5281.3368.045.575.3561.5298.6918-.1396 1.0233-.5011 1.9771-1.1048 2.9267-1.3923 2.1736-1.3184 4.4249.2136 6.6845 1.3224 1.9525 1.3717 4.0892.1478 6.185-1.7086 2.9186-1.7168 4.998-.037 7.1757.6942.9005.9858 2.0671.7763 3.1273-.0657.2988-.3245.4994-.612.4994z"/><path d="m66.4408 70.4165c-.9076 0-1.7989-.1801-2.3944-.4871-1.9591-1.0152-1.3595-2.628-.9652-3.6963l.0575-.1515c.0986-.2702.1889-.5485.2793-.8228l.1273-.3929c.1068-.3234.4559-.4994.7804-.3889.3244.1064.4969.4544.3901.7778l-.1273.3806c-.0944.2907-.1889.5813-.2957.8678l-.0575.1556c-.4682 1.2607-.5421 1.7069.3779 2.1817 1.1335.5895 3.3842.4257 3.9469-.2824.5504-.6918.5422-1.5596-.0246-2.5829-.0575-.1023-.1068-.2088-.1602-.3111l-.0575-.1187c-.152-.3029-.0287-.6713.2752-.8228.3039-.1514.6736-.0286.8255.2743l.0657.131c.0411.0859.0822.1719.1315.2578.805 1.4573.7762 2.8531-.0863 3.9379-.6202.7695-1.8728 1.0929-3.0886 1.0929z"/><path d="m60.7556 53.9489c-.041 0-.0821-.004-.1273-.0122-.3327-.0696-.5462-.393-.4764-.7246.5504-2.6402 2.6203-4.6991 5.2695-5.2476.3326-.0696.6612.1432.7269.4789.0698.3316-.1437.6549-.4764.7245-2.1686.4462-3.8607 2.1327-4.3125 4.2939-.0616.2866-.3163.4871-.6038.4871z"/><path d="m78.2479 59.1352c-.6777 0-1.3266-.0573-1.7948-.1597-.1725-.0368-.3245-.1514-.4066-.307-.0822-.1555-.0986-.3438-.0329-.5076 1.9673-5.174-.2423-11.49-4.8218-13.7905-.3039-.1514-.4271-.5198-.2752-.8227 1.3225-2.6525 4.4234-5.2354 9.1631-4.5314 1.9755.2948 3.9675 1.6128 5.3269 3.5285 1.3472 1.8911 1.9057 4.0811 1.5361 6.005-.8872 4.6295-2.7189 7.8183-5.7623 10.0369-.5339.3806-1.7743.5485-2.9325.5485zm-.842-1.2567c1.2198.1105 2.7354-.0614 3.0434-.2865 2.7764-2.0221 4.4521-4.9735 5.2777-9.2797.308-1.6005-.1766-3.4466-1.3307-5.0675-1.1706-1.6456-2.8545-2.7753-4.5056-3.0209-3.7703-.5608-6.3291 1.2771-7.5899 3.3483 4.5342 2.6689 6.7644 8.9317 5.1051 14.3063z"/><path d="m78.339 90.3061c-.0411 0-.078-.0041-.1191-.0123-.3327-.0654-.5504-.3888-.4847-.7204.1643-.8473-.1725-1.6619-.5421-2.1449-2.5464-3.2992-1.3636-6.2997-.0534-8.5428.9857-1.6824.9488-3.3238-.1027-4.8793-1.8071-2.6689-1.8851-5.4442-.23-8.0312.5093-.7941.8091-1.5882.9241-2.4314.0452-.3357.3532-.5772.6941-.5281.3368.0451.575.3562.5299.6918-.1397 1.0234-.5011 1.9771-1.1049 2.9268-1.3923 2.1735-1.3183 4.4249.2136 6.6844 1.3225 1.9525 1.3718 4.0893.1479 6.1851-1.7086 2.9185-1.7168 4.998-.037 7.1756.6941.9006.9857 2.0672.7763 3.1273-.0658.2948-.3245.4994-.612.4994z"/><path d="m78.2902 63.8589c-.8912 0-1.9057-.1637-2.6409-.6508-.5462-.3602-.8953-.8719-1.0062-1.4736-.0616-.3357.1602-.655.497-.7164.3367-.0573.6571.1597.7146.4953.0493.2743.2053.4912.4723.6672.8009.5281 2.2713.5158 3.0598.3398.649-.1474 1.0679-.4298 1.2691-.8637.2957-.6263.1479-1.6291-.3943-2.6811-.156-.3029-.0369-.6714.267-.8269s.6736-.0368.8297.2661c.4271.8268 1.0473 2.415.4148 3.7618-.2547.5444-.8297 1.2525-2.1152 1.5391-.3573.0859-.842.1432-1.3677.1432z"/><path d="m73.6286 45.1932c-.1191 0-.2382-.0327-.345-.1064-.2834-.1883-.3573-.5731-.1643-.8514.9857-1.4491 2.53-2.4806 4.2427-2.8367.3326-.0737.6612.1432.7269.4748s-.1437.659-.4764.7245c-1.4005.2907-2.6696 1.138-3.4746 2.325-.115.172-.3081.2702-.5093.2702z"/><path d="m88.231 81.7959c-1.4827 0-2.6861-1.1994-2.6861-2.6771s1.2034-2.677 2.6861-2.677 2.6861 1.1993 2.6861 2.677-1.2075 2.6771-2.6861 2.6771zm0-4.1261c-.8009 0-1.4539.6508-1.4539 1.449s.653 1.4491 1.4539 1.4491 1.4539-.6509 1.4539-1.4491-.653-1.449-1.4539-1.449z"/><path d="m88.0256 108.837c-5.8814 0-10.6662-4.769-10.6662-10.6308 0-5.8616 4.7848-10.6304 10.6662-10.6304s10.6662 4.7688 10.6662 10.6304c0 5.8618-4.7848 10.6308-10.6662 10.6308zm0-20.0332c-5.1996 0-9.4341 4.2162-9.4341 9.4024 0 5.1868 4.2304 9.4028 9.4341 9.4028 5.1996 0 9.4341-4.216 9.4341-9.4028 0-5.1862-4.2345-9.4024-9.4341-9.4024z"/><path d="m153.973 95.9057c-.34 0-.616-.2742-.616-.614 0-.3397.276-.614.612-.614 5.446-.0205 10.966-.0696 16.408-.1433.329-.0122.621.2661.625.6059.004.3397-.267.6181-.608.6222-5.446.0777-10.97.1268-16.421.1432 0 0 .005 0 0 0z"/><path d="m147.753 95.9179c-7.073-.0041-14.129-.0532-20.971-.1555-.341-.0041-.612-.2825-.608-.6222.004-.3398.275-.6222.624-.6058 6.839.0982 13.886.1514 20.955.1555.341 0 .616.2743.616.614 0 .3398-.275.614-.616.614z"/><path d="m43.6396 91.7591c-.3368 0-.612-.2702-.6161-.6099-.0041-.3398.2711-.6181.6119-.6181 2.5465-.0246 5.0929-.0532 7.6393-.0901.3327 0 .6202.2661.6243.6059.0041.3397-.267.6181-.6079.6221-2.5464.0369-5.0969.0655-7.6433.0901-.0041 0-.0041 0-.0082 0z"/><path d="m34.8661 91.8123c-.3409 0-.6161-.2742-.6161-.614 0-.3397.2752-.614.612-.614 1.0391-.0041 2.0741-.0082 3.1132-.0123h.0041c.3368 0 .616.2743.616.6099 0 .3398-.271.614-.6119.6181-1.0391.0041-2.0741.0123-3.1173.0123 0 0 .0041 0 0 0z"/><path d="m28.6456 91.8246c-3.565 0-7.1423-.0164-10.6293-.0409-.3409-.0041-.6161-.2784-.612-.6181.0041-.3398.2793-.6099.6161-.6099h.0041c3.4829.0245 7.0561.0409 10.6211.0409.3409 0 .616.2743.616.614 0 .3398-.2751.614-.616.614z"/><path d="m11.7034 91.7223c-.0041 0-.0041 0-.0082 0-1.3389-.0164-2.68197-.0328-4.02089-.0532-.34089-.0041-.61196-.2825-.60786-.6222.00411-.3357.27929-.6059.61607-.6059h.00822c1.33892.0205 2.67786.0369 4.01676.0533.3409.004.612.2824.6079.6221 0 .3357-.2752.6059-.612.6059z"/><path d="m161.871 70.5228c-.267 0-.517-.176-.591-.4461-.095-.3275.098-.6673.423-.7573 1.503-.4257 2.973-.8269 4.374-1.1953.329-.09.665.1105.752.438.086.3275-.111.6631-.44.7491-1.392.3643-2.854.7655-4.349 1.1912-.054.0122-.111.0204-.169.0204z"/><path d="m140.272 77.1867c-.262 0-.505-.1678-.587-.4298-.103-.3233.078-.6672.403-.7695 1.499-.4748 2.998-.9497 4.497-1.4286 3.824-1.2157 7.779-2.4724 11.689-3.6513.324-.0982.669.086.768.4094.098.3233-.086.6672-.411.7654-3.902 1.1789-7.853 2.4315-11.672 3.6472-1.499.4789-2.999.9538-4.498 1.4286-.065.0205-.127.0286-.189.0286z"/><path d="m125.149 81.6772c-.271 0-.522-.1801-.596-.4544-.09-.3275.107-.6631.436-.7532 2.788-.7491 5.778-1.6128 9.142-2.632.324-.0982.67.086.768.4093.099.3234-.086.6672-.411.7655-3.376 1.0233-6.378 1.8911-9.179 2.6443-.053.0123-.107.0205-.16.0205z"/><path d="m162.398 44.1125c-.201 0-.394-.0983-.514-.2743-.188-.2824-.11-.6631.173-.8514l4.526-2.9922c.283-.1883.665-.1106.854.1719.189.2824.111.6631-.172.8514l-4.526 2.9922c-.107.0696-.226.1024-.341.1024z"/><path d="m139.048 59.5484c-.201 0-.394-.0982-.513-.2742-.189-.2825-.111-.6631.172-.8514l18.109-11.969c.283-.1883.665-.1105.854.1719.189.2825.111.6631-.173.8514l-18.108 11.969c-.107.0696-.226.1023-.341.1023z"/><path d="m131.394 64.612c-.201 0-.394-.0983-.513-.2743-.189-.2824-.111-.6631.172-.8514l2.152-1.4245c.284-.1883.666-.1105.854.1719.189.2825.111.6632-.172.8515l-2.152 1.4244c-.107.0696-.226.1024-.341.1024z"/><path d="m142.798 28.4185c-.14 0-.28-.045-.395-.1432-.263-.217-.295-.6058-.078-.8637 2.165-2.5911 4.128-4.8957 6.009-7.0488.222-.2538.612-.2824.871-.0614.258.2211.283.6099.061.8678-1.873 2.1449-3.832 4.4454-5.992 7.0283-.123.1474-.3.221-.476.221z"/><path d="m123.006 52.3851c-.139 0-.283-.0491-.398-.1474-.259-.221-.292-.6058-.07-.8637 3.861-4.519 7.68-9.2059 11.377-13.7372 1.384-1.6947 2.764-3.3893 4.152-5.0799.214-.262.604-.2988.867-.086.263.2129.304.6018.086.8637-1.388 1.6906-2.768 3.3811-4.148 5.0758-3.701 4.5354-7.529 9.2264-11.398 13.7578-.123.1432-.295.2169-.468.2169z"/><path d="m118.082 25.8643c-.082 0-.164-.0164-.242-.0491-.312-.1351-.456-.4953-.325-.8064 2.621-6.1032 5.18-12.0795 7.644-18.15814.127-.31519.484-.46664.801-.33975.316.1269.468.48302.341.79821-2.469 6.08678-5.028 12.07538-7.652 18.18268-.103.2333-.329.3725-.567.3725z"/><path d="m113.863 35.7006c-.082 0-.16-.0164-.242-.0491-.312-.131-.46-.4912-.325-.8064.477-1.1216.957-2.2473 1.438-3.3689.136-.311.497-.4584.809-.3233s.46.4953.325.8064c-.481 1.1215-.962 2.2431-1.438 3.3647-.099.2374-.329.3766-.567.3766z"/><path d="m98.1813 14.5502c-.0205 0-.0411 0-.0616-.0041-.3368-.0327-.5832-.3356-.5504-.6713.5545-5.39909 1.0145-9.51291 1.4992-13.332011.041-.335655.3491-.5771629.6899-.532136.3366.0409335.5746.347935.5336.687683-.4802 3.810914-.9402 7.912454-1.4946 13.303364-.037.3111-.3039.5485-.6161.5485z"/><path d="m96.2758 32.9376c-.0246 0-.0451 0-.0698-.0041-.3368-.0368-.5791-.3438-.5421-.6795.4641-4.0892.8789-8.1826 1.2978-12.3619.0329-.3357.3327-.5854.6736-.5485.3368.0327.5873.3356.5504.6713-.419 4.1875-.8338 8.2808-1.302 12.3783-.0329.3111-.2998.5444-.6079.5444z"/><path d="m78.2827 31.2061c-.2916 0-.5503-.2047-.6037-.5035-.5175-2.7753-1.0268-5.5956-1.5443-8.4364-1.2034-6.6558-2.4479-13.54083-3.8771-20.21709-.0699-.33156.1396-.65903.4723-.72861.3327-.06959.6612.13917.731.47073 1.4334 6.69673 2.6779 13.58997 3.8854 20.25387.5134 2.8408 1.0227 5.6571 1.5402 8.4283.0616.3315-.1602.6549-.4929.7163-.0369.0123-.0739.0164-.1109.0164z"/><path d="m51.3005 18.2711c-.2218 0-.4395-.1228-.5504-.3357-1.3101-2.546-2.5259-4.7482-3.7128-6.7335-.1725-.2906-.078-.6672.2136-.8432.2916-.172.6694-.0778.846.2128 1.2034 2.0098 2.4314 4.2366 3.7539 6.8032.1561.3029.037.6713-.2669.8268-.0945.0491-.1889.0696-.2834.0696z"/><path d="m60.0113 35.3731c-.2135 0-.423-.1105-.538-.3111-2.0413-3.5899-3.8813-7.3476-5.6638-10.9866l-.0369-.0777c-.1479-.3029-.0205-.6713.2834-.8228.308-.1514.6735-.0246.8255.2824l.037.0778c1.7743 3.6185 3.606 7.364 5.6309 10.917.1684.2947.0657.6713-.2341.835-.0945.0614-.2013.086-.304.086z"/><path d="m46.7612 48.6724c-.1683 0-.3367-.0696-.4599-.2047-3.6308-4.0483-7.4956-7.8633-11.229-11.5514-3.1953-3.1519-6.4974-6.4143-9.5819-9.7545-.23-.2497-.2136-.6385.037-.8677.2505-.2293.6407-.2129.8707.0368 3.0639 3.3197 6.3578 6.5698 9.5409 9.7135 3.7498 3.7004 7.6269 7.5277 11.2823 11.6047.2258.2538.2053.6426-.0493.8678-.115.1064-.2629.1555-.4108.1555z"/><path d="m18.4959 53.4781c-.1027 0-.2012-.0246-.2998-.0778-3.1543-1.7396-5.9841-3.2828-8.64965-4.7073-.29982-.1597-.41071-.5322-.25053-.831s.53393-.4093.83378-.2497c2.6696 1.4286 5.5076 2.9677 8.666 4.7156.2957.1637.4066.5362.2423.835-.115.2006-.3244.3152-.5421.3152z"/><path d="m46.4069 68.9633c-.0986 0-.2013-.0246-.2916-.0737-5.7706-3.111-11.5821-6.3652-17.2007-9.513-1.7825-.9988-3.5609-1.9934-5.3434-2.9881-.2957-.1638-.4025-.5404-.2382-.8351s.5421-.4011.8378-.2374c1.7825.9947 3.565 1.9935 5.3475 2.9923 5.6145 3.1436 11.422 6.3979 17.1843 9.5047.2998.1597.4107.5322.2505.831-.115.2005-.3285.3193-.5462.3193z"/><path d="m30.8377 80.2568c-.0452 0-.0945-.0041-.1396-.0163-10.2556-2.366-20.5768-4.4536-30.199799-6.3529-.332678-.0655-.5503565-.3889-.4846423-.7205.0657142-.3315.3901783-.5444.7228553-.483 9.635386 1.9034 19.968886 3.9951 30.240786 6.3652.3327.0778.5381.4052.46.7368-.0657.2783-.3203.4707-.5996.4707z"/><path d="m50.9504 84.7512c-.0534 0-.1109-.0082-.1643-.0246-2.2343-.6221-4.5753-1.0683-6.8384-1.4981-1.8194-.348-3.7046-.7041-5.5364-1.1543-.3286-.0819-.5339-.4135-.4518-.745.0822-.3275.4148-.5322.7475-.4503 1.803.4421 3.6677.7982 5.4707 1.142 2.2877.4339 4.6534.8842 6.937 1.5228.3285.09.5175.4298.4271.7572-.0739.2743-.3244.4503-.5914.4503z"/></g></svg>