<svg fill="none" height="38" viewBox="0 0 34 38" width="34" xmlns="http://www.w3.org/2000/svg"><path d="m5 13.7513v1.25c0 .1657.06585.3247.18306.4419s.27618.1831.44194.1831.32473-.0659.44194-.1831.18306-.2762.18306-.4419v-1.25h1.25v1.25c0 .4973-.19754.9742-.54917 1.3258-.35164.3516-.82855.5492-1.32583.5492s-.97419-.1976-1.32583-.5492c-.35163-.3516-.54917-.8285-.54917-1.3258v-1.25zm28.75-10.83596c-.0003.6873-.2432 1.35245-.6858 1.87828l-5.9236 7.03408c.9491 1.17 1.6216 2.5393 1.9672 4.0056.3457 1.4664.3557 2.9919.0292 4.4626.3415.2187.6029.5422.7451.9221.1422.3798.1574.7955.0434 1.1847s-.3511.731-.6757.9741c-.3246.2432-.7192.3745-1.1248.3745h-.0795l-1.8012 13.2094c-.0204.1498-.0944.2871-.2083.3864-.1138.0994-.2599.1542-.411.1542h-21.25c-.15114 0-.29715-.0548-.41102-.1542-.11386-.0993-.18785-.2366-.20828-.3864l-1.80125-13.2094h-.07945c-.49728 0-.974195-.1976-1.325825-.5492-.351631-.3516-.549175-.8285-.549175-1.3258s.197544-.9742.549175-1.3259c.35163-.3516.828545-.5491 1.325825-.5491h7.67719c-.11765-.6181-.17697-1.2459-.17719-1.875-.00377-1.4921.32933-2.9657.9745-4.3111 1.052-2.1828 2.8542-3.91419 5.0775-4.87783-1.4264-.93664-3.0956-1.43582-4.802-1.4361-1.33326-.00392-2.64941.30012-3.84586.88844-.00594.00297-.01195.00578-.01805.00852-1.82734.9018-3.28337 2.41207-4.11771 4.27127-.83434 1.8591-.99485 3.9508-.45393 5.9154l-1.205075.3327c-.607944-2.2004-.445067-4.5425.461595-6.6375.90666-2.0951 2.50257-3.81701 4.52278-4.88.55001-2.04335 1.7341-3.85953 3.38187-5.18719 1.64778-1.327649 3.67428-2.098319 5.78788-2.2011032 2.1135-.1027841 4.2053.4676172 5.9741 1.6291232 1.7688 1.1615 3.1235 2.85422 3.8692 4.83456l3.1905-5.10469c.261-.420069.6251-.766419 1.0577-1.006126.4325-.239706.9192-.36480309 1.4137-.36340078h.1922c.7726.00084784 1.5133.30813678 2.0597.85444578.5463.546311.8536 1.287021.8544 2.059621zm-23.125 3.33593c2.2707.00004 4.4737.77303 6.2466 2.1918 2.1803-.5613 4.4859-.37292 6.5461.53484l.6935-1.10937c-.4751-1.89078-1.5681-3.56871-3.1055-4.76753s-3.4311-1.84983-5.3807-1.84974c-1.9872-.00776-3.9165.6686-5.4638 1.91547-1.17844.94609-2.09379 2.1793-2.65815 3.58117 1.00747-.3311 2.06146-.49877 3.12195-.49664zm-8.75 16.25003h15v-1.25h-15c-.16576 0-.32473.0658-.44194.183s-.18306.2762-.18306.442c0 .1657.06585.3247.18306.4419s.27618.1831.44194.1831zm24.909 1.25h-1.159c0 .4973-.1975.9742-.5492 1.3258-.3516.3516-.8285.5492-1.3258.5492s-.9742-.1976-1.3258-.5492c-.3517-.3516-.5492-.8285-.5492-1.3258v-1.875c0-.1658-.0658-.3248-.1831-.442-.1172-.1172-.2761-.183-.4419-.183s-.3247.0658-.4419.183c-.1173.1172-.1831.2762-.1831.442v.625c.0002.3796-.1149.7504-.33 1.0632-.2152.3128-.5203.5529-.875.6884-.3546.1355-.7421.1601-1.111.0705-.369-.0895-.702-.2891-.955-.5721h-14.13798l1.70453 12.5h20.15895zm1.966-1.875c.0002-.0821-.0159-.1635-.0473-.2394-.0313-.0759-.0773-.1448-.1354-.2029s-.127-.1041-.2029-.1355c-.0759-.0313-.1573-.0474-.2394-.0472h-2.5v1.25h2.5c.0821.0002.1635-.0159.2394-.0472s.1449-.0774.203-.1354c.0581-.0581.1041-.1271.1354-.203.0314-.0759.0474-.1573.0472-.2394zm-.625-3.75c-.0014-1.6097-.4459-3.1879-1.2849-4.5616s-2.0401-2.4899-3.4715-3.2261l-.0015-.0008c-1.2342-.6362-2.6035-.96601-3.9921-.96153-.8375-.00066-1.6707.11889-2.4741.355-.1538.04438-.3037.09297-.4617.14969-2.1765.78304-3.9584 2.38954-4.9621 4.47364-.5643 1.177-.8556 2.4663-.8521 3.7717 0 .6304.068 1.2591.2027 1.875h6.6723c.1658 0 .3247.0658.4419.183.1173.1172.1831.2762.1831.442v1.875c.0001.0856.0178.1704.0519.2489.0342.0785.0842.1492.1468.2077s.1365.1034.2172.1322c.0807.0287.1664.0405.2519.0348.1605-.0145.3097-.0891.4176-.2088.108-.1197.1667-.2758.1646-.4369v-.6029c.0005-.4916.1938-.9634.5384-1.314s.8129-.552 1.3044-.561c1.0488-.0175 1.9072.8686 1.9072 1.9176v1.8324c.0001.0856.0178.1704.0519.2489.0342.0785.0842.1492.1468.2077s.1365.1034.2172.1322c.0807.0287.1664.0405.2519.0348.1605-.0145.3097-.0891.4176-.2088.108-.1197.1667-.2758.1646-.4369v-3.1029c0-.1658.0658-.3248.1831-.442.1172-.1172.2761-.183.4419-.183h2.9225c.1346-.6159.2025-1.2446.2025-1.875zm4.375-15.21096c-.0005-.44119-.176-.86416-.4879-1.17613-.312-.31196-.735-.48744-1.1762-.48794h-.1922c-.2825-.00074-.5605.07077-.8075.20772-.2471.13696-.4551.33482-.6042.57478l-4.7027 7.52407c.6345.38015 1.2242.83066 1.7578 1.34286l5.8213-6.91294c.2526-.30034.3912-.68004.3916-1.07242zm-26.51672 22.62646-1.23851.1689.18203 1.3353 1.23859-.1689zm-.86719 2.8918.82188 6.0271 1.23851-.1689-.82187-6.0271zm18.63391-14.0573c0 .1657-.0658.3247-.1831.4419-.1172.1172-.2761.1831-.4419.1831s-.3247-.0659-.4419-.1831c-.1173-.1172-.1831-.2762-.1831-.4419v-1.25h-1.25v1.25c0 .4973.1975.9742.5492 1.3258.3516.3516.8285.5492 1.3258.5492s.9742-.1976 1.3258-.5492c.3517-.3516.5492-.8285.5492-1.3258v-1.25h-1.25zm-9.375-10.62503h1.25v-1.25h-1.25zm5 1.25h-1.25v1.25h1.25zm-9.375 5.00003h-1.25v1.25h1.25zm4.375 5.625h1.25v-1.25h-1.25zm3.125-2.5h1.25v-1.25h-1.25zm1.875 15.625c0 .1657-.0658.3247-.1831.4419-.1172.1172-.2761.1831-.4419.1831s-.3247-.0659-.4419-.1831c-.1173-.1172-.1831-.2762-.1831-.4419v-1.25h-1.25v1.25c0 .4973.1975.9742.5492 1.3258.3516.3516.8285.5492 1.3258.5492s.9742-.1976 1.3258-.5492c.3517-.3516.5492-.8285.5492-1.3258v-1.25h-1.25z" fill="#000"/></svg>