<svg fill="none" height="40" viewBox="0 0 40 40" width="40" xmlns="http://www.w3.org/2000/svg"><g fill="#000"><path d="m38.0851 21.6236h-1.5035v-13.90532c0-2.22902-1.8135-4.04256-4.0425-4.04256h-.813c-.5036-1.42817-2.5562-2.38672-2.8191-2.50442-.166-.0743-.3558-.0743-.5217 0-.2629.1177-2.3155 1.07625-2.8192 2.50442h-1.3448c-.5504-2.03651-3.5841-3.451486-3.9605-3.6199966-.1659-.0742979-.3558-.0742979-.5217 0-.3764.1685106-3.41 1.5834866-3.9605 3.6199966h-1.3448c-.5037-1.42817-2.5563-2.38672-2.8192-2.50442-.1659-.0743-.3557-.0743-.5217 0-.2629.1177-2.31545 1.07625-2.81911 2.50442h-.81294c-2.22902 0-4.04255 1.81354-4.04255 4.04256v13.90532h-1.50341c-1.055911 0-1.91489.8591-1.91489 1.9149 0 1.0559.858979 1.9149 1.91489 1.9149h11.57861c.2965 1.455 1.586 2.5532 3.1273 2.5532h1.1253v3.1182c-1.4249.7384-2.3869 2.1182-2.5927 3.6999h-2.194c-1.1871 0-2.4946.8497-2.97676 1.9345l-.8423 1.8953h-1.28732c-.35251 0-.6383.2857-.6383.6383s.28579.6383.6383.6383h1.69855 20.89133 1.7041c.3525 0 .6383-.2857.6383-.6383s-.2858-.6383-.6383-.6383h-1.2873l-.8423-1.8953c-.4822-1.0848-1.7897-1.9345-2.9768-1.9345h-2.194c-.2058-1.5817-1.1678-2.9615-2.5927-3.7v-3.1181h1.1253c1.5413 0 2.8308-1.0982 3.1273-2.5532h11.5786c1.0559 0 1.9149-.859 1.9149-1.9149 0-1.0558-.859-1.9149-1.9149-1.9149zm-9.439-19.16107c.5772.29702 1.2503.75711 1.6251 1.21319h-3.25c.3747-.45617 1.0479-.91634 1.6249-1.21319zm-8.6457-1.11719c.8291.41489 2.3511 1.34426 2.8591 2.33038h-5.7181c.5091-.98408 2.0307-1.91472 2.859-2.33038zm-8.6466 1.11719c.5772.29702 1.2503.75711 1.6251 1.21319h-3.25005c.37475-.45617 1.04805-.91634 1.62495-1.21319zm-3.89286 2.48979h25.07816c1.5251 0 2.7659 1.24077 2.7659 2.76596v1.95744c-1.1543.15481-1.8275.71838-2.4302 1.22568-.6428.541-1.1506.9685-2.2465.9685-1.0958 0-1.6035-.4274-2.2464-.9685-.7063-.5944-1.5069-1.26823-3.0685-1.26823-1.5615 0-2.3619.67383-3.0682 1.26833-.6427.5409-1.1504.9684-2.2461.9684s-1.6034-.4274-2.2462-.9685c-.7062-.5944-1.5067-1.26823-3.0682-1.26823s-2.3619.67383-3.0681 1.26823c-.3775.3179-.7341.6182-1.1959.7934-.2479.094-.4118.3316-.4118.5968v3.5136c0 .352-.28626.6383-.63826.6383-.35192 0-.6383-.2863-.6383-.6383 0-1.1635 0-3.3566.00026-3.5033.00442-.265-.15711-.5103-.41175-.607-.46187-.1753-.81855-.4756-1.19608-.7934-.60264-.5074-1.27566-1.07088-2.42979-1.22578v-1.95744c0-1.52519 1.24085-2.76596 2.76596-2.76596zm-2.76596 6.01598c.68357.134 1.10493.4866 1.60766.9097.32944.2774.69327.5836 1.15336.8246l-.00017 3.1025c0 1.0558.85898 1.9149 1.91489 1.9149 1.05588 0 1.91488-.8591 1.91488-1.9149v-3.1025c.46-.241.8238-.5473 1.1533-.8246.6427-.5409 1.1504-.9683 2.246-.9683 1.0957 0 1.6034.4273 2.2461.9684.7063.5945 1.5068 1.2683 3.0682 1.2683 1.5615 0 2.3619-.6738 3.0682-1.2684.6427-.5409 1.1504-.9683 2.246-.9683 1.096 0 1.6037.4273 2.2465.9684.7063.5945 1.5069 1.2683 3.0685 1.2683s2.3622-.6738 3.0685-1.2683c.5029-.4232.9244-.7759 1.6082-.9099v10.6553h-30.61012zm16.67782 21.1536c1.1594.4771 1.9686 1.5005 2.1823 2.7028h-3.5498c-.3525 0-.6383.2857-.6383.6383s.2858.6383.6383.6383h7.0354c.6858 0 1.5316.5497 1.8102 1.1763l.6119 1.3768h-18.9255l.6119-1.3768c.2785-.6266 1.1244-1.1763 1.8102-1.1763h4.4927c.3525 0 .6383-.2857.6383-.6383s-.2858-.6383-.6383-.6383h-1.0072c.2137-1.2022 1.023-2.2257 2.1824-2.7028.2393-.0983.3954-.3315.3954-.5903v-3.5251h1.9547v3.5251c-.0001.2588.156.492.3954.5903zm2.0064-5.3919h-6.7584c-.8321 0-1.5417-.5337-1.8051-1.2766h10.3686c-.2635.7429-.9729 1.2766-1.8051 1.2766zm14.7059-2.5532h-36.17021c-.352 0-.63829-.2863-.63829-.6383s.28629-.6383.63829-.6383h36.17021c.352 0 .6383.2863.6383.6383s-.2863.6383-.6383.6383z"/><path d="m28.7818 19.5959c.3525 0 .6383-.2858.6383-.6383s-.2858-.6383-.6383-.6383c-.3526 0-.6383.2858-.6383.6383s.2857.6383.6383.6383z"/><path d="m31.335 17.0427c.3525 0 .6382-.2858.6382-.6383s-.2857-.6383-.6382-.6383c-.3526 0-.6383.2858-.6383.6383s.2857.6383.6383.6383z"/></g></svg>