<svg fill="none" height="40" viewBox="0 0 28 40" width="28" xmlns="http://www.w3.org/2000/svg"><g fill="#000"><path d="m27.3981 37.2902-2.263-4.8775c-.263-.567-.7892-.9632-1.3921-1.0728-.0802-.0271-.1649-.0369-.2482-.0283-.0299-.0014-.0596-.0033-.0896-.0033h-4.1935c1.2425-1.7456 2.5565-3.7452 3.7483-5.8672 2.6974-4.8031 4.0652-8.9803 4.0652-12.416 0-7.18205-5.8431-13.0251-13.0252-13.0251-3.1289 0-6.15366 1.12586-8.5171 3.17031-.24476.21164-.27148.58164-.05992.82641.2118.24484.5818.27156.82649.05984 2.15062-1.86023 4.90323-2.88468 7.75053-2.88468 6.5359 0 11.8533 5.31742 11.8533 11.85332 0 7.5752-7.3095 17.4696-10.452 21.372-.3434.4265-.8542.6711-1.4012.6711s-1.0578-.2446-1.4013-.6711c-3.14262-3.9024-10.45199-13.7968-10.45199-21.372 0-2.5368.78961-4.9559 2.28351-6.99582.19118-.2611.13461-.62774-.12648-.81891-.26109-.19133-.62773-.13461-.81891.12648-1.64211 2.24227-2.509996 4.90075-2.509996 7.68825 0 3.4357 1.367736 7.6129 4.065156 12.416 1.1918 2.122 2.50578 4.1215 3.74836 5.8672h-4.19344c-.73961 0-1.41867.4335-1.73008 1.1044l-2.263043 4.8775c-.27539.5937-.229531 1.2774.122579 1.8289.352104.5515.953044.8808 1.607424.8808h19.35871c.3236 0 .586-.2623.586-.5859 0-.3237-.2624-.586-.586-.586h-4.241l6.274-6.274c.1506.0727.2758.195.3485.3518l2.2631 4.8775c.1078.2323.0905.4893-.0472.7051-.1378.2158-.3638.3396-.6199.3396h-1.2898c-.3237 0-.5859.2623-.5859.586 0 .3236.2622.5859.5859.5859h1.2898c.6544 0 1.2553-.3293 1.6075-.8809.3521-.5515.398-1.2353.1225-1.8289zm-23.47012-4.3843c.12-.2586.3818-.4257.66695-.4257h5.04391c.72176.9756 1.40106 1.8478 1.99586 2.588h-8.70992zm11.86422 5.9222h-13.46031c-.25602 0-.48196-.1237-.61977-.3396-.13781-.2158-.155-.4729-.04719-.7051l.7161-1.5433h15.99917zm3.7598-3.7599h-3.1867c.5949-.7402 1.2741-1.6124 1.9959-2.588h3.779z"/><path d="m6.28392 15.057v1.0642c0 .9145.74406 1.6586 1.65867 1.6586h.05516l2.12755 8.0482c.4643 1.7565 2.0577 2.9835 3.8746 2.9835 1.817 0 3.4103-1.2269 3.8747-2.9835l2.1275-8.0482h.0552c.9146 0 1.6587-.7441 1.6587-1.6586v-1.0642c0-.6523-.3796-1.2163-.9286-1.487.2651-.7577.3996-1.55.3996-2.364 0-3.96302-3.2241-7.18708-7.1871-7.18708-3.9631 0-7.18715 3.22406-7.18715 7.18708 0 .814.13461 1.6063.39969 2.364-.54891.2708-.92852.8347-.92852 1.487zm10.45778 10.4715c-.3286 1.243-1.456 2.1112-2.7417 2.1112s-2.4131-.8681-2.7416-2.1112l-2.04838-7.7486h9.58008zm3.8025-10.4715v1.0642c0 .2684-.2184.4867-.4867.4867h-9.3181c.8512-.0733 1.5214-.7894 1.5214-1.6593v-.2108c0-.0924.0752-.1676.1675-.1676h7.5566c.0009 0 .0018.0002.0028.0002.0007 0 .0014-.0002.0022-.0002h.0676c.2683.0001.4867.2185.4867.4868zm-6.5442-9.8662c3.3168 0 6.0153 2.69843 6.0153 6.0152 0 .7585-.1399 1.4941-.4144 2.1925h-7.1728c-.7385 0-1.3393.6008-1.3393 1.3394v.2108c0 .2722-.2214.4936-.4936.4936s-.4936-.2214-.4936-.4936v-.2108c0-.7385-.6008-1.3394-1.3394-1.3394h-.36312c-.27453-.6983-.41438-1.434-.41438-2.1925.00008-3.31677 2.6985-6.0152 6.0153-6.0152zm-6.05741 9.3795h.81961c.09235 0 .16751.0752.16751.1676v.2108c0 .8698.67015 1.586 1.52139 1.6593h-2.50843c-.26844 0-.48679-.2184-.48679-.4867v-1.0643h-.00008c0-.2684.21843-.4867.48679-.4867z"/></g></svg>