<svg fill="none" height="20" viewBox="0 0 184 20" width="184" xmlns="http://www.w3.org/2000/svg"><g clip-rule="evenodd" fill="#fff" fill-rule="evenodd"><path d="m45.1847 2.97572-6.6909 13.74888h1.1074l1.81-3.8231h8.473l1.8239 3.8186h1.1726l-6.691-13.74881zm-3.3082 8.99888 3.8014-7.8901 3.7735 7.8901zm30.7093-5.03389c.0052-.47493-.0879-.94618-.2739-1.3868-.1861-.44062-.4614-.84198-.8102-1.18113-.8608-.81606-2.2706-1.33053-4.0341-1.33053h-6.0116v13.61575h1.0655v-5.6414h4.6902l4.5645 5.6414h1.354l-4.732-5.8188c2.4149-.3105 4.1876-1.61441 4.1876-3.88962zm-10.0736 3.15339v-6.10274h4.8949c2.601 0 4.1179 1.1487 4.1179 2.97596 0 2.00467-1.7821 3.15338-4.1877 3.15338zm30.7932-7.05628h-1.4518l-9.1337 8.93678v-8.93678h-1.0655v13.62018h1.0655v-3.4638l3.5642-3.4372 5.8953 6.8877h1.3958l-6.5141-7.60618zm27.5636.95354h4.998v12.68444h1.065v-12.68444h4.993v-.95354h-11.056zm19.622 12.68444h1.065v-13.63798h-1.065zm20.529-1.7741-9.893-11.86388h-1.005v13.62018h1.024v-12.10338l10.097 12.10338h.8v-13.62018h-1.023zm16.35-5.3221v.887h4.653v3.8009c-1.253.9647-2.81 1.4976-4.42 1.5124-3.723 0-5.947-2.5502-5.947-5.97411 0-3.23319 2.359-5.95192 5.728-5.95192 1.648-.05424 3.251.51677 4.457 1.58777l.675-.73622c-1.393-1.18049-3.209-1.80464-5.072-1.743-4.141 0-6.858 3.27311-6.858 6.84337 0 3.76101 2.596 6.84341 6.979 6.84341 2.01-.0147 3.946-.7203 5.454-1.987v-5.09147zm-75.266-5.56606h10.237v-.98016h-10.237zm7.105 5.37978h-7.105v.97128h7.105zm-7.105 7.26468h10.237v-.9713h-10.237z"/><path d="m23.7298 0-4.7367 7.73483-4.7134-7.73483h-5.71378v11.4914c1.76908 1.4905 3.68228 2.8181 5.71378 3.9649v-5.69906l4.4575 7.09616h.5119l4.4807-7.09616v9.24276h5.6859v-19z"/><path d="m5.71381 8.75934v-8.75934h-5.71381c1.36957 3.20757 3.30175 6.16962 5.71381 8.75934z"/><path d="m0 11.0256v7.9832h5.71381v-4.2266c-2.00591-1.1061-3.91651-2.3622-5.71381-3.7566z"/><path d="m8.56592 16.2236v2.7764h5.71378v-.5987c-1.9554-.5984-3.8646-1.3261-5.71378-2.1777z"/></g></svg>