<svg fill="none" height="15" viewBox="0 0 16 15" width="16" xmlns="http://www.w3.org/2000/svg"><g fill="#5f0609"><path d="m14.9853 4.41004c-.0352-.79701-.164-1.34494-.3487-1.81974-.1904-.50398-.4835-.95519-.8674-1.33029-.3751-.380932-.8293-.676934-1.3274-.864425-.4775-.184629-1.0226-.3135148-1.8196-.3486551-.80298-.03811623-1.05789-.0469299-3.09442-.0469299-2.03652 0-2.29143.00881367-3.09141.0439539-.79701.0351402-1.34494.1641401-1.81962.3486551-.5041.190467-.95531.483493-1.3304.867401-.380938.3751-.676824.82929-.864429 1.32743-.184629.47766-.313514 1.02262-.3486545 1.81963-.0381162.80296-.0469298 1.05786-.0469298 3.0944 0 2.03653.0088136 2.29144.0439538 3.09143.0351405.797.1641395 1.3449.3487685 1.8197.190467.504.486353.9552.867291 1.3303.37509.381.82928.677 1.32742.8644.47766.1847 1.02262.3136 1.81974.3487.79986.0353 1.05489.044 3.09141.044 2.03653 0 2.29144-.0087 3.09138-.044.797-.0351 1.345-.164 1.8197-.3487 1.008-.3897 1.805-1.1867 2.1948-2.1947.1845-.4776.3135-1.0227.3486-1.8197.0352-.79999.044-1.0549.044-3.09143 0-2.03654-.003-2.29144-.0381-3.09143zm-1.3508 6.12426c-.0323.7326-.1553 1.1281-.2579 1.3919-.252.6534-.7707 1.1721-1.4241 1.4241-.2638.1026-.6622.2256-1.3919.2578-.79117.0352-1.02845.0439-3.02984.0439s-2.24164-.0087-3.02995-.0439c-.73256-.0322-1.12815-.1552-1.39187-.2578-.32519-.1202-.62119-.3106-.86145-.5597-.24907-.2432-.43954-.5363-.55972-.8615-.10256-.2637-.22561-.6622-.25777-1.3918-.03526-.79121-.04396-1.02861-.04396-3.03s.0087-2.24165.04396-3.02984c.03216-.73256.15521-1.12815.25777-1.39187.12018-.32531.31065-.6212.5627-.86157.24312-.24907.53614-.43954.86145-.55961.26372-.10256.66228-.22561 1.39187-.25789.79116-.03514 1.02856-.04395 3.02983-.04395 2.00436 0 2.24164.00881 3.02998.04395.7325.03228 1.1281.15533 1.3918.25789.3252.12007.6212.31054.8615.55961.2491.24324.4395.53626.5597.86157.1026.26372.2256.66217.2579 1.39187.0351.79117.044 1.02845.044 3.02984s-.0089 2.23581-.044 3.027z"/><path d="m7.52782 3.64795c-2.1273 0-3.85329 1.72588-3.85329 3.85329s1.72599 3.85326 3.85329 3.85326c2.12742 0 3.85328-1.72585 3.85328-3.85326s-1.72586-3.85329-3.85328-3.85329zm0 6.35285c-1.38008 0-2.49953-1.11936-2.49953-2.49956s1.11945-2.49953 2.49953-2.49953c1.3802 0 2.49958 1.11933 2.49958 2.49953s-1.11938 2.49956-2.49958 2.49956z"/><path d="m12.4331 3.49576c0 .49678-.4028.89957-.8997.89957-.4967 0-.8995-.40279-.8995-.89957 0-.49688.4028-.89957.8995-.89957.4969 0 .8997.40269.8997.89957z"/></g></svg>