<svg fill="none" height="172" viewBox="0 0 150 172" width="150" xmlns="http://www.w3.org/2000/svg"><g fill="#ffb612"><path d="m57.0694 142.534c-.6687 0-1.2892-.433-1.4904-1.106-.6914-2.289-.578-4.53-.4704-6.698.0312-.625.0624-1.216.0737-1.811.0453-2.439-.3259-3.471-2.4991-4.402-4.032-1.729-7.6305-4.341-9.9851-6.157-17.3804-13.387-25.4926-35.9264-20.6672-57.4221 3.0487-13.5788 11.1043-25.5532 22.6818-33.7163 11.9713-8.4404 26.5041-11.7905 40.9236-9.4392.5412.0877 1.088.1641 1.6689.2405 3.2273.4414 6.8853.9394 9.5969 3.9952.5724.6423.5129 1.627-.1332 2.1957-.6432.5716-1.6292.5122-2.1987-.133-1.9466-2.1928-4.7347-2.572-7.6872-2.9766-.5752-.0792-1.1674-.1584-1.7482-.2546-27.5412-4.4905-53.9236 13.4118-60.0608 40.7617-4.5619 20.33 3.1026 41.6337 19.5253 54.2867 3.5815 2.759 6.4518 4.536 9.3108 5.761 3.7231 1.596 4.4457 4.08 4.3862 7.323-.0114.642-.0454 1.284-.0765 1.91-.0992 1.989-.1956 3.867.34 5.639.2493.823-.2182 1.692-1.0427 1.938-.1474.045-.2976.065-.4477.065z"/><path d="m120.238 83.7145c-.295 0-.601-.017-.924-.0481-.419-.0425-.884-.0311-1.374-.017-.255.0057-.51.0142-.765.0142-3.199 0-4.956 0-6.174-1.1347-1.267-1.1799-1.338-3.0304-1.457-6.0975-.045-1.1799-.544-1.8336-1.833-2.4136-1.731-.7753-2.261-.348-2.728.2462-.748.9478-1.635 1.7543-2.483 2.5012-1.388 1.2252-3.7822 1.3837-5.0233.3339-2.5019-2.1164-4.899-4.2272-6.7209-6.7851-1.3176-1.8477-.5072-4.2471 2.1166-6.2589 1.7482-1.3411 2.0004-2.1702 1.1702-3.8566-.7254-1.4713-1.6123-1.9099-3.5192-1.7345-2.0316.1868-3.4908-.2093-4.4627-1.2081-.9633-.9875-1.3147-2.4221-1.0767-4.3886.068-.5716.0482-1.1969.0283-1.859-.0113-.3367-.0198-.6734-.0198-1.0101 0-2.8804 0-4.4621 1.0371-5.5826 1.0823-1.1686 2.7286-1.2167 5.4544-1.2959 2.0004-.0594 2.4679-.5291 2.7541-1.5647.5242-1.8873.3995-2.5862-.595-3.4068-.1757-.1443-.3712-.2942-.5752-.4527-.7736-.5942-1.6491-1.2704-2.247-2.1249-.9095-1.2988-.9152-2.7446-.0198-3.9698.374-.5121.7339-1.0639 1.1107-1.6496 1.5528-2.3938 3.3095-5.1101 6.9222-5.942 2.703-.6224 4.174 1.3865 4.961 2.4645l.057.0764c1.003 1.3695 2.119 1.6355 3.975.9479 1.394-.515 1.794-1.4119 1.712-3.8283-.065-1.8618-.034-3.4944 1.006-4.5838 1.04-1.0922 2.604-1.1969 4.698-1.228 1.045-.017 2.28-.0283 3.504.0028 2.27.0538 3.962.1783 5.036 1.3186 1.071 1.1346 1.102 2.8069 1.031 4.8752-.079 2.3061.572 3.0078 1.728 3.4435 1.698.6423 2.808.3565 4.098-1.0497 1.348-1.4714 2.592-2.688 4.162-2.6909h.006c1.558 0 2.748 1.1573 4.145 2.6711.402.4357.932.8545 1.493 1.2959 1.527 1.2025 3.429 2.7021 3.477 5.4241.042 2.2947-1.544 3.5991-2.701 4.5527-.626.5178-1.218 1.0045-1.436 1.5025-.346.7866-1.264 1.1459-2.051.8007-.788-.3452-1.148-1.262-.802-2.0486.515-1.1799 1.47-1.9636 2.309-2.6569 1.099-.9054 1.581-1.3779 1.567-2.0966-.023-1.1884-.884-1.9297-2.292-3.0389-.632-.498-1.284-1.013-1.856-1.6298-1.219-1.3185-1.689-1.6354-1.868-1.6694-.124.0283-.572.283-1.856 1.6807-2.15 2.3457-4.601 2.954-7.497 1.859-3.913-1.477-3.783-5.2317-3.74-6.4626.071-2.0457-.085-2.5267-.181-2.6314-.176-.1867-1.134-.3028-2.842-.3424-1.173-.0283-2.369-.0169-3.386 0-1.454.0227-2.293.1104-2.494.2688-.073.1047-.204.5631-.141 2.3231.059 1.7514.187 5.3986-3.743 6.853-3.177 1.1771-5.727.4952-7.574-2.0287l-.057-.0764c-.87-1.1884-1.162-1.4006-1.7453-1.2677-2.3801.549-3.6552 2.5155-5.0039 4.598-.3854.597-.7849 1.2138-1.2127 1.7967-.0624.0821-.0709.1245-.0709.1245.051.3792 1.2241 1.2846 1.7256 1.6694.2323.1783.4533.3509.6545.515 2.8165 2.3145 2.0061 5.2345 1.6179 6.638-1.0285 3.7095-4.3975 3.8085-5.6669 3.8453-1.3006.0367-2.9128.0848-3.2585.2999-.2068.3508-.2068 1.9297-.2068 3.4605 0 .3084.0085.614.0198.9196.0227.7498.0482 1.5222-.051 2.3286-.1105.9168-.0311 1.5902.2182 1.8449.1218.1273.5582.4046 1.9437.2773 2.0118-.1868 4.8878-.0283 6.602 3.4604 1.9551 3.9755-.2437 6.2957-2.0684 7.6963-1.1022.846-1.6633 1.726-1.4762 1.9863 1.598 2.2409 3.8081 4.1933 6.1287 6.1598.2012.0538.7222.0226 1.0142-.2349.771-.679 1.51-1.3496 2.097-2.0938 1.567-1.9863 3.737-2.3768 6.452-1.1601 2.38 1.0639 3.581 2.7446 3.675 5.1327.062 1.6213.141 3.6388.467 3.9415.32.3 2.125.3 4.038.3.238 0 .467-.0057.694-.0114.567-.0141 1.151-.0311 1.771.0312.881.0905 1.516-.0029 1.788-.2604.292-.2772.428-.9705.382-1.9551-.011-.2349-.034-.4726-.056-.7131-.128-1.3921-.32-3.4944 1.672-5.1723 1.105-.9309 2.807-2.1363 4.814-1.8703 1.867.249 3.561 1.6468 5.658 4.6743.49.7074.315 1.6751-.394 2.1646-.708.4895-1.677.3112-2.167-.3933-1.488-2.1448-2.636-3.2454-3.508-3.3614-.59-.0793-1.372.3027-2.395 1.1657-.688.5801-.705 1.1177-.575 2.5098.026.2744.051.5602.065.8517.094 1.9863-.348 3.4123-1.351 4.3602-.827.7696-1.918 1.1488-3.335 1.1488z"/><path d="m88.0774 142.152c-.8614 0-1.5584-.696-1.5584-1.556 0-1.752-.0142-3.537-.0255-5.263-.0312-4.179-.0623-8.5.0878-12.758.0936-2.671-.6913-4.615-2.6294-6.505-4.3579-4.247-8.7214-8.624-12.9432-12.86-1.6944-1.701-3.3888-3.4013-5.0889-5.0962-.6092-.6083-.6092-1.593 0-2.2013.6092-.6084 1.5952-.6084 2.2044 0 1.7001 1.6977 3.3973 3.401 5.0946 5.1015 4.2133 4.227 8.5683 8.596 12.912 12.826 2.5615 2.496 3.6949 5.305 3.5673 8.842-.1501 4.194-.1161 8.48-.0878 12.626.0142 1.731.0255 3.522.0255 5.285 0 .863-.697 1.559-1.5584 1.559z"/><path d="m83.2279 171.998c-.0538 0-.1048 0-.1587-.003-2.1222-.045-4.2927-.034-6.3894-.023-2.1676.012-4.4117.026-6.6275-.025-2.8476-.065-5.9984-1.551-7.8373-3.696-1.2269-1.431-1.7709-2.993-1.5669-4.521.1785-1.358.0566-2.716-.0737-4.154-.136-1.491-.2748-3.036-.0708-4.649.1076-.851.8868-1.46 1.7425-1.349.8529.107 1.4593.885 1.3516 1.74-.1615 1.279-.0425 2.589.0822 3.978.1388 1.545.2833 3.141.0595 4.841-.0822.617.2181 1.361.8443 2.091 1.2779 1.491 3.5589 2.564 5.5423 2.609 2.1704.048 4.3918.037 6.5396.026 2.1194-.012 4.3097-.023 6.4745.022 1.547.043 2.8787-.812 4.2926-1.706.5554-.351 1.1306-.713 1.7256-1.027.6404-.337.5639-1.288.1389-3.435-.0822-.413-.1672-.84-.2352-1.265-.1927-1.2-.1162-2.801-.0454-4.346.0482-1.007.0964-2.049.0624-2.846-.0369-.858.629-1.585 1.4875-1.625.8586-.048 1.5868.629 1.6264 1.486.0425.939-.0113 2.054-.0623 3.129-.0652 1.39-.1332 2.827.0085 3.71.0595.365.1332.747.2154 1.151.4448 2.244 1.054 5.32-1.7426 6.794-.4874.257-.9861.572-1.5131.905-1.6292 1.025-3.4653 2.188-5.8709 2.188z"/><path d="m133.33 77.9904c-.34 0-.697-.0255-1.065-.0792-.853-.1245-1.439-.914-1.315-1.7656.125-.8517.918-1.4403 1.768-1.3129 1.936.2829 3.069-.7895 4.763-2.5607.267-.2773.53-.5546.799-.8234 1.259-1.2563 2.687-2.6824 2.698-3.0955-.02-.4131-1.536-1.8618-2.352-2.6371-3.273-3.1209-1.513-6.1032-.569-7.7075 1.527-2.5918 4.108-2.6541 5.992-2.7022.21-.0057.42-.0113.629-.0198.383-.0141.751.0311 1.077.0707.153.0198.36.0453.513.0538.003-.0057.003-.0141.006-.0226.632-2.8352.623-5.826-.026-8.8875-.068-.3226-.096-.4555-1.689-.2886l-.034.0028c-4.363.4556-7.146-1.6439-7.828-5.9136-.136-.8489.442-1.6468 1.292-1.7826.85-.1386 1.649.4414 1.785 1.2902.428 2.6711 1.669 3.5963 4.426 3.3106l.034-.0029c1.311-.1386 4.386-.4584 5.063 2.7418.739 3.5001.748 6.9351.017 10.206-.623 2.7984-3.125 2.4871-3.947 2.3824-.215-.0282-.439-.0594-.564-.0509-.224.0085-.45.0142-.674.0198-1.944.0481-2.797.167-3.386 1.1686-1.142 1.9354-1.264 2.6371.037 3.8764 1.912 1.825 3.295 3.1436 3.315 4.8526s-1.193 2.9201-3.61 5.3336c-.252.2518-.499.5122-.748.7696-1.542 1.61-3.414 3.5737-6.407 3.5737z"/><path d="m97.6481 129.156c-.7141 0-1.3573-.495-1.5188-1.219-.187-.838.3429-1.67 1.1844-1.856.4222-.094.8387-.153 1.2411-.21.6885-.099 1.3374-.192 1.7422-.424 12.088-6.949 19.795-14.965 24.255-25.228.343-.7895 1.261-1.1517 2.048-.8093.791.3424 1.154 1.2593.811 2.0453-4.675 10.755-13.034 19.484-25.561 26.685-.924.532-1.9493.68-2.856.807-.3599.051-.6999.099-1.0059.167-.1134.028-.2267.042-.34.042z"/><path d="m78.1249 81.3688c-.1756 0-.3541-.0311-.527-.0934-6.1004-2.19-6.9958-3.4916-6.4008-9.2722.2891-2.7956 1.9183-4.3744 4.5902-4.4452.6092-.017 1.2156-.0056 1.8021.0029.816.0141 1.5839.0254 2.3404-.0283 1.1646-.0821 3.2642.1924 4.2502 2.9709 1.5556 4.3829-.6942 9.1138-5.1229 10.7663-.2436.0905-.4958.116-.7367.0877-.0651.0056-.1303.0113-.1955.0113zm-1.6292-10.7068c-.2097 0-.4193.0028-.6262.0085-.9719.0254-1.4309.2716-1.5726 1.6524-.2181 2.1249-.2521 3.3133.1729 3.9217.4477.6394 1.6944 1.1969 3.828 1.9721 2.5983-1.1572 3.8846-4.0207 2.9439-6.6747-.323-.9111-.6262-.9394-1.0908-.9055-.8897.0623-1.7653.0481-2.6097.0368-.3598-.0057-.7055-.0113-1.0455-.0113z"/><path d="m65.4932 121.126c-.0652 0-.1303-.003-.1927-.011-.3768.045-.7707-.045-1.1022-.283-.2408-.176-.8018-.283-1.2977-.379-1.2524-.244-3.5843-.694-3.845-3.421-.0368-.396-.0878-.804-.1388-1.217-.2749-2.227-.5866-4.748.7763-6.935 1.2354-1.981 3.4483-1.76 4.9132-1.618.5554.053 1.0796.104 1.4819.062.2976-.034.5639-.02.7792-.009.0992.006.2352.012.2805.006 2.2385-.379 3.8649.738 4.4571 3.07 1.2835 5.039-.6942 8.817-5.5678 10.636-.1785.068-.3626.099-.544.099zm-2.3574-10.843c-.4449 0-.6886.068-.7962.244-.7821 1.253-.561 3.027-.3287 4.906.0538.442.1077.877.1502 1.305.0311.328.0396.407 1.3345.659.6035.116 1.2666.246 1.8956.54 3.029-1.284 4.0462-3.449 3.1961-6.779-.2266-.886-.3853-.858-.918-.77-.3683.062-.6914.045-.952.034-.1049-.006-.2324-.011-.2834-.006-.7253.08-1.4394.009-2.1307-.059-.4931-.045-.8756-.074-1.1674-.074z"/><path d="m96.8852 111.186c-.4081 0-.8132-.158-1.1193-.472-.323-.331-.8387-.462-1.6575-.646-1.0597-.237-2.3773-.532-3.386-1.706-.2409-.283-.374-.639-.374-1.013 0-.583.0028-1.165.0085-1.746.0085-1.304.017-2.651-.0199-3.958-.068-2.3796.9974-3.8142 3.1622-4.264 2.2016-.4584 5.358-.7074 7.8938.7017 2.562 1.4232 2.273 4.2383 2.083 6.1003-.048.458-.091.891-.099 1.273-.074 3.22-2.539 4.1-4.1712 4.68-.3854.139-.7537.269-1.0682.413-.0511.068-.1077.133-.1701.193-.3003.3-.6913.444-1.0823.444zm-3.4172-4.553c.3174.17.748.272 1.3232.402.6376.142 1.3743.309 2.0826.676.4279-.195.8642-.35 1.2864-.5 1.6576-.592 2.0798-.846 2.1028-1.823.011-.503.065-1.018.116-1.516.198-1.947.153-2.702-.4989-3.065-1.6972-.9446-4.0603-.724-5.7434-.376-.5468.113-.7112.147-.6829 1.129.0397 1.364.0312 2.739.0227 4.069-.0057.331-.0085.668-.0085 1.004z"/><path d="m96.8648 155.745c-1.5471 0-4.2559-.074-6.432-.133-1.428-.04-2.6606-.074-3.1224-.074-2.0118-.002-4.0576-.025-6.0325-.045-5.0322-.054-10.2373-.11-15.3148.161-1.8446.099-3.6608.029-5.4147-.039-1.3233-.051-2.57-.099-3.8422-.082-1.6973.022-3.0403-.439-3.9867-1.375-.9492-.94-1.4281-2.289-1.4224-4.007.0028-.478-.0028-.956-.0085-1.432-.0085-.919-.017-1.873.0198-2.826.1531-3.996 2.4085-6.109 6.517-6.109h.0113c2.2555.003 4.5421.034 6.7522.065 4.2983.059 8.744.122 13.1104-.037 2.4452-.088 5.0237.031 7.5143.147 1.5782.074 3.2131.147 4.814.173.5724.008 1.2326-.023 1.9296-.06 1.0739-.05 2.1875-.107 3.097-.008.6149.068 1.1079.093 1.5442.119 1.2524.071 2.2413.124 3.5196 1.109 2.006 1.545 3.02 8.183 2.011 10.602-.98 2.346-2.7623 3.676-5.1566 3.848-.034 0-.0708.003-.1076.003zm-21.8885-3.412c2.1279 0 4.2445.022 6.3328.045 1.9692.023 4.0065.042 6.0041.045.5015 0 1.6944.034 3.2046.074 2.128.059 4.7716.13 6.2846.133 1.1929-.102 1.9268-.682 2.451-1.938.5667-1.356-.2805-6.115-1.0597-6.955-.4761-.365-.6517-.388-1.7681-.45-.4505-.026-1.0087-.057-1.7058-.133-.6658-.074-1.6519-.026-2.6067.022-.7169.034-1.4564.074-2.1308.063-1.6519-.026-3.3095-.102-4.9104-.176-2.5416-.116-4.9415-.226-7.2593-.144-4.4457.158-8.9282.096-13.2662.037-2.2016-.031-4.4769-.063-6.7125-.065-.0028 0-.0057 0-.0085 0-2.4198 0-3.3123.815-3.4001 3.115-.0341.88-.0256 1.751-.017 2.677.0056.492.0085.981.0085 1.474-.0029.585.0821 1.372.4986 1.782.3287.326.9181.487 1.7511.473 1.3516-.02 2.7003.034 4.0037.085 1.7624.068 3.4256.133 5.1285.042 3.0488-.158 6.126-.206 9.1776-.206z"/><path d="m89.994 162.414h-26.7989c-.8614 0-1.5584-.696-1.5584-1.556s.697-1.556 1.5584-1.556h26.7989c.8613 0 1.5584.696 1.5584 1.556s-.6999 1.556-1.5584 1.556z"/><path d="m78.1237 142.152c-.8415 0-1.5357-.67-1.5584-1.514-.0793-2.945-.0368-5.925.0029-8.808.068-4.861.1416-9.886-.3797-14.773-.0907-.854.5298-1.621 1.3855-1.712.8557-.09 1.6236.53 1.7143 1.384.5383 5.073.4675 10.192.3967 15.144-.0397 2.852-.0822 5.8-.0057 8.68.0227.861-.6545 1.574-1.5159 1.599-.0113 0-.0255 0-.0397 0z"/><path d="m65.1072 142.152c-.8613 0-1.5584-.696-1.5584-1.556v-20.644c0-.86.6971-1.556 1.5584-1.556.8614 0 1.5584.696 1.5584 1.556v20.644c0 .86-.697 1.556-1.5584 1.556z"/><path d="m78.1248 100.864c-.8614 0-1.5584-.696-1.5584-1.5562v-19.116c0-.8602.697-1.5563 1.5584-1.5563s1.5584.6961 1.5584 1.5563v19.116c0 .8602-.697 1.5562-1.5584 1.5562z"/><path d="m96.5025 142.152c-.0142 0-.0312 0-.0482 0-.8614-.025-1.5357-.741-1.5102-1.601.0481-1.653.1501-3.333.2465-4.958.1728-2.889.3485-5.874.2323-8.681l-.0623-1.448c-.2182-5.085-.4449-10.342-.0283-15.574.068-.857.8188-1.494 1.6774-1.429.8585.068 1.4989.818 1.4309 1.675-.3996 5.043-.1899 9.974.0368 15.195l.0623 1.451c.1247 2.966-.0595 6.033-.2351 8.998-.0964 1.602-.1927 3.257-.2409 4.864-.0283.843-.7225 1.508-1.5612 1.508z"/><path d="m63.2542 99.8313c-.6432 0-1.2638-.1386-1.8276-.4159-3.3237-1.6383-5.2929-3.8878-5.8568-6.6861-.1841-.914.2324-1.8958.7282-2.4589.3259-.3706.6347-.7809.9634-1.2166 1.1589-1.5336 2.6011-3.4436 5.2929-3.8963.221-.0368.4392-.0254.6432.0255.3287-.0849.6885-.0594 1.0229.0905 3.2528 1.4657 5.018 4.1141 6.0636 5.9788.1105.198.1756.4159.1927.6423.153 1.9806-.8954 3.0954-1.5896 3.8311-.255.2716-.4959.5263-.5922.7357-.6545 1.3921-1.9749 2.5776-3.4483 3.0926-.5327.1868-1.0711.2773-1.5924.2773zm-4.5902-7.5378c.4222 1.7458 1.7794 3.1662 4.1425 4.3292.3372.1669.7339.0877 1.0087-.0085.6772-.2377 1.3601-.8432 1.6547-1.477.3089-.6565.7509-1.129 1.1419-1.5421.4845-.515.7084-.7753.7537-1.1658-1.2155-2.0655-2.5643-3.418-4.2133-4.2187-.0255.0056-.0539.0113-.0822.0169-1.3969.2349-2.1733 1.1799-3.3236 2.7022-.3401.4499-.6914.9168-1.0824 1.3638z"/><path d="m10.3654 73.3388c-.0454 0-.0907-.0029-.136-.0057l-8.80642-.764c-.858539-.0735-1.4932333-.829-1.41672991-1.6864.07650331-.8573.83020291-1.4883 1.68873991-1.4147l8.80641.764c.8585.0735 1.4932.829 1.4167 1.6863-.0708.8093-.7537 1.4205-1.5527 1.4205z"/><path d="m15.2877 54.732c-.187 0-.3768-.034-.561-.1047l-8.24538-3.1804c-.80186-.3084-1.20138-1.211-.89253-2.0118.30884-.8007 1.21272-1.1997 2.01458-.8913l8.24533 3.1804c.8019.3084 1.2014 1.211.8926 2.0118-.238.6168-.8274.996-1.4536.996z"/><path d="m25.2013 38.2247c-.3287 0-.6602-.1047-.9436-.3169l-7.0326-5.345c-.6857-.5206-.8189-1.4968-.2975-2.1815s1.4989-.8177 2.1846-.2971l7.0326 5.3449c.6857.5206.8189 1.4968.2975 2.1816-.306.4018-.7735.614-1.241.614z"/><path d="m39.319 25.1213c-.4761 0-.9464-.2179-1.2524-.6282l-5.2674-7.0879c-.5129-.6904-.3684-1.6637.323-2.1759.6914-.5121 1.6661-.3678 2.1789.3226l5.2674 7.0879c.5129.6904.3684 1.6637-.323 2.1759-.2777.2065-.6035.3056-.9265.3056z"/><path d="m56.5299 16.4572c-.6318 0-1.2269-.3876-1.4592-1.013l-3.0856-8.27058c-.3004-.80641.1105-1.70053.9152-2.00046.8075-.29992 1.7029.11036 2.0032.91393l3.0857 8.27061c.3003.8064-.1105 1.7005-.9152 2.0005-.1786.0679-.3627.099-.5441.099z"/><path d="m75.4753 12.9148c-.8076 0-1.4904-.6225-1.5527-1.4402l-.6602-8.80261c-.0652-.85734.578-1.60432 1.4365-1.6694.8557-.067911 1.6066.57721 1.6718 1.43455l.6601 8.80256c.0652.8574-.578 1.6043-1.4365 1.6694-.0397.0028-.0793.0057-.119.0057z"/><path d="m94.6628 14.7737c-.1048 0-.2125-.0113-.323-.0339-.8415-.1755-1.3827-1.0017-1.2042-1.842l1.8163-8.63849c.1756-.84036 1.003-1.3808 1.8445-1.20254.8416.17543 1.3828 1.00164 1.2043 1.84201l-1.8163 8.63842c-.153.7329-.8019 1.2365-1.5216 1.2365z"/><path d="m53.3604 75.4156c-1.7908 0-3.7204-.4584-4.8141-2.6201-.697-1.3808-.5525-2.9852-.4222-4.3999.0624-.6763.119-1.3186.0907-1.8816-.153-2.8975 2.1308-3.8708 2.8816-4.1905.2635-.1132.5384-.1472.8047-.1132.0624-.0085.1275-.0113.1899-.0113h1.9154c2.8391 0 4.9954.2971 6.2959 1.7543 1.3034 1.46 1.3601 3.5623 1.0257 6.4795-.3145 2.7531-2.1506 4.5216-4.9103 4.7366-.3061.0226-.6262.0594-.9549.0962-.629.0707-1.3516.15-2.1024.15zm-1.3119-10.1042c-.7197.3509-.7424.5999-.7197 1.0413.0425.7866-.0312 1.5703-.0992 2.3287-.0963 1.0469-.1955 2.1277.102 2.7134.4874.9649 1.4167 1.0413 3.7912.781.3626-.0396.7168-.0792 1.0568-.1047 1.2751-.099 1.907-.7102 2.0543-1.9863.1643-1.4346.3173-3.4152-.255-4.0547-.5724-.6395-2.5388-.7159-3.9697-.7159h-1.9154c-.017-.0028-.0312-.0028-.0453-.0028z"/><path d="m68.3542 55.462c-.4902 0-.952-.0368-1.3374-.0651-.2805-.0227-.5553-.0425-.8132-.0509-.3032-.0114-.6517.0113-1.02.0339-1.6293.099-4.6611.2801-5.4431-3.5425-.9605-4.6885.3797-7.8491 3.9895-9.3911.2635-.1132.5412-.1472.8047-.1132.102-.0142.2097-.0142.3174-.0057.4363.0368.9407.0114 1.4762-.0141 1.7256-.0849 4.3323-.2122 5.8114 2.357 1.4026 2.439 1.0512 5.2487.4619 7.9197-.5441 2.4617-2.57 2.872-4.2474 2.872zm-2.3206-3.2313c.0907 0 .1842 0 .2777.0056.3117.0114.6318.0368.9435.0595 2.0826.1584 2.2271-.0312 2.3036-.3764.4534-2.0627.7537-4.1791-.1218-5.7014-.4817-.8375-1.1929-.8856-2.9553-.7979-.5837.0283-1.1901.0566-1.8021.0141-1.4252.6876-2.6606 1.9892-1.8842 5.7779.2238 1.0893.3881 1.1685 2.2044 1.061.3343-.0198.68-.0424 1.0342-.0424z"/><path d="m117.691 67.3232c-9.141 0-16.576-7.4246-16.576-16.5526s7.435-16.5526 16.576-16.5526c.861 0 1.558.6961 1.558 1.5563 0 .8601-.697 1.5562-1.558 1.5562-7.421 0-13.459 6.0297-13.459 13.4401 0 7.4105 6.038 13.4401 13.459 13.4401s13.459-6.0296 13.459-13.4401c0-.8602.697-1.5562 1.558-1.5562.862 0 1.559.696 1.559 1.5562 0 9.1251-7.435 16.5526-16.576 16.5526z"/></g></svg>