<svg fill="none" height="20" viewBox="0 0 17 20" width="17" xmlns="http://www.w3.org/2000/svg"><path clip-rule="evenodd" d="m0 8.31776c0-4.59987 3.84388-8.31776 8.49345-8.31776 4.66265 0 8.50655 3.71789 8.50655 8.31776 0 2.31794-.843 4.46984-2.2305 6.29384-1.5307 2.0119-3.4173 3.7649-5.54096 5.1408-.48603.318-.92467.342-1.45809 0-2.13571-1.3759-4.02236-3.1289-5.53995-5.1408-1.388517-1.824-2.2305-3.9759-2.2305-6.29384zm5.69423.25899c0 1.54095 1.25743 2.75295 2.79922 2.75295 1.54275 0 2.81235-1.212 2.81235-2.75295 0-1.52895-1.2696-2.79992-2.81235-2.79992-1.54179 0-2.79922 1.27097-2.79922 2.79992z" fill="#fabb00" fill-rule="evenodd"/></svg>