<svg fill="none" height="55" viewBox="0 0 60 55" width="60" xmlns="http://www.w3.org/2000/svg"><path d="m59.9998 7.42428c0-.00656-.0008-.01312-.001-.0198-.0007-.02613-.0023-.05192-.0053-.07746-.0012-.00938-.0029-.01875-.0043-.02813-.0036-.02355-.0079-.04676-.0133-.06949-.0021-.00902-.0044-.01793-.0069-.02695-.0068-.02473-.0145-.04899-.0234-.07289-.0017-.00457-.0027-.00926-.0045-.01371l-2.3842-6.10335c-.2403-.615001-.8224-1.0125-1.4827-1.0125h-4.3411c-.4732 0-.8568.383554-.8568.856756 0 .473204.3836.856754.8568.856754h4.2581l1.8974 4.8573h-17.9384l-1.1239-4.8573h6.625c.4732 0 .8567-.38355.8567-.856754 0-.473202-.3835-.856756-.8567-.856756h-7.7027-8.6328-18.3256c-.6605 0-1.24244.397499-1.48279 1.01273l-2.38417 6.10312c-.00176.00457-.0027.00925-.00445.01371-.00891.02379-.01664.04804-.02344.07289-.00246.00902-.00481.01793-.00692.02695-.00539.02285-.00972.04606-.01324.06949-.0014.00938-.00316.01875-.00433.02813-.00293.02554-.00457.05133-.00528.07746-.00011.00656-.00093.01312-.00105.0198 0 .00106-.00012.00211-.00012.00317v12.58705c0 .4732.38356.8568.85676.8568s.85675-.3836.85675-.8568v-11.73018h18.16078v13.02278c0 .5093.3.9734.7644 1.1823.17.0765.3511.1139.531.1139.3112 0 .6191-.1118.8605-.3258l4.5376-4.02 4.5376 4.0199c.381.3379.9273.421 1.3917.212.4643-.2091.7643-.673.7643-1.1823v-13.02278h18.1606v38.42838c0 .6148-.5002 1.1151-1.115 1.1151h-15.7093c0-.0098-.0012-.0195-.0013-.0292-.0009-.0769-.0038-.1536-.0103-.2298 1.475.391 3.0511-.3671 3.6422-1.8167.3109-.7625.3063-1.6004-.013-2.3593-.0302-.0715-.0633-.1409-.0983-.2092-.0064-.0125-.0126-.0252-.0191-.0376-.0343-.0651-.0709-.1288-.1094-.1908-.0075-.012-.0152-.0238-.0229-.0357-.0407-.0636-.083-.1261-.1282-.1862-.0008-.0012-.0017-.0022-.0025-.0033-.0448-.0594-.0921-.1166-.141-.1725-.0089-.0102-.0177-.0205-.0267-.0307-.0484-.0539-.0987-.1061-.1507-.1563-.0102-.0099-.0205-.0194-.0309-.029-.0544-.0512-.1102-.101-.1684-.148-.0019-.0015-.0039-.003-.0059-.0046-.0572-.046-.1166-.0896-.1772-.1316-.0109-.0076-.0217-.0153-.0328-.0228-.0606-.0408-.1227-.0793-.1865-.116-.0052-.0031-.0101-.0066-.0154-.0096.3621-.3134.6479-.71.834-1.1663.3109-.7625.3063-1.6004-.013-2.3594-.2794-.6641-.7705-1.1983-1.3996-1.5297-.0899-.0473-.1826-.0906-.2778-.1294l-13.3344-5.4371 6.2069-1.9212c1.4767-.4571 2.3084-2.0321 1.8539-3.5107-.1696-.5519-.5058-1.0174-.9401-1.3576-.6463-.5063-1.51-.735-2.3667-.5551-.0041.001-.0081.0017-.0122.0027-.0474.0107-4.8057 1.0806-9.7753 2.0496-.2204.043-.4352.0845-.647.1253-.1694.0326-.3365.0647-.5005.0959-.0471.009-.0943.0179-.1411.0268-.2894.0549-.5698.1076-.8424.1582-.1097.0204-.2185.0405-.3254.0602-6.2411 1.1497-7.9943 1.1704-8.4809 1.1045-.0019-.0002-.0035-.0005-.0054-.0008-.0074-.0011-.0146-.0021-.0214-.0032-.0049-.0008-.0095-.0016-.0141-.0023-.0033-.0006-.0068-.0012-.0099-.0017-.0304-.0055-.0541-.0112-.0724-.0167l-.1403-.0572.1749-.429c.172-.4219.1695-.8855-.0071-1.3054-.0442-.105-.098-.2041-.1603-.2965-.1871-.2769-.4516-.4925-.768-.6215l-4.60168-1.8763c-.42176-.1722-.88547-.1695-1.30535.0071-.42.1766-.7459.5063-.91793.9281l-5.62698 13.8003c-.355078.8708.06457 1.8681.93539 2.2233l4.60183 1.8764c.21011.0856.4275.1262.6416.1262.673 0 1.31214-.401 1.58156-1.0616l.0423-.1037 1.06101.4325c.00059.0002.00118.0006.00188.0008 1.01487.4138 1.94987 1.0042 2.75917 1.7368.1472.1333.2902.2712.4288.4136s.2727.2893.4022.4405c.0647.0756.1283.1524.1905.23 1.1793 1.4705 2.7252 2.624 4.4705 3.3357l1.1937.4866h-8.74362c-.61477 0-1.11504-.5002-1.11504-1.115v-2.1678c0-.4732-.38355-.8568-.85676-.8568-.4732 0-.85675.3836-.85675.8568v2.1678c0 1.5597 1.26878 2.8286 2.82855 2.8286h12.94602l11.0368 4.5002c.3799.1549.773.2284 1.1601.2283 1.2162 0 2.3715-.7248 2.8584-1.9189.1997-.4897.2638-1.0016.21-1.4936.5741.0824 1.1693.0068 1.7088-.2262.5483-.2368 1.0028-.6141 1.3255-1.09h16.2328c1.5597 0 2.8285-1.2687 2.8285-2.8285v-39.28494c-.0001-.00117-.0002-.0021-.0002-.00328zm-30.2029-5.71077h7.2705l1.124 4.8573h-9.5184zm-2.8827 4.8573h-17.93843l1.89743-4.8573h17.165zm11.4983 13.80949h-.0001l-4.1205-3.6504c-.2451-.217-.5523-.3256-.8595-.3256-.3073 0-.6146.1086-.8597.3256l-4.1204 3.6504v-12.09598h9.9602zm-32.10953 19.8201-4.58706-1.8703 5.621-13.7853 4.58709 1.8704zm34.22863 5.1704-.9833-.401c-.0005-.0002-.0009-.0004-.0014-.0006-.0004-.0001-.0007-.0003-.0011-.0005-.0001 0-.0002-.0001-.0003-.0001l-10.2405-4.1755c-.4381-.1786-.9381.0317-1.1168.47-.1788.4381.0316.9381.4699 1.1169l10.2407 4.1756c.0428.0174.0842.0368.1241.058.0113.006.0217.0132.0327.0194.0282.016.0564.0319.083.0496.0128.0086.0245.0184.0369.0273.0236.0169.0476.0335.0699.0518.0134.011.0256.0233.0386.0348.02.0177.0403.0348.0591.0536.013.0129.0246.027.037.0404.0173.0185.035.0367.0511.0561.0123.0149.0231.0307.0348.0461.0147.0192.0299.0381.0434.058.0114.0166.0211.0342.0316.0512.0122.0197.0251.039.0362.0593.0101.0183.0186.0374.0278.056.0099.0201.0205.0397.0294.0603.0086.0196.0155.04.0231.0601.0077.0202.0162.0402.023.0608.0068.0207.0119.0419.0177.0629.0057.0208.0122.0412.017.0621.0048.0212.0078.0428.0117.0641.0039.0214.0083.0424.0111.064s.0039.0434.0056.065c.0018.0218.0044.0435.0051.0653.0007.0215-.0004.0431-.0006.0647-.0002.0223.0001.0445-.0013.0669-.0013.0212-.0044.0424-.0068.0637-.0024.0228-.0043.0457-.0081.0684-.0034.0209-.0086.0416-.013.0625-.0049.023-.009.0461-.0152.0691-.0054.0203-.0127.0404-.0191.0606-.0073.023-.014.0459-.0225.0685-.0073.0156-.0144.0313-.0211.0471-.0015.0037-.0024.0074-.0038.0109-.1338.3091-.3808.5546-.7034.6939-.3551.1532-.7616.1586-1.1155.0142l-1.8145-.7398c-.0084-.0034-.0169-.0058-.0254-.0089-.0085-.0039-.0166-.0083-.0253-.0119l-8.3292-3.3962c-.4384-.1786-.9382.0317-1.1168.47-.1787.4381.0316.9382.4698 1.1169l8.3292 3.3962c.0089.0036.0179.0062.027.0095.0081.0035.0156.0078.0239.0111.699.2851 1.0359 1.0857.7509 1.7848-.2851.6992-1.0854 1.0363-1.7848.7509l-11.1908-4.563c-.0004-.0003-.0009-.0005-.0014-.0007l-5.2406-2.137c-.9225-.3761-1.7791-.8982-2.5353-1.5405-.4538-.3854-.8713-.814-1.2454-1.2804-.3685-.4595-.7728-.888-1.2078-1.2819-.9571-.8664-2.0627-1.5644-3.26263-2.0538-.00012 0-.00023-.0001-.00035-.0001l-1.06242-.4332 2.1161-5.1896 1.9996-4.9042.1476.0602c.1388.0566.3369.1369.8699.1571.6658.0301 1.7674-.0394 3.7408-.3182 1.3424-.1896 2.989-.4638 4.9112-.8175.0474-.0086.0943-.0173.1422-.0261.0898-.0166.1807-.0335.2718-.0504.0709-.0131.1422-.0265.214-.0399.0818-.0154.164-.0308.2467-.0463.0878-.0166.1766-.0333.2659-.0503.0715-.0136.1428-.0271.215-.0408.1089-.0207.2196-.0419.3307-.0633.0572-.011.1138-.0218.1715-.0328.1701-.0328.3425-.0661.5181-.1002 4.9524-.9633 9.7325-2.0354 9.9473-2.0837.0214-.0044.0429-.007.0643-.0102.5503-.0814 1.0895.2369 1.2474.7504.0554.1804.0618.3645.0269.5377-.0767.3813-.3538.7102-.7497.8327l-8.494 2.6289c-.3458.1071-.587.4197-.6026.7813-.0157.3615.1974.694.5325.8306l15.5512 6.3412c.3387.138.6033.3997.7451.7368.1418.3372.1439.7094.0057 1.0479-.1381.3387-.3997.6033-.7368.7451-.1685.0708-.3458.1066-.5234.1077-.0026 0-.0051-.0004-.0077-.0004-.0417 0-.0833-.0016-.1249-.0055-.0123-.0011-.0245-.0037-.0368-.0051-.0318-.0039-.0636-.0075-.0951-.0136-.0199-.0039-.0396-.0097-.0594-.0144-.0237-.0056-.0474-.0105-.0709-.0174-.0242-.0071-.048-.0166-.0719-.0252-.019-.0068-.0384-.0124-.0571-.02l-10.2417-4.1761c-.4382-.1787-.9381.0317-1.1168.4699s.0316.9382.4699 1.1169l12.4166 5.0629c.0847.0344.1648.0767.2394.126.224.1476.3994.358.5057.6109.1241.2949.1412.6167.0509.9194-.0128.0433-.028.0861-.0452.1284-.0178.0438-.0376.0861-.0593.1268-.0505.095-.112.1808-.1807.2589-.0426.0485-.0882.0938-.1367.1352-.0078.0066-.0148.0141-.0227.0204-.3126.2557-.7306.3657-1.139.2832-.0829-.0168-.1653-.0406-.2464-.0736z" fill="#000"/></svg>