<svg fill="none" height="58" viewBox="0 0 52 58" width="52" xmlns="http://www.w3.org/2000/svg"><path d="m8 21.5v1.875c0 .2487.09877.4871.27459.6629.17581.1758.41427.2746.66291.2746s.4871-.0988.66291-.2746c.17582-.1758.27459-.4142.27459-.6629v-1.875h1.875v1.875c0 .7459-.2963 1.4613-.8238 1.9888-.5274.5274-1.24278.8237-1.9887.8237s-1.46129-.2963-1.98874-.8237c-.52744-.5275-.82376-1.2429-.82376-1.9888v-1.875zm43.125-16.25389c-.0005 1.03096-.3648 2.02868-1.0287 2.81742l-8.8854 10.55107c1.4236 1.755 2.4323 3.809 2.9509 6.0085.5185 2.1995.5334 4.4877.0436 6.6938.5123.3281.9045.8134 1.1177 1.3832.2133.5697.2361 1.1932.0651 1.777-.1709.5839-.5265 1.0966-1.0134 1.4613-.487.3647-1.079.5617-1.6873.5616h-.1192l-2.7019 19.8142c-.0306.2246-.1416.4305-.3124.5796s-.3898.2312-.6165.2312h-31.875c-.2267 0-.44573-.0821-.61653-.2312-.17079-.1491-.28178-.355-.31242-.5796l-2.70187-19.8142h-.11918c-.74592 0-1.46129-.2963-1.98874-.8237-.527444-.5275-.82376-1.2429-.82376-1.9888s.296316-1.4613.82376-1.9887c.52745-.5275 1.24282-.8238 1.98874-.8238h11.5158c-.1765-.9271-.2655-1.8687-.2658-2.8125-.0057-2.2381.494-4.4486 1.4617-6.4666 1.578-3.2742 4.2814-5.8713 7.6162-7.3167-2.1396-1.405-4.6433-2.1538-7.2029-2.1542-1.9999-.0059-3.9741.4502-5.7688 1.3327-.0089.0044-.0179.0086-.0271.0127-2.74097 1.3528-4.92501 3.6182-6.17652 6.4069-1.25152 2.7887-1.49228 5.9263-.6809 8.8732l-1.80762.499c-.91191-3.3005-.6676-6.8137.69239-9.9563 1.35999-3.1425 3.75385-5.7255 6.78417-7.3199.82498-3.06507 2.60118-5.78934 5.07278-7.78082 2.4717-1.99148 5.5114-3.14749 8.6818-3.301662 3.1704-.154176 6.3079.701422 8.9611 2.443682 2.6533 1.74226 4.6854 4.28133 5.8039 7.2518l4.7858-7.65699c.3915-.63011.9376-1.14963 1.5864-1.50919.6489-.35956 1.3789-.547206 2.1207-.545102h.2883c1.1589.001271 2.27.462202 3.0894 1.281672.8195.81946 1.2804 1.93053 1.2817 3.08942zm-34.6875 5.00389c3.406.0001 6.7106 1.1596 9.37 3.2877 3.2703-.8419 6.7288-.5594 9.8191.8023l1.0402-1.6641c-.7127-2.83614-2.3522-5.35305-4.6583-7.15128-2.3061-1.79822-5.1467-2.77475-8.071-2.7746-2.9808-.01165-5.8747 1.0029-8.1957 2.8732-1.7677 1.41914-3.1407 3.26895-3.9872 5.37178 1.5112-.4967 3.0922-.7482 4.6829-.745zm-13.125 24.375h22.5v-1.875h-22.5c-.24864 0-.4871.0988-.66291.2746-.17582.1758-.27459.4143-.27459.6629 0 .2487.09877.4871.27459.6629.17581.1758.41427.2746.66291.2746zm37.3635 1.875h-1.7385c0 .7459-.2963 1.4613-.8238 1.9888-.5274.5274-1.2428.8237-1.9887.8237s-1.4613-.2963-1.9887-.8237c-.5275-.5275-.8238-1.2429-.8238-1.9888v-2.8125c0-.2486-.0988-.4871-.2746-.6629s-.4143-.2746-.6629-.2746-.4871.0988-.6629.2746-.2746.4143-.2746.6629v.9375c.0004.5695-.1723 1.1257-.4951 1.5949-.3227.4692-.7804.8292-1.3124 1.0325-.5319.2033-1.1131.2402-1.6665.1059-.5534-.1344-1.053-.4337-1.4325-.8583h-21.20698l2.5568 18.75h30.23838zm2.949-2.8125c.0002-.1232-.0239-.2452-.0709-.359-.047-.1139-.1161-.2173-.2032-.3044s-.1905-.1562-.3044-.2032c-.1138-.047-.2358-.0711-.359-.0709h-3.75v1.875h3.75c.1232.0003.2452-.0237.3591-.0707.1139-.0471.2174-.1161.3045-.2032s.1561-.1906.2031-.3045c.047-.1138.0711-.2359.0708-.3591zm-.9375-5.625c-.002-2.4145-.6689-4.7818-1.9274-6.8423-1.2585-2.0606-3.0601-3.7348-5.2072-4.8392l-.0022-.0011c-1.8514-.9544-3.9053-1.4491-5.9882-1.4424-1.2562-.001-2.506.1783-3.7112.5325-.2306.0666-.4555.1395-.6925.2245-3.2648 1.1746-5.9377 3.5844-7.4431 6.7104-.8465 1.7657-1.2834 3.6996-1.2782 5.6576.0001.9457.102 1.8887.3041 2.8125h10.0084c.2486 0 .4871.0988.6629.2746s.2746.4143.2746.6629v2.8125c.0001.1285.0267.2556.0779.3734.0513.1178.1262.2239.2201.3116s.2048.1551.3259.1982c.121.0431.2496.0609.3778.0522.2408-.0218.4645-.1336.6264-.3132.1619-.1795.2501-.4136.2469-.6553v-.9044c.0007-.7374.2907-1.445.8076-1.9709.5168-.5259 1.2194-.8281 1.9566-.8416 1.5733-.0262 2.8608 1.303 2.8608 2.8765v2.7485c.0001.1285.0267.2556.0779.3734.0513.1178.1262.2239.2201.3116s.2048.1551.3259.1982c.121.0431.2496.0609.3778.0522.2408-.0218.4645-.1336.6264-.3132.1619-.1795.2501-.4136.2469-.6553v-4.6544c0-.2486.0988-.4871.2746-.6629s.4143-.2746.6629-.2746h4.3837c.202-.9239.3038-1.8668.3038-2.8125zm6.5625-22.81639c-.0007-.66178-.264-1.29623-.7319-1.76418-.468-.46795-1.1024-.73117-1.7642-.73191h-.2883c-.4237-.00111-.8407.10614-1.2114.31158-.3706.20543-.6825.50222-.9062.86217l-7.0541 11.28613c.9519.5702 1.8363 1.2459 2.6368 2.0143l8.732-10.36946c.3787-.4505.5867-1.02005.5873-1.60863zm-39.77508 33.93969-1.85777.2534.27305 2.003 1.85789-.2534zm-1.30078 4.3377 1.23281 9.0407 1.85775-.2534-1.2328-9.0406zm27.95086-21.086c0 .2487-.0988.4871-.2746.6629s-.4143.2746-.6629.2746-.4871-.0988-.6629-.2746-.2746-.4142-.2746-.6629v-1.875h-1.875v1.875c0 .7459.2963 1.4613.8238 1.9888.5274.5274 1.2428.8237 1.9887.8237s1.4613-.2963 1.9887-.8237c.5275-.5275.8238-1.2429.8238-1.9888v-1.875h-1.875zm-14.0625-15.93748h1.875v-1.875h-1.875zm7.5 1.875h-1.875v1.87498h1.875zm-14.0625 7.49998h-1.875v1.875h1.875zm6.5625 8.4375h1.875v-1.875h-1.875zm4.6875-3.75h1.875v-1.875h-1.875zm2.8125 23.4375c0 .2487-.0988.4871-.2746.6629s-.4143.2746-.6629.2746-.4871-.0988-.6629-.2746-.2746-.4142-.2746-.6629v-1.875h-1.875v1.875c0 .7459.2963 1.4613.8238 1.9888.5274.5274 1.2428.8237 1.9887.8237s1.4613-.2963 1.9887-.8237c.5275-.5275.8238-1.2429.8238-1.9888v-1.875h-1.875z" fill="#000"/></svg>