<svg fill="none" height="58" viewBox="0 0 58 58" width="58" xmlns="http://www.w3.org/2000/svg"><g fill="#000"><path d="m56.5677 57.3784c-.1261 0-.2505-.0295-.3632-.086l-18.1768-9.1135c-.0214-.0105-.0422-.0222-.0624-.0349l-22.4732-11.2621c-.1147-.0576-.214-.1416-.2899-.245s-.1261-.2234-.1466-.35-.0107-.2563.0287-.3784.1071-.2331.1978-.3239l20.3019-20.3027c.0908-.0906.2018-.1584.3239-.1978.122-.0394.2517-.0492.3784-.0287.1266.0205.2466.0708.35.1466.1034.0759.1874.1752.245.2899l20.4113 40.7124c.0619.1236.0913.261.0851.3992-.0061.1381-.0474.2724-.1201.39-.0726.1177-.1741.2148-.2949.2821-.1207.0674-.2567.1028-.395.1028zm-17.7567-10.6217 15.9405 7.993-18.8108-37.5259-18.7135 18.7135 21.523 10.7838c.017.0113.0381.0227.0608.0356z"/><path d="m12.9783 38.7898h-.0527c-.9075-.0142-1.7735-.3833-2.4122-1.0282-.64599-.6335-1.01447-1.4973-1.02466-2.4021-.01018-.9048.33877-1.7767.97036-2.4246l22.4765-22.4765c.3179-.3142.695-.56199 1.1096-.72903.4145-.16703.8581-.24996 1.305-.24396.9075.01414 1.7734.38321 2.4121 1.02809.6461.6336 1.0146 1.4974 1.0247 2.4022.0102.9047-.3387 1.7767-.9703 2.4246l-22.4773 22.4765c-.3095.3104-.6776.5563-1.0829.7234-.4054.167-.8398.2518-1.2782.2496zm-1.3192-2.1746c.3415.3457.8049.5439 1.2908.5521.2307.0113.4612-.0273.6757-.1131.2144-.0857.4079-.2167.5673-.3839l22.4773-22.4773c.328-.3436.5065-.8032.4963-1.2781-.0102-.475-.2082-.9265-.5506-1.2557-.3416-.3458-.8049-.544-1.2909-.5522-.23-.0054-.4587.0358-.6723.1213-.2137.0854-.4078.2132-.5706.3758l-22.4773 22.4781c-.328.3436-.5065.8032-.4963 1.2781.0101.4749.2082.9265.5506 1.2557z"/><path d="m20.9728 24.3784c-.0935-.0001-.1862-.0166-.274-.0487-1.9969-.7181-3.7292-2.0245-4.9687-3.747-1.2394-1.7225-1.9278-3.7801-1.9743-5.9016-.0272-1.3082.2078-2.6086.6912-3.8246.4833-1.21588 1.2052-2.32272 2.1232-3.25521.9179-.9325 2.0132-1.67177 3.2214-2.17424 1.2081-.50247 2.5046-.75795 3.8131-.75139h.1549c2.1215.04666 4.1791.73507 5.9015 1.9745s3.0289 2.9717 3.7471 4.96844c.0727.2025.062.4255-.0298.6201-.0917.1945-.257.3447-.4595.4174s-.4255.0619-.6201-.0298c-.1945-.0918-.3446-.2571-.4173-.4596-.6064-1.6863-1.7091-3.1495-3.163-4.19716-1.4539-1.04765-3.1909-1.63063-4.9824-1.67226-1.1037-.02409-2.2007.17541-3.2252.58649s-1.9552 1.02524-2.7361 1.8055c-.7808.78026-1.3957 1.71043-1.8076 2.73463s-.6122 2.1211-.589 3.2247c.0383 2.2839.9697 4.4619 2.5946 6.0673.9247.9292 2.0448 1.6408 3.2789 2.083.1843.0616.3403.1874.4397.3544.0993.167.1354.3642.1016.5555-.0338.1914-.1352.3643-.2857.4872-.1506.1228-.3402.1876-.5345.1824z"/><path d="m6.52597 19.7381c-.1336.0001-.26512-.033-.3827-.0965-.9032-.4866-1.72989-1.1035-2.45351-1.8308-1.92229-1.9026-3.023547-4.482-3.06811-7.1862-.026823-1.32106.21361-2.6339.70686-3.85969s1.22915-2.33926 2.16349-3.27353c.93435-.93427 2.04788-1.67007 3.27371-2.16323 1.22583-.493148 2.53869-.733475 3.85969-.706545 1.8963.042918 3.7456.598125 5.3519 1.606755 1.6063 1.00864 2.9098 2.43312 3.7722 4.12243.0518.09541.084.20024.0945.3083.0106.10806-.0007.21714-.0331.32077s-.0853.19969-.1555.28249c-.0702.08281-.1564.15066-.2533.19954-.097.04888-.2027.07779-.3111.08502-.1083.00723-.217-.00737-.3196-.04294-.1025-.03557-.1969-.09138-.2775-.16412-.0807-.07273-.1458-.16092-.1917-.25933-.7294-1.42483-1.8299-2.62634-3.1853-3.47774s-2.9156-1.32111-4.5158-1.35955h-.1313c-1.08199-.00644-2.15444.20204-3.15519.61333-1.00074.41129-1.90985 1.01721-2.67458 1.78261-1.5666 1.62211-2.42562 3.79951-2.38853 6.05433.03709 2.2548.96726 4.4027 2.58637 5.9724.61133.6153 1.30956 1.1376 2.07243 1.5503.15918.0855.28525.2217.35819.387.07295.1653.08858.3502.04443.5255-.04415.1752-.14556.3306-.28813.4416s-.31813.1712-.49882.171z"/><path d="m11.137 34.2208c-.0937 0-.1868-.0165-.2748-.0486-1.45995-.5251-2.78488-1.3681-3.87896-2.4681-1.92211-1.8743-3.0225-4.4343-3.05989-7.1186-.03739-2.6844.99127-5.2741 2.86043-7.2011 1.02753-1.0243 2.26898-1.8086 3.63532-2.2965 1.3663-.488 2.8237-.6676 4.2676-.526.213.0218.4087.1268.5445.2923.1358.1654.2007.3779.1804.591-.0202.2131-.1239.4095-.2884.5465-.1645.1369-.3765.2033-.5897.1846-1.1522-.1155-2.3158.0149-3.4139.3826-1.098.3677-2.10552.9642-2.95585 1.7503-.85034.786-1.52414 1.7436-1.97686 2.8094-.45271 1.0658-.67404 2.2156-.64933 3.3733.039 2.283.97034 4.46 2.59459 6.0649.92493.9314 2.04515 1.6459 3.27975 2.0919.1796.0646.3308.1905.4267.3556s.1305.3588.0976.5468c-.0328.1881-.131.3586-.2772.4814s-.331.1901-.522.19z"/><path d="m52.1664 48.5981h-13.1124c-.2151 0-.4213-.0855-.5734-.2375-.152-.1521-.2374-.3583-.2374-.5733 0-.2151.0854-.4213.2374-.5734.1521-.152.3583-.2375.5734-.2375h13.1124c.215 0 .4213.0855.5733.2375.1521.1521.2375.3583.2375.5734 0 .215-.0854.4212-.2375.5733-.152.152-.3583.2375-.5733.2375z"/><path d="m47.4541 39.2016h-27.1467c-.215 0-.4213-.0854-.5733-.2375-.1521-.1521-.2375-.3583-.2375-.5733 0-.2151.0854-.4213.2375-.5734.152-.152.3583-.2374.5733-.2374h27.1467c.2151 0 .4213.0854.5734.2374.152.1521.2374.3583.2374.5734 0 .215-.0854.4212-.2374.5733-.1521.1521-.3583.2375-.5734.2375z"/><path d="m42.741 29.7897h-19.7068c-.215 0-.4213-.0854-.5733-.2375-.1521-.152-.2375-.3583-.2375-.5733s.0854-.4213.2375-.5733c.152-.1521.3583-.2375.5733-.2375h19.7068c.215 0 .4212.0854.5733.2375.1521.152.2375.3583.2375.5733s-.0854.4213-.2375.5733c-.1521.1521-.3583.2375-.5733.2375z"/><path d="m28.979 43.5516c-.215 0-.4212-.0854-.5733-.2375-.1521-.152-.2375-.3583-.2375-.5733v-19.7076c0-.215.0854-.4213.2375-.5733.1521-.1521.3583-.2375.5733-.2375.2151 0 .4213.0854.5734.2375.152.152.2374.3583.2374.5733v19.7076c0 .215-.0854.4213-.2374.5733-.1521.1521-.3583.2375-.5734.2375z"/><path d="m38.3845 48.2624c-.1055.0001-.21-.0208-.3074-.0613s-.1858-.0998-.2602-.1746l-.0073-.0073c-.0754-.0754-.1352-.1649-.176-.2634-.0407-.0985-.0617-.2041-.0616-.3107l.0073-27.1386c0-.2151.0854-.4213.2375-.5734.1521-.152.3583-.2374.5733-.2374.2151 0 .4213.0854.5734.2374.152.1521.2375.3583.2375.5734l-.0073 27.0908c.0073.1109-.0083.2221-.0457.3267-.0375.1047-.096.2005-.172.2815-.0761.0811-.168.1457-.27.1897-.102.0441-.212.0667-.3232.0664z"/><path d="m47.7871 52.9773c-.215 0-.4212-.0855-.5733-.2375-.1521-.1521-.2375-.3583-.2375-.5733v-13.1125c0-.215.0854-.4212.2375-.5733s.3583-.2375.5733-.2375c.2151 0 .4213.0854.5734.2375.152.1521.2374.3583.2374.5733v13.1125c0 .215-.0854.4212-.2374.5733-.1521.152-.3583.2375-.5734.2375z"/></g></svg>