<svg width="58" height="58" viewBox="0 0 58 58" fill="none" xmlns="http://www.w3.org/2000/svg">
<path d="M56.1875 36.5H51.5V30.875C51.5009 28.686 51.0497 26.5205 50.1748 24.5141C49.2998 22.5076 48.0198 20.7035 46.4151 19.2148C47.6807 15.8281 51.1315 12.8715 51.168 12.8398C51.3143 12.7157 51.419 12.5496 51.4679 12.3641C51.5169 12.1786 51.5077 11.9825 51.4417 11.8024C51.3757 11.6222 51.256 11.4667 51.0988 11.3567C50.9415 11.2468 50.7543 11.1877 50.5625 11.1875C47.8519 11.1875 45.4955 11.7196 43.5195 12.7723C43.8924 12.1467 44.3059 11.5461 44.7573 10.9745C45.5579 9.95646 46.4481 9.01221 47.4174 8.15313C47.564 8.02911 47.6689 7.86306 47.7181 7.67746C47.7672 7.49185 47.7582 7.29562 47.6922 7.11531C47.6263 6.935 47.5065 6.77929 47.3492 6.66924C47.1918 6.55919 47.0045 6.5001 46.8125 6.49997C44.2783 6.49997 42.043 6.97188 40.1396 7.90141C39.8767 5.94122 38.9878 2.47692 35.9818 0.973991C35.8516 0.908892 35.708 0.875 35.5625 0.875C35.4169 0.875 35.2734 0.908892 35.1432 0.973991C32.1406 2.47528 31.25 5.9336 30.9862 7.89508C29.089 6.9679 26.8573 6.49997 24.3125 6.49997C24.1206 6.50009 23.9333 6.55909 23.776 6.66902C23.6187 6.77895 23.499 6.9345 23.4329 7.11467C23.3668 7.29484 23.3576 7.49095 23.4065 7.67651C23.4555 7.86208 23.5602 8.02815 23.7065 8.15231C24.6761 9.01144 25.5666 9.95581 26.3674 10.9741C26.8177 11.5442 27.2303 12.1431 27.6026 12.767C25.6305 11.718 23.2762 11.1875 20.5625 11.1875C20.3706 11.1876 20.1833 11.2466 20.026 11.3565C19.8687 11.4664 19.749 11.622 19.6829 11.8022C19.6168 11.9823 19.6076 12.1785 19.6565 12.364C19.7055 12.5496 19.8102 12.7157 19.9565 12.8398C19.9934 12.8711 23.444 15.8281 24.7099 19.2148C23.1052 20.7035 21.8252 22.5076 20.9502 24.5141C20.0752 26.5205 19.6241 28.686 19.625 30.875V30.9825C18.5906 31.1791 17.2217 31.6271 16.4907 32.1759C16.3868 32.2534 16.2776 32.3235 16.1638 32.3856C16.4108 30.1278 16.8479 27.8245 17.5925 26.7075C17.6627 26.6052 17.7118 26.4898 17.7371 26.3683C17.7623 26.2468 17.7632 26.1214 17.7397 25.9996C17.7161 25.8777 17.6686 25.7617 17.5998 25.6583C17.5311 25.555 17.4425 25.4663 17.3392 25.3974C17.2359 25.3286 17.12 25.2809 16.9981 25.2572C16.8763 25.2335 16.7509 25.2343 16.6294 25.2594C16.5078 25.2846 16.3925 25.3336 16.29 25.4037C16.1875 25.4737 16.1 25.5635 16.0325 25.6676C15.1825 26.9426 14.5853 29.2793 14.2558 32.6099C13.9411 32.5203 13.6456 32.3733 13.3843 32.1763C12.3955 31.4336 10.2383 30.875 9.32279 30.875C6.8717 30.875 4.66014 31.8743 3.09557 33.689C1.31233 35.7574 0.550606 38.6971 1.00565 41.7544L1.59158 45.6892C1.95557 48.1848 2.77014 50.5934 3.99557 52.7976C5.52615 55.5398 8.18209 57.1286 10.9917 57.1285C11.683 57.1279 12.3711 57.0326 13.0366 56.8454C13.0579 56.8394 13.0789 56.8327 13.0996 56.8252L14.6678 56.2642C14.8424 56.2011 15.0335 56.2011 15.2081 56.2642L16.7762 56.8252C16.7969 56.8327 16.818 56.8394 16.8392 56.8454C17.5048 57.0326 18.1928 57.1279 18.8842 57.1285C20.939 57.1285 22.9113 56.2776 24.4217 54.7481C27.5997 56.3005 31.0881 57.1131 34.625 57.125C40.4609 57.125 46.0995 54.9154 50.5039 50.9034C54.7115 47.0696 57.125 42.1615 57.125 37.4375C57.125 37.1888 57.0262 36.9504 56.8504 36.7746C56.6746 36.5987 56.4361 36.5 56.1875 36.5ZM31.6045 31.8007L35.5748 27.9453L39.5531 31.8074L35.5845 35.6562L31.6045 31.8007ZM33.7607 36.5H28.4006C28.2638 36.1171 28.1021 35.7436 27.9166 35.3819L30.2583 33.1077L33.7607 36.5ZM40.8987 33.114L44.3867 36.5H37.407L40.8987 33.114ZM36.9201 26.6384L40.887 22.786L44.8686 26.6532L40.8994 30.502L36.9201 26.6384ZM37.5764 16.9573C39.2988 17.2054 40.9597 17.7733 42.4734 18.6318L40.887 20.1724L37.5764 16.9573ZM39.5414 21.4792L35.5742 25.332L31.6092 21.4827L35.577 17.6295L39.5414 21.4792ZM30.2636 20.1757L28.6652 18.624C30.1855 17.7642 31.8536 17.1974 33.583 16.9531L30.2636 20.1757ZM30.2636 22.789L34.2289 26.6386L30.2571 30.4958L26.2872 26.6508L30.2636 22.789ZM28.9112 31.8025L26.8642 33.7906C26.836 33.7567 26.8082 33.7224 26.7794 33.689C25.5161 32.2145 23.7605 31.2486 21.8388 30.9708L24.9414 27.9577L28.9112 31.8025ZM28.2835 45.6892L28.8694 41.7544C29.0397 40.6345 29.041 39.4953 28.8734 38.375H51.3333C50.7928 41.4707 48.9623 44.572 46.2011 47.0174C42.9373 49.9081 38.8262 51.5 34.625 51.5C32.0701 51.4895 29.5498 50.9094 27.2474 49.8019C27.7294 48.4691 28.0765 47.0913 28.2836 45.6892H28.2835ZM48.0379 36.5L49.625 34.9629V36.5H48.0379ZM49.625 32.3528L46.2118 35.6583L42.2458 31.8081L46.2148 27.9595L49.625 31.2714V32.3528ZM49.4159 28.4546L47.5613 26.6536L48.6117 25.635C48.9782 26.544 49.2477 27.4891 49.4159 28.4546ZM47.7475 23.8608L46.2155 25.3464L42.233 21.4792L44.0755 19.69C45.5628 20.8244 46.8108 22.242 47.7475 23.8612V23.8608ZM48.0969 13.2418C47.0201 14.4286 45.7218 16.0979 44.9003 17.9675C44.0622 17.3593 43.1669 16.8341 42.2271 16.3994C42.2388 16.2534 42.2566 16.1074 42.2796 15.9613C43.7899 14.5156 45.7394 13.6047 48.0969 13.2421V13.2418ZM44.3458 8.55426C42.8235 10.2325 40.8589 12.8746 40.424 15.6958C39.3208 15.3416 38.182 15.1098 37.0281 15.0044C36.9182 14.663 36.7775 14.2768 36.5988 13.8618C37.7499 11.6572 39.9922 9.2268 44.3458 8.5552V8.55426ZM35.5625 2.89141C37.8857 4.40489 38.2901 7.87575 38.3603 8.97344C37.2573 9.78313 36.309 10.7849 35.5611 11.9307C35.1309 11.273 34.6351 10.6608 34.0811 10.1035C33.6718 9.69302 33.2318 9.31438 32.7649 8.97087C32.8354 7.87048 33.241 4.40372 35.5625 2.89141ZM26.7805 8.55661C31.9747 9.36286 34.1377 12.6774 35.0201 14.9477C33.5527 14.9962 32.0991 15.2483 30.701 15.6967C30.6717 15.5064 30.6356 15.3171 30.5927 15.1287L30.6257 15.0981C30.6086 15.0796 30.5906 15.0618 30.5737 15.0435C29.9646 12.472 28.1844 10.1047 26.7805 8.55661ZM23.0276 13.2416C25.3878 13.6039 27.3357 14.5159 28.8458 15.9636C28.8685 16.1089 28.8864 16.2544 28.8979 16.3997C27.958 16.8344 27.0627 17.3596 26.2246 17.9678C25.403 16.0976 24.1045 14.4285 23.0276 13.2416ZM27.0617 19.6807L28.918 21.4827L24.9399 25.3458L23.3883 23.843C24.3263 22.2269 25.5748 20.8124 27.0617 19.6807ZM22.5219 25.6142L23.594 26.6527L21.7034 28.4886C21.8725 27.5039 22.1469 26.5402 22.5219 25.6142ZM24.2422 51.8838C23.0538 54.0136 21.0117 55.25 18.8672 55.25C18.363 55.2496 17.8611 55.1817 17.375 55.0479L15.8398 54.4988C15.2567 54.2907 14.6195 54.2907 14.0363 54.4988L12.5 55.0483C9.85154 55.7738 7.09553 54.5052 5.63279 51.8842C4.51784 49.8777 3.77693 47.6852 3.44619 45.4136L2.86026 41.4789C2.48526 38.9615 3.089 36.5688 4.51576 34.9138C5.11058 34.2242 5.84913 33.6732 6.67956 33.2994C7.50999 32.9255 8.41218 32.738 9.32279 32.75C9.91834 32.75 11.6595 33.2256 12.2587 33.6757C12.8034 34.0865 13.4347 34.3676 14.1044 34.4976C14.0582 35.2438 14.0324 35.8997 14.018 36.402C13.2078 36.2201 12.7993 35.8478 12.7771 35.827L12.7874 35.8372C12.7005 35.7493 12.5971 35.6795 12.4831 35.6318C12.3691 35.584 12.2468 35.5593 12.1232 35.559C11.9996 35.5587 11.8772 35.5829 11.7629 35.6301C11.6487 35.6773 11.545 35.7466 11.4576 35.834C11.3703 35.9215 11.3011 36.0253 11.2541 36.1396C11.207 36.2539 11.183 36.3764 11.1835 36.4999C11.1839 36.6235 11.2088 36.7458 11.2567 36.8598C11.3046 36.9737 11.3745 37.077 11.4625 37.1638C11.5883 37.289 12.7395 38.375 14.9375 38.375C17.1373 38.375 18.289 37.2869 18.4129 37.1629C18.5 37.0758 18.569 36.9725 18.6161 36.8587C18.6633 36.745 18.6875 36.6231 18.6875 36.5C18.6875 36.3769 18.6633 36.2549 18.6161 36.1412C18.569 36.0274 18.5 35.9241 18.4129 35.837C18.3259 35.75 18.2225 35.6809 18.1088 35.6338C17.995 35.5867 17.8731 35.5624 17.75 35.5624C17.6269 35.5624 17.505 35.5867 17.3912 35.6338C17.2775 35.6809 17.1741 35.75 17.0871 35.837C17.0821 35.842 16.6817 36.2059 15.8917 36.3924C15.908 35.826 15.9377 35.1629 15.9847 34.4508C16.5754 34.3054 17.1304 34.0416 17.6162 33.6754C18.2153 33.2256 19.9565 32.7496 20.5521 32.7496C21.4626 32.7376 22.3648 32.925 23.1953 33.2988C24.0257 33.6725 24.7643 34.2235 25.3592 34.913C26.786 36.5678 27.3894 38.9607 27.0147 41.4781L26.4288 45.4128C26.098 47.6845 25.3571 49.8771 24.2422 51.8838ZM49.2406 49.5173C45.1828 53.2141 39.9922 55.25 34.625 55.25C31.5121 55.2391 28.4385 54.553 25.6165 53.2389C25.7074 53.0951 25.7956 52.9484 25.8797 52.7976C26.1105 52.3843 26.3264 51.9635 26.5277 51.5352C29.0587 52.7362 31.8235 53.3643 34.625 53.375C39.2846 53.375 43.8372 51.6156 47.4444 48.421C50.6143 45.6135 52.6886 41.9945 53.2319 38.375H55.214C54.9159 42.2835 52.7762 46.2968 49.2406 49.5173Z" fill="black"/>
<path d="M46.8125 42.125C47.3303 42.125 47.75 41.7053 47.75 41.1875C47.75 40.6697 47.3303 40.25 46.8125 40.25C46.2947 40.25 45.875 40.6697 45.875 41.1875C45.875 41.7053 46.2947 42.125 46.8125 42.125Z" fill="black"/>
<path d="M42.125 46.8125C42.6428 46.8125 43.0625 46.3928 43.0625 45.875C43.0625 45.3572 42.6428 44.9375 42.125 44.9375C41.6072 44.9375 41.1875 45.3572 41.1875 45.875C41.1875 46.3928 41.6072 46.8125 42.125 46.8125Z" fill="black"/>
<path d="M37.4375 44C37.9553 44 38.375 43.5803 38.375 43.0625C38.375 42.5447 37.9553 42.125 37.4375 42.125C36.9197 42.125 36.5 42.5447 36.5 43.0625C36.5 43.5803 36.9197 44 37.4375 44Z" fill="black"/>
<path d="M31.8125 44C32.3303 44 32.75 43.5803 32.75 43.0625C32.75 42.5447 32.3303 42.125 31.8125 42.125C31.2947 42.125 30.875 42.5447 30.875 43.0625C30.875 43.5803 31.2947 44 31.8125 44Z" fill="black"/>
<path d="M34.625 49.625C35.1428 49.625 35.5625 49.2053 35.5625 48.6875C35.5625 48.1697 35.1428 47.75 34.625 47.75C34.1072 47.75 33.6875 48.1697 33.6875 48.6875C33.6875 49.2053 34.1072 49.625 34.625 49.625Z" fill="black"/>
</svg>
