<svg width="60" height="60" viewBox="0 0 60 60" fill="none" xmlns="http://www.w3.org/2000/svg">
<path d="M56.9796 42.8906L58.748 41.1223C59.4935 40.3768 59.9595 39.3838 59.9973 38.3302C60.0577 36.6497 59.0954 35.1825 57.6852 34.5033L58.6957 33.3855C59.5371 32.4551 60.0012 31.2527 60 30C60.0012 28.7473 59.5371 27.5438 58.6957 26.6133L55.5633 23.1504L56.5442 18.5848C57.088 16.043 55.6243 13.5171 53.1586 12.7195L48.7136 11.2863L47.2805 6.84141C46.4736 4.34777 43.9253 2.91598 41.4152 3.45586L36.8496 4.43672L33.3867 1.3043C32.4563 0.462891 31.2239 0 30 0C28.7484 0 27.5426 0.462891 26.6145 1.3043L23.1504 4.43672L18.5848 3.45586C16.086 2.91551 13.5284 4.34098 12.7195 6.84141L11.2863 11.2863L6.84142 12.7195C4.36361 13.521 2.91376 16.0532 3.45587 18.5848L4.43673 23.1504L1.30431 26.6133C0.462903 27.5438 -0.00115958 28.7461 1.22909e-05 30C1.22909e-05 31.2388 0.411926 32.11 0.826067 32.7648C1.084 33.1727 1.62786 33.2882 2.0345 33.028C2.43517 32.7716 2.56068 32.2405 2.3106 31.8359C2.00216 31.337 1.75782 30.7898 1.75782 30C1.759 29.182 2.06017 28.398 2.60743 27.7934L6.0422 23.9953C6.23204 23.7867 6.30939 23.4973 6.24962 23.2219L5.17384 18.2156C4.81958 16.5701 5.75638 14.9148 7.38048 14.393L12.2543 12.8215C12.5227 12.7348 12.7348 12.5227 12.8215 12.2543L14.393 7.38047C14.9131 5.76188 16.5648 4.81852 18.2145 5.17383L23.2207 6.24961C23.4949 6.3082 23.7879 6.22969 23.9953 6.04219L27.7934 2.60742C28.3981 2.06016 29.182 1.75898 30 1.75781C30.818 1.75898 31.6008 2.06016 32.2066 2.60742L36.0047 6.04219C36.2121 6.22969 36.5039 6.3082 36.7781 6.24961L41.7844 5.17383C43.4332 4.82063 45.0854 5.75836 45.607 7.38164L47.1785 12.2543C47.2652 12.5227 47.4774 12.7348 47.7457 12.8215L52.6184 14.393C54.2632 14.9215 55.1796 16.5982 54.825 18.2156L53.7504 23.2207C53.6906 23.4973 53.7679 23.7867 53.9578 23.9953L57.3927 27.7934C57.94 28.3992 58.2411 29.182 58.2423 30C58.2411 30.8168 57.94 31.6008 57.3927 32.2066L55.6783 34.1016H52.4214C52.6669 32.752 52.793 31.3772 52.793 30C52.793 17.4319 42.5681 7.20703 30 7.20703C17.4319 7.20703 7.20704 17.4319 7.20704 30C7.20704 31.3772 7.33314 32.752 7.57865 34.1016H4.16029C1.924 34.1016 0.0418482 35.8673 0.000715416 38.1033C-0.0199096 39.2216 0.406067 40.2763 1.19474 41.0648L3.02052 42.8906L1.24923 44.6618C0.475442 45.4356 0.00798104 46.4766 0.000129478 47.5709C-0.0161596 49.8336 1.81993 51.6797 4.07907 51.6797H12.2428L12.7197 53.1585C13.5185 55.6356 16.0401 57.0913 18.5843 56.5445L23.1503 55.5635L26.614 58.6961C27.5793 59.569 28.7895 60 30 60C31.2047 60 32.421 59.5688 33.386 58.6959L36.8506 55.5628L41.4156 56.5444C43.9584 57.0909 46.4811 55.6365 47.2804 53.1584L47.7572 51.6797H50.2538C50.7349 51.6797 51.1547 51.3089 51.1691 50.8279C51.184 50.33 50.7851 49.9219 50.2906 49.9219H4.07907C2.01165 49.9219 0.985442 47.4117 2.43775 45.9593L4.88497 43.5121C5.22798 43.1692 5.22822 42.6123 4.88497 42.2692L2.43775 39.822C0.986497 38.3708 2.00978 35.8594 4.07907 35.8594H55.9211C57.9885 35.8594 59.0147 38.3696 57.5624 39.822L55.138 42.2463C54.814 42.5707 54.7672 43.164 55.1342 43.5309L57.5625 45.9593C59.0135 47.4105 57.9902 49.9219 55.9209 49.9219H53.8576C53.3765 49.9219 52.9567 50.2927 52.9423 50.7737C52.9274 51.2715 53.3263 51.6797 53.8208 51.6797H55.8397C58.0761 51.6797 59.9583 49.9137 59.9993 47.6776C60.0198 46.5593 59.594 45.5048 58.8054 44.7163L56.9796 42.8906ZM45.9103 51.6797L45.6075 52.6189C45.0868 54.2334 43.4436 55.1825 41.785 54.8259L36.7799 53.7497C36.5033 53.6903 36.2153 53.7674 36.0056 53.9571L32.207 57.3922C30.9489 58.5301 29.0513 58.5301 27.7931 57.3922L23.9956 53.9577C23.7859 53.7681 23.4975 53.691 23.2214 53.7503L18.2152 54.8258C16.5568 55.1822 14.9134 54.2334 14.3927 52.6189L14.0898 51.6797H45.9103ZM30.2093 34.1016H28.6594C28.2553 32.2093 26.5751 30.786 24.569 30.786H23.5419C18.3961 30.786 14.9657 25.7541 15.5302 20.7662C15.6642 19.5831 16.6178 18.6272 17.7977 18.493C21.9775 18.0176 25.896 20.2623 27.6066 24.0882V26.645C25.5118 23.8582 22.5605 21.7847 19.1741 20.7874C18.7086 20.6503 18.2199 20.9166 18.0827 21.3823C17.9456 21.8479 18.2119 22.3365 18.6776 22.4736C22.393 23.5679 25.7174 26.1465 27.6973 30.1613C28.0105 30.8005 28.9219 30.822 29.2592 30.1909C31.7305 25.6853 35.7847 22.357 40.6757 20.8193C41.1387 20.6736 41.396 20.1803 41.2504 19.7173C41.1048 19.2541 40.6117 18.997 40.1483 19.1425C35.7977 20.5104 32.0557 23.1796 29.3645 26.7852V24.0529C31.0043 19.3671 35.7427 16.383 40.6881 16.9451C42.0425 17.0989 43.1371 18.1963 43.2908 19.5543C43.9198 25.1111 40.0971 30.7862 34.2997 30.7862C32.2934 30.786 30.6133 32.2093 30.2093 34.1016ZM50.6332 34.1016H32.0398C32.3917 33.1916 33.2707 32.5438 34.2995 32.5438C41.1579 32.5438 45.7846 25.959 45.0372 19.3563C44.7922 17.1925 43.0466 15.4438 40.8863 15.1983C38.0318 14.8739 35.1334 15.5496 32.7264 17.1013C30.8883 18.2863 29.3934 19.9406 28.3956 21.8671C27.4427 20.3933 26.1489 19.14 24.6342 18.2441C22.5028 16.9835 20.0704 16.4657 17.599 16.7463C15.6134 16.972 14.0086 18.5795 13.7834 20.5684C13.1023 26.5863 17.3242 32.5437 23.5417 32.5437H24.5687C25.5976 32.5437 26.4767 33.1915 26.8287 34.1014H9.36693C9.10079 32.7552 8.96486 31.3788 8.96486 29.9999C8.96486 18.401 18.4011 8.96473 30 8.96473C41.5989 8.96473 51.0352 18.4011 51.0352 30C51.0352 31.3789 50.8993 32.7553 50.6332 34.1016Z" fill="black"/>
<path d="M37.2358 38.3665L33.9814 46.9114C33.8086 47.3651 34.0363 47.8729 34.4898 48.0456C34.9426 48.2182 35.451 47.9913 35.624 47.5371L36.2189 45.975H40.2346L40.8231 47.5345C40.9945 47.9886 41.5014 48.2181 41.9558 48.0465C42.4099 47.8752 42.6392 47.368 42.4677 46.9139L39.2429 38.3686C38.8982 37.4517 37.5844 37.4471 37.2358 38.3665ZM36.8884 44.2172L38.236 40.6789L39.5712 44.2172H36.8884Z" fill="black"/>
<path d="M51.1019 37.6782C51.0991 37.6782 51.0961 37.6782 51.0932 37.6782C50.6078 37.6829 50.2182 38.0802 50.2229 38.5656L50.2804 44.5146L45.8325 38.0738C45.3448 37.3673 44.2305 37.7129 44.2305 38.5733V47.2242C44.2305 47.7096 44.624 48.1031 45.1094 48.1031C45.5948 48.1031 45.9883 47.7096 45.9883 47.2242V41.3927L50.2355 47.5428C50.8197 48.3868 52.0618 48.0171 52.0616 46.9235L51.9807 38.5486C51.9759 38.0661 51.5833 37.6782 51.1019 37.6782Z" fill="black"/>
<path d="M28.2718 39.4483C29.0763 39.3828 29.8465 39.5937 30.4852 40.0252C30.8875 40.297 31.4337 40.191 31.7055 39.7888C31.9772 39.3867 31.8714 38.8402 31.4691 38.5686C28.0312 36.2463 23.3418 38.712 23.3418 42.8903C23.3418 45.9847 26.0345 48.3861 29.061 48.0771C31.5074 47.8272 33.1741 45.7648 33.1741 42.8903C33.1741 42.4049 32.7806 42.0114 32.2952 42.0114H29.7024C29.217 42.0114 28.8235 42.4049 28.8235 42.8903C28.8235 43.3757 29.217 43.7692 29.7024 43.7692H31.3389C31.0453 45.4031 29.9977 46.4534 28.3111 46.3354C26.5193 46.2101 25.0995 44.7133 25.0995 42.8903C25.0997 41.0808 26.4987 39.5927 28.2718 39.4483Z" fill="black"/>
<path d="M20.8796 39.4756C21.365 39.4756 21.7585 39.0821 21.7585 38.5967C21.7585 38.1113 21.365 37.7178 20.8796 37.7178H17.261C16.7756 37.7178 16.3821 38.1113 16.3821 38.5967V47.1845C16.3821 47.6699 16.7756 48.0634 17.261 48.0634H20.8796C21.365 48.0634 21.7585 47.6699 21.7585 47.1845C21.7585 46.6991 21.365 46.3056 20.8796 46.3056H18.1399V43.7696H20.6128C21.0982 43.7696 21.4917 43.3761 21.4917 42.8907C21.4917 42.4053 21.0982 42.0118 20.6128 42.0118H18.1399V39.4756H20.8796Z" fill="black"/>
<path d="M12.9133 38.2053L10.6702 44.6045L8.47636 38.2206C8.31863 37.7616 7.81859 37.5174 7.35957 37.6751C6.90054 37.8328 6.65632 38.3329 6.81406 38.7919L9.83082 47.5707C9.95246 47.9247 10.2849 48.1628 10.6593 48.1639H10.662C11.0353 48.1639 11.368 47.9281 11.4915 47.5757L14.5722 38.7866C14.7328 38.3286 14.4916 37.8271 14.0335 37.6664C13.5752 37.5058 13.0739 37.7472 12.9133 38.2053Z" fill="black"/>
</svg>
