<svg fill="none" height="20" viewBox="0 0 20 20" width="20" xmlns="http://www.w3.org/2000/svg"><g fill="#fabb00"><path d="m12.4183 3.49c-.4761-.08794-.9133.21586-1.0039.68054s.2141.91837.6772 1.0093c1.3943.27182 2.4708 1.35108 2.7437 2.75011v.001c.0777.40273.4322.69553.8406.69553.0547 0 .1095-.005.1653-.01499.4631-.09294.7678-.54563.6772-1.01131-.4073-2.08956-2.0157-3.70346-4.1001-4.11018z"/><path d="m12.356.00792976c-.223-.03197806-.4471.03397664-.6254.17587924-.1832.143901-.2978.351758-.3227.584599-.0527.470672.2869.896382.7569.949352 3.2417.36175 5.7613 2.88701 6.1258 6.13878.0488.4357.4143.76447.8505.76447.0329 0 .0647-.00199.0976-.00599.2281-.02498.4312-.13791.5746-.31778.1425-.17988.2072-.40373.1813-.63257-.4541-4.05721-3.5942-7.20605-7.6386-7.65674024z"/><path clip-rule="evenodd" d="m9.03174 10.9724c3.98906 3.988 4.89406-.6257 7.43386 1.9124 2.4487 2.448 3.856 2.9384.7536 6.0399-.3886.3123-2.8576 4.0696-11.5346-4.605-8.67808-8.6757-4.923015-11.14726-4.61063-11.53575 3.1099-3.110104 3.59189-1.69457 6.04052.75338 2.53987 2.53917-2.07183 3.44708 1.91725 7.43507z" fill-rule="evenodd"/></g></svg>