<svg fill="none" height="40" viewBox="0 0 36 40" width="36" xmlns="http://www.w3.org/2000/svg"><g fill="#000"><path d="m14.4272 11.4393c-.7744-1.51108-1.2116-3.17217-1.2815-4.86863.5976-.21167 1.0637-.75659 1.0916-1.41917.0122-.32706-.0758-.65002-.2523-.92566-.1764-.27564-.4329-.4908-.735-.61667v-2.76092c0-.4595-.4128-.84825-.8723-.84825h-7.83512c-.45925 0-.79258.38875-.79258.84825v2.77092c-.3048.11216-.56738.31597-.75166.58341-.18427.26745-.28118.58541-.27742.91017s.10802.64038.29844.90349.45765.46078.76497.56584c-.07322 1.69289-.51195 3.34987-1.28608 4.85722l-1.08533 2.1209c-.927837 1.8379-1.41292 3.775-1.41292 5.7575v17.6674c.00578433.7994.32655 1.5643.892705 2.1287s1.332025.8829 2.131465.8862h10.87203c.799-.0035 1.5644-.3221 2.13-.8866.5655-.5644.8855-1.3293.8905-2.1283v-17.6674c0-1.9826-.4807-3.9197-1.4084-5.7575zm-9.6772-10.4393h7.5v2.5h-7.5zm11.1667 35.9851c-.0047.5339-.2192 1.0445-.5973 1.4216-.3781.377-.8893.5901-1.4232.5933h-10.87203c-.53431-.003-1.04601-.216-1.42469-.593-.37869-.3769-.594-.8876-.59948-1.4219v-15.9038c.08333.0211.14425.043.211.0654.61865.2255 1.27366.3347 1.932.3219.65734.0128 1.31136-.0963 1.92892-.3219.51436-.1922 1.06088-.2839 1.60983-.2699.54868-.014 1.09493.0777 1.609.2699.61662.2257 1.26978.3348 1.92625.3219.6565.0129 1.3096-.0962 1.9262-.3219.5139-.1922 1.0599-.2839 1.6084-.2699.5519-.0138 1.1013.0778 1.6188.2699.1776.0686.3602.1234.5463.1638zm0-16.7151c-.0834-.0231-.1554-.047-.2284-.0715-.6184-.2255-1.2731-.3346-1.9312-.3217-.6572-.0129-1.3112.0962-1.9286.3217-.5144.1923-1.0609.284-1.6098.2701-.54869.0139-1.09491-.0778-1.60895-.2701-.6166-.2256-1.26973-.3347-1.92617-.3217-.65641-.013-1.30951.0961-1.92608.3217-.51383.1923-1.05986.284-1.60833.2701-.55239.0137-1.10234-.078-1.62042-.2701-.17156-.0675-.34842-.1207-.52875-.159v-.7218c0-1.8245.44642-3.61 1.303-5.3069l1.07675-2.1209c.83219-1.6215 1.30674-3.40264 1.39158-5.22323h.47867c.13261 0 .25978-.05268.35355-.14645s.14645-.22094.14645-.35355-.05268-.25979-.14645-.35356c-.09377-.09376-.22094-.14644-.35355-.14644h-.9435c-.1433.00226-.28265-.04696-.39275-.13871-.11009-.09174-.18363-.21994-.20725-.36129-.0119-.0824-.00602-.16638.01724-.24631.02325-.07994.06335-.15396.11759-.21712.05424-.06315.12136-.11396.19687-.14901.07551-.03506.15764-.05355.24088-.05423h8.33492c.1432-.00219.2825.04706.3925.13881.11.09174.1834.2199.207.36119.0119.08239.006.16638-.0172.24631-.0233.07993-.0634.15396-.1176.21711-.0543.06315-.1214.11397-.1969.14902-.0755.03506-.1576.05355-.2409.05423h-4.05757c-.13261 0-.25978.05268-.35355.14644-.09377.09377-.14645.22095-.14645.35356s.05268.25978.14645.35355.22094.14645.35355.14645h3.56577c.0826 1.82018.5551 3.60143 1.3855 5.22323l1.0809 2.1209c.8566 1.6968 1.3012 3.4823 1.3012 5.3069z"/><path d="m3.16666 29.0342c-.13261 0-.25979.0527-.35356.1464-.09376.0938-.14644.221-.14644.3536v5.2491c0 .1327.05268.2598.14644.3536.09377.0938.22095.1464.35356.1464.1326 0 .25978-.0526.35355-.1464s.14645-.2209.14645-.3536v-5.2491c0-.1326-.05268-.2598-.14645-.3536-.09377-.0937-.22095-.1464-.35355-.1464z"/><path d="m3.16666 25.3895c-.13261 0-.25979.0527-.35356.1465-.09376.0937-.14644.2209-.14644.3535v1.8012c0 .1326.05268.2598.14644.3535.09377.0938.22095.1465.35356.1465.1326 0 .25978-.0527.35355-.1465.09377-.0937.14645-.2209.14645-.3535v-1.8012c0-.1326-.05268-.2598-.14645-.3535-.09377-.0938-.22095-.1465-.35355-.1465z"/><path d="m3.16666 23.1233c-.13261 0-.25979.0527-.35356.1464-.09376.0938-.14644.221-.14644.3536v.4006c0 .1326.05268.2598.14644.3535.09377.0938.22095.1465.35356.1465.1326 0 .25978-.0527.35355-.1465.09377-.0937.14645-.2209.14645-.3535v-.4006c0-.1326-.05268-.2598-.14645-.3536-.09377-.0937-.22095-.1464-.35355-.1464z"/><path d="m35.3092 20.5834h-13.1c-.0703.0006-.1397.016-.2038.045-.064.0291-.1213.0712-.1681.1236-.0468.0525-.0821.1142-.1037.1811-.0216.067-.0289.1377-.0216.2076l1.8354 17.2123c.047.4511.2591.8689.5956 1.173.3364.304.7735.4729 1.227.474h6.7779c.4536-.0008.8907-.1695 1.2273-.4735.3366-.3039.5488-.7217.5957-1.1728l1.8355-17.2078c.0075-.0704.0002-.1416-.0213-.209s-.0568-.1296-.1037-.1827c-.0466-.0529-.1039-.0955-.168-.1249s-.1337-.0451-.2042-.0459zm-2.3326 17.6642c-.0212.2055-.1174.3959-.2704.5348-.1529.1388-.3517.2163-.5583.2176h-6.7779c-.2065-.0012-.4053-.0787-.5583-.2176-.1529-.1389-.2491-.3293-.2703-.5348l-1.0593-9.9333c.0613.0187.1215.0369.184.0578.898.3077 1.873.3072 2.7708-.0014.6917-.2394 1.4438-.2394 2.1355 0 .8979.3084 1.873.3084 2.7709 0 .6918-.2393 1.444-.2393 2.1359 0 .1746.0629.353.1148.5342.1554zm1.1436-10.7294c-.1127-.0286-.2149-.0609-.3234-.0972-.8981-.3079-1.8732-.3075-2.771.001-.6918.2395-1.444.2395-2.1358 0-.8978-.3083-1.8729-.3083-2.7708 0-.6917.2395-1.4438.2395-2.1355 0-.2002-.0721-.4055-.129-.6143-.1701l-.6045-5.6685h11.9881z"/></g></svg>