<svg height="479pt" viewBox="-39 0 479 479.99581" width="479pt" xmlns="http://www.w3.org/2000/svg"><path d="m400.496094 239.996094h-32v-8c-.023438-19-13.386719-35.371094-32-39.199219v-.800781c-.023438-25.191406-19.523438-46.078125-44.652344-47.832032 33.75-43.417968 2.839844-109.257812-20.945312-140.96875-2.28125-3.039062-6.386719-4.050781-9.820313-2.425781s-5.25 5.441407-4.347656 9.128907c1.058593 5.542968 1.15625 11.226562.289062 16.800781v.082031c-.9375 6.5-3.535156 12.644531-7.546875 17.847656-10.125 12.863282-29.285156 19.367188-56.976562 19.367188-29.597656 0-51.664063 8.574218-65.542969 25.503906-11.699219 15.652344-17.191406 35.082031-15.40625 54.542969-26.121094.519531-47.027344 21.828125-47.050781 47.953125v.800781c-18.609375 3.828125-31.972656 20.199219-32 39.199219v8h-32v88c.070312 53.929687 36.042968 101.214844 88 115.671875v36.328125h224v-36.328125c51.960937-14.457031 87.933594-61.742188 88-115.671875zm-261.101563-140.433594c10.703125-12.984375 28.566407-19.566406 53.101563-19.566406 32.960937 0 56.402344-8.617188 69.671875-25.601563.417969-.535156.746093-1.09375 1.136719-1.640625 2.074218 14.320313 2.007812 30.402344-5.023438 40.449219-6.183594 7.773437-15.910156 11.84375-25.785156 10.792969v16c15.121094 1.164062 29.789062-5.472656 38.890625-17.601563 10.351562-14.789062 10.136719-35.941406 7.535156-52.964843 12.96875 29.238281 21.910156 69.335937-9.175781 94.589843h-142.152344c-1.691406-15.765625 2.511719-31.601562 11.800781-44.457031zm-26.898437 60.433594h176c17.675781 0 32 14.328125 32 32h-240c0-17.671875 14.328125-32 32-32zm-64 72c0-13.253906 10.746094-24 24-24h256c13.257812 0 24 10.746094 24 24v8h-304zm104 24h16v88c0 4.417968-3.578125 8-8 8-4.417969 0-8-3.582032-8-8zm-64 0h16v56c0 4.417968-3.578125 8-8 8-4.417969 0-8-3.582032-8-8zm296 72c-.0625 57.410156-46.589844 103.933594-104 104v16h16v16h-192v-16h96v-16h-80c-57.410156-.066406-103.933594-46.589844-104-104v-72h56v56c0 13.253906 10.746094 24 24 24 13.257812 0 24-10.746094 24-24v-56h16v88c0 13.253906 10.746094 24 24 24 13.257812 0 24-10.746094 24-24v-88h200zm0 0"/><path d="m248.496094 431.996094h16v16h-16zm0 0"/><path d="m200.496094 103.996094h16v16h-16zm0 0"/><path d="m24.496094 447.996094h16v16h-16zm0 0"/><path d="m336.496094 455.996094h16v16h-16zm0 0"/><path d="m376.496094 431.996094h16v16h-16zm0 0"/></svg>