<svg fill="none" height="37" viewBox="0 0 40 37" width="40" xmlns="http://www.w3.org/2000/svg"><g fill="#000"><path d="m39.9966 13.0713-.0108-.5338-.5321-.046c-1.3503-.1167-2.4542-1.1308-2.6845-2.4662l-.1118-.64796-.6334.17672c-.3314.0925-.6726.13938-1.0142.13938-2.0757 0-3.7645-1.68883-3.7645-3.76453 0-.24938.0249-.49985.0739-.74446l.1142-.56992-.5672-.12664c-1.3535-.30211-2.3359-1.52914-2.3359-2.91758 0-.25429.032-.50703.0951-.751013l.1719-.664766-.6826-.0744529c-.4876-.053125-.9798-.0800781-1.463-.0800781-6.2446 0-11.5007 4.31062-12.9507 10.1124-.1173-.003-.2348-.0047-.3529-.0047-7.36013-.0001-13.3481 5.9878-13.3481 13.3481 0 7.3601 5.98797 13.3482 13.3482 13.3482 6.2447 0 11.5007-4.3106 12.9507-10.1124.1173.0031.2349.0046.3529.0046 7.3602 0 13.3482-5.9879 13.3482-13.3482 0-.0925-.0016-.1846-.0034-.2767zm-26.6484 22.5446c-6.70508 0-12.16007-5.455-12.16007-12.1601s5.45499-12.1601 12.16007-12.1601c6.7051 0 12.1601 5.455 12.1601 12.1601s-5.455 12.1601-12.1601 12.1601zm13.3036-10.1078c-.0378 0-.0752-.0011-.113-.0014.1035-.6687.1576-1.3536.1576-2.0509 0-6.8333-5.1615-12.4828-11.7903-13.2568 1.3909-5.18338 6.1294-9.01103 11.7457-9.01103.2336 0 .4695.00687.7061.0207-.0104.12008-.0156.24078-.0156.36164 0 1.7536 1.1218 3.32297 2.7344 3.92039-.0129.14586-.0194.29211-.0194.43821 0 2.73093 2.2218 4.95269 4.9527 4.95269.2469 0 .4935-.0186.7379-.0555.4596 1.3933 1.6256 2.449 3.0616 2.7662-.1303 6.5931-5.534 11.9158-12.1577 11.9158z"/><path d="m25.039 4.42029c-.9892 0-1.794.80476-1.794 1.79398s.8048 1.79399 1.794 1.79399 1.794-.80477 1.794-1.79399-.8049-1.79398-1.794-1.79398zm0 2.39984c-.334 0-.6059-.2718-.6059-.60586s.2718-.60586.6059-.60586c.334 0 .6058.2718.6058.60586s-.2718.60586-.6058.60586z"/><path d="m17.9578 6.86182c-.2073.27609-.4041.56539-.5848.85953l1.0122.62195c.1616-.26289.3375-.52133.5227-.76805z"/><path d="m22.8116 3.16663c-1.5686.61461-3.0026 1.59836-4.1472 2.84492l.8752.80359c1.023-1.11414 2.3043-1.99328 3.7054-2.54226z"/><path d="m35.7383 16.8569c-.3142.7754-.727 1.5106-1.227 2.1852l.9546.7074c.5596-.7551 1.0217-1.5781 1.3735-2.4463z"/><path d="m30.3208 17.6121c-.9892 0-1.7939.8047-1.7939 1.7939 0 .9893.8047 1.794 1.7939 1.794.9893 0 1.794-.8048 1.794-1.794s-.8047-1.7939-1.794-1.7939zm0 2.3998c-.334 0-.6058-.2719-.6058-.6059s.2718-.6058.6058-.6058c.3341 0 .6059.2718.6059.6058 0 .3342-.2717.6059-.6059.6059z"/><path d="m26.6518 9.91272c-.9892 0-1.794.80488-1.794 1.79398 0 .9892.8048 1.794 1.794 1.794s1.794-.8048 1.794-1.794c0-.9891-.8048-1.79398-1.794-1.79398zm0 2.39988c-.3341 0-.6059-.2718-.6059-.6058 0-.3341.2718-.6059.6059-.6059s.6059.2719.6059.6059-.2718.6058-.6059.6058z"/><path d="m33.2559 12.4099c-1.2261 0-2.2236.9975-2.2236 2.2236s.9975 2.2236 2.2236 2.2236 2.2236-.9976 2.2236-2.2236c0-1.2261-.9975-2.2236-2.2236-2.2236zm0 3.2591c-.571 0-1.0354-.4645-1.0354-1.0355 0-.5709.4644-1.0355 1.0354-1.0355.5709 0 1.0354.4645 1.0354 1.0355 0 .5709-.4644 1.0355-1.0354 1.0355z"/><path d="m14.1311 12.9551c-.9892 0-1.794.8048-1.794 1.794 0 .9891.8048 1.7939 1.794 1.7939s1.794-.8047 1.794-1.7939c0-.9893-.8048-1.794-1.794-1.794zm0 2.3998c-.334 0-.6058-.2718-.6058-.6058 0-.3341.2718-.6059.6058-.6059.3341 0 .6059.2719.6059.6059 0 .3339-.2718.6058-.6059.6058z"/><path d="m4.43039 16.9205c-.20757.2765-.40437.5657-.58484.8596l1.01234.6218c.16125-.2625.33711-.521.52258-.768z"/><path d="m9.28423 13.2253c-1.56844.6146-3.0025 1.5983-4.14719 2.845l.87516.8036c1.02304-1.1142 2.30437-1.9933 3.70539-2.5422z"/><path d="m22.477 27.0552c-.3142.7751-.7268 1.5103-1.2269 2.1851l.9546.7074c.5597-.7553 1.0218-1.5783 1.3734-2.4464z"/><path d="m4.95266 28.0898-1.03985.5749c.52352.9469 1.18156 1.8121 1.95594 2.5718l.83203-.8481c-.69227-.6792-1.28031-1.4525-1.74812-2.2986z"/><path d="m4.10672 26.0588-1.14508.3168c.11891.4296.26516.8561.43492 1.2678l1.09836-.4528c-.15148-.3675-.28211-.7482-.3882-1.1318z"/><path d="m17.0173 27.7197c-.9893 0-1.794.8049-1.794 1.794 0 .9892.8048 1.794 1.794 1.794s1.794-.8048 1.794-1.794-.8049-1.794-1.794-1.794zm0 2.3999c-.3341 0-.6059-.2718-.6059-.6059s.2719-.6058.6059-.6058.6058.2718.6058.6058c0 .3341-.2718.6059-.6058.6059z"/><path d="m5.14587 20.4619c-.98922 0-1.79399.8048-1.79399 1.794s.80485 1.794 1.79399 1.794 1.79398-.8049 1.79398-1.794c-.00008-.9892-.80476-1.794-1.79398-1.794zm0 2.3999c-.33407 0-.60586-.2719-.60586-.6059 0-.3341.27187-.6059.60586-.6059.33406 0 .60586.2718.60586.6059s-.2718.6059-.60586.6059z"/><path d="m13.3482 20.0204c-.9892 0-1.794.8048-1.794 1.794 0 .9891.8049 1.794 1.794 1.794.9892 0 1.794-.8048 1.794-1.794 0-.9893-.8048-1.794-1.794-1.794zm0 2.3998c-.334 0-.6058-.2718-.6058-.6058 0-.3341.2718-.6059.6058-.6059.3341 0 .6059.2719.6059.6059s-.2718.6058-.6059.6058z"/><path d="m21.5817 20.8879c-1.2261.0001-2.2235.9976-2.2235 2.2236 0 1.2261.9975 2.2235 2.2235 2.2235 1.2261 0 2.2236-.9975 2.2236-2.2235 0-1.2261-.9975-2.2236-2.2236-2.2236zm0 3.259c-.5709 0-1.0354-.4644-1.0354-1.0354 0-.5709.4645-1.0354 1.0354-1.0354.571 0 1.0355.4645 1.0355 1.0354 0 .571-.4645 1.0354-1.0355 1.0354z"/><path d="m10.1058 29.4268c-1.22612 0-2.22354.9975-2.22354 2.2236 0 1.226.9975 2.2235 2.22354 2.2235 1.2261 0 2.2236-.9975 2.2236-2.2235 0-1.2262-.9975-2.2236-2.2236-2.2236zm0 3.2589c-.57096 0-1.03541-.4645-1.03541-1.0354 0-.571.46445-1.0355 1.03541-1.0355.571 0 1.0354.4645 1.0354 1.0355.0001.5709-.4645 1.0354-1.0354 1.0354z"/></g></svg>