<svg fill="none" height="32" viewBox="0 0 41 32" width="41" xmlns="http://www.w3.org/2000/svg"><path d="m39.3722 15.7783c.7073-.5354 1.1658-1.3838 1.1658-2.3374 0-1.6152-1.3145-2.9297-2.9297-2.9297-.9028 0-1.7969.1814-2.627.5276-.6274-2.93896-3.1359-5.17577-6.2084-5.38817.4978-1.06519.3252-2.40015-.5847-3.31006-1.2894-1.28906-3.0061-1.999262-4.8338-1.999262-2.5317 0-4.6816 1.458742-5.3408 2.683102-1.25-1.84546-3.3645-3.02441-5.6662-3.02441-2.40627 0-3.79348 2.76074-2.336 4.6936-2.34663.63427-4.18403 2.48974-4.8166 4.81664-.49096-.35888-1.09082-.56152-1.72631-.56152-1.61548 0-2.929683 1.31448-2.929683 2.92968 0 1.3845.425292 2.7339 1.206543 3.8687-.22925.1669-.43628.3691-.61377.6035-.557372.7373-.732909 1.6704-.480956 2.5603.534176 1.8862 1.535636 3.6545 2.977046 5.2548 1.33862 1.4861 2.99413 2.7596 4.92503 3.7886.19361 2.2253 2.1467 4.0413 4.4375 4.0413h15.0996c1.1413 0 2.2753-.4639 3.1113-1.2732.7761-.7517 1.2397-1.7237 1.3269-2.7686 4.123-2.2058 7.226-5.8017 7.9475-9.236.1814-.8689-.0359-1.7625-.5957-2.4512-.1509-.1853-.3218-.3482-.5076-.4883zm-11.0727-8.97411c3.082 0 5.664 2.54077 5.664 5.66401 0 1.814-2.4292 2.4327-3.3.8411.1777-1.8415-1.3599-3.37889-3.1992-3.2012-1.6128-.87154-.9671-3.30391.8352-3.30391zm2.851 8.39481h-1.4204c.1045-.1385.2596-.2471.4808-.5896.2724.2534.5913.4541.9396.5896zm-2.1594-.9331c-.2634.2634-.4492.5834-.5478.9331h-3.564c.1316-1.293.6968-2.4903 1.6258-3.4192.6855-.6853 1.8005-.6853 2.486-.0003.6892.6897.6829 1.803 0 2.4864zm-9.6413-11.09647c2.2097-2.210203 5.8-2.210203 8.0097 0 .8418.84155.6226 2.26684-.4472 2.8103-.6804.34546-1.499.21484-2.0386-.32446-.8379-.83765-2.2007-.83765-3.0383 0-.6868.68701-1.7988.68701-2.4856 0-.2083-.20777-.3562-.45533-.4404-.73511-.1868-.62158-.0181-1.29248.4404-1.75073zm-.1702 3.81005c1.0926.60327 2.5242.46485 3.4846-.4956.3804-.38062 1-.38086 1.3809 0 .449.44922 1.0144.72754 1.6091.82251-.5163 1.08715-.3186 2.37206.5061 3.25491-.2873.1853-.4804.375-.7112.6286-.1279-1.33078-.6435-2.63083-1.5476-3.71506-.2067-.24877-.5766-.28198-.8247-.07495-.2487.20728-.2824.57666-.0752.8252 1.667 2.00001 1.7442 4.89061.2124 6.97391h-5.0602c.686-.3411 1.29-.7864 1.7841-1.2808 1.7307-1.731.6883-4.63354-1.653-4.97363.521-.50244.8574-1.19507.8947-1.96509zm-.2942 3.43482c.8916.6365.9895 1.9097.2242 2.675-.0804.0804-.1697.1631-.281.2608-2.2361 1.9548-5.6311 1.8374-7.729-.2608-.2603-.2602-.4297-.5896-.49-.9521-.2813-1.6856 1.7732-2.73682 2.9756-1.5337.8386.8386 2.1997.8389 3.0383 0 .6101-.6101 1.5617-.68945 2.2619-.1892zm-6.829 4.7847h-1.8123c-.1113-.5518-.37719-1.0525-.76171-1.4495.14233-.0925.27637-.1975.40039-.3135.44972.6941 1.39722 1.3779 2.17362 1.763zm1.8813-5.80839c.1204-.12719.228-.26464.3223-.40991.4323.4021.9802.66943 1.5761.75488-.4851.46752-1.0781.38332-1.4221.03931-.146-.14624-.3064-.27368-.4763-.38428zm-1.5903-8.21874c3.0708 0 5.664 2.50977 5.664 5.66406 0 1.8186-2.4365 2.42968-3.3012.83984.1608-1.77026-1.1678-3.27319-3.2173-3.20996-1.57643-.87988-.9517-3.29394.8545-3.29394zm-.9419 4.47095c2.414-.16431 2.7368 2.48559 1.2212 3.28881-1.8365-.177-3.37746 1.36087-3.19851 3.20047-.87158 1.5915-3.30077.9743-3.30077-.8399 0-2.96775 2.31835-5.44919 5.27808-5.64938zm-9.69482 6.23558c0-1.7676 2.33032-2.42089 3.25317-.9219-.10572 2.1548 1.53588 3.4021 3.18846 3.252.4187.206.72925.5632.8794.9905h-5.59301c-.20434 0-.40478.0219-.59961.0632-.72924-.9758-1.12841-2.1633-1.12841-3.3838zm37.61762 6.5991c-.6519 3.1035-3.6648 6.5164-7.5169 8.5283h-20.3446c-.3235 0-.587.2625-.587.586 0 .3227.2635.5859.587.5859h19.8466c-.2893 1.4839-1.6477 2.6462-3.2239 2.6462h-15.0996c-1.5959 0-3.21357-1.289-3.2829-3.2534-.00781-.216-.13379-.4062-.31738-.5005-3.87377-1.9846-6.64818-5.0747-7.61156-8.4782-.15112-.5332-.0459-1.0926.28809-1.5344.33007-.4363.83032-.6866 1.37255-.6866h34.2018c.5171 0 1.0017.2315 1.3294.6348.3366.4143.4672.9509.3584 1.4719zm-1.7215-3.2785h-4.3415c1.1025-.4297 1.9153-1.492 1.8659-2.9427.7696-.3757 1.6189-.5732 2.4771-.5732.9692 0 1.7578.7886 1.7578 1.7578 0 .9668-.7859 1.7581-1.7593 1.7581z" fill="#000"/></svg>