<svg fill="none" height="37" viewBox="0 0 40 37" width="40" xmlns="http://www.w3.org/2000/svg"><g fill="#000"><path d="m35.3662 24.8231c.5628-1.2484.8762-2.6321.8762-4.0881 0-4.1364-2.5586-7.7902-6.2909-9.2755.0183-.2472.0281-.4971.0281-.745 0-5.50319-4.4773-9.980125-9.9802-9.980125-1.7819 0-3.4561.469975-4.9057 1.291505-.1151.02747-.2188.08911-.2979.17578-2.3092 1.41663-4.0005 3.74573-4.5684 6.48194-2.85771-1.77216-6.24425-2.46124-9.619805-1.94092-.258179.03998-.45868.24567-.491944.50446-.274048 2.13287-.0585936 4.33136.622865 6.35806.716244 2.1298 1.900024 4.01 3.518074 5.5881.1297.126.26214.2502.39673.3717-1.34522 1.701-2.14936 3.8485-2.14936 6.1804 0 5.5029 4.47724 9.9802 9.98014 9.9802 4.1352 0 7.6908-2.5284 9.2032-6.12.741.3827 1.5268.6695 2.3383.8554.8585 1.1993 1.8997 2.2549 3.0975 3.1384 1.8192 1.3416 3.866 2.2052 6.084 2.5674.7495.1224 1.5109.1835 2.2736.1835 1.3843 0 2.7725-.2005 4.1012-.5976.25-.0747.4206-.3061.4181-.567-.0384-3.9722-1.7224-7.7258-4.6338-10.3626zm-20.0403-21.57133c.0486.02838.094.06195.1346.10254.1261.12573.1953.29328.1953.47119 0 .17823-.0692.34546-.1953.4715-.1098.10986-.1715.25879-.1715.41412 0 .15564.0617.30457.1715.41443.1261.12604.1953.29328.1953.4715 0 .17792-.0692.34546-.1953.47119-.126.12604-.2933.19532-.4712.19532-.1782 0-.3454-.06928-.4715-.19532-.2289-.22888-.5999-.22888-.8285 0-.26.26001-.683.26001-.9427 0-.0491-.04913-.0888-.10589-.1203-.16662.698-1.06568 1.6202-1.97144 2.6996-2.64985zm-13.47685 9.97953c-.578-1.719-.7904-3.57327-.62042-5.3909 3.12409-.37506 6.23322.37201 8.81867 2.12311-.0183.24779-.0281.49839-.0281.75099 0 1.8189.4843 3.5666 1.4054 5.1069-.3354.0357-.6659.0879-.9906.1559l-5.0507-5.051c-.22889-.2285-.59998-.2285-.82886 0-.22888.2289-.22888.6 0 .8289l4.58649 4.5865c-1.40808.502-2.67151 1.3113-3.7082 2.3477-.12115-.1099-.24108-.2212-.35797-.3354-1.48376-1.4471-2.56897-3.1705-3.22571-5.1227zm10.63505 21.3221c-4.85684 0-8.80826-3.9511-8.80826-8.808s3.95142-8.8083 8.80826-8.8083c4.8569 0 8.808 3.9514 8.808 8.8083s-3.9511 8.808-8.808 8.808zm5.5912-17.0713c1.2051-3.0276 4.0442-5.1822 7.2897-5.5102.322-.0327.5567-.3198.524-.6418-.0324-.322-.3198-.5576-.6418-.5243-1.871.1892-3.6444.9027-5.1288 2.0636-1.351 1.0568-2.4029 2.4359-3.0615 4.0067-1.2863-.6659-2.7347-1.0599-4.2694-1.106-1.044-1.4856-1.5964-3.23-1.5964-5.0556 0-1.33052.2972-2.59273.8276-3.72463.5884.5069 1.4243.58045 2.0841.21882.2685.14801.5713.22674.8865.22674.4911 0 .9528-.19134 1.3001-.53863.347-.34729.5383-.80872.5383-1.30005 0-.31464-.0784-.61738-.2264-.88563.148-.26825.2264-.57098.2264-.88562 0-.42663-.1443-.83099-.4098-1.15753 1.0949-.4892 2.3068-.76172 3.5815-.76172 4.8569 0 8.8083 3.95142 8.8083 8.80825 0 .1218-.0027.2442-.0076.3663-.1966-.0513-.3952-.0977-.5966-.1374-.318-.0625-.6257.1444-.6882.4618-.0626.3173.144.6256.4614.6881 4.1104.8106 7.0938 4.4449 7.0938 8.6417 0 4.8569-3.9514 8.8083-8.8083 8.8083-1.4648 0-2.9025-.3644-4.1815-1.0547.2496-.8722.3836-1.7923.3836-2.7435 0-3.4326-1.7422-6.4661-4.389-8.263zm15.3207 17.5281c-2.0328-.332-3.909-1.1239-5.5774-2.3541-.7806-.5756-1.4868-1.2326-2.1136-1.9577.1852.0104.3711.0168.5572.0168 1.6309 0 3.1717-.3931 4.5325-1.0898l3.4836 2.637c.1056.0803.2298.119.3531.119.1773 0 .3525-.0802.4675-.2322.1953-.2582.1447-.6256-.1135-.8209l-3.104-2.3499c1.1789-.8059 2.1772-1.8579 2.9197-3.0813 2.4264 2.3037 3.8678 5.4767 4.0152 8.8534-1.7661.4618-3.6304.5521-5.4203.2597z"/><path d="m13.158 22.0475c-.3472-.3472-.809-.5383-1.3-.5386-.0003 0-.0003 0-.0003 0-.315 0-.618.0787-.8862.2271-.6983-.383-1.59429-.2793-2.18511.3115-.59113.5909-.69489 1.4875-.31128 2.1857-.3833.6983-.27954 1.5949.31128 2.1857.59082.5911 1.48771.6946 2.18571.3113.2749.151.5804.2264.8856.2264.4709 0 .9418-.1794 1.3003-.5377.5909-.5908.6946-1.4874.311-2.1857.3836-.6982.2799-1.5948-.311-2.1857zm-.8288 2.6002c.26.2597.26.6826 0 .9426-.2597.2601-.6827.2601-.9427 0-.1144-.1144-.2643-.1718-.4144-.1718-.1499 0-.2997.0574-.4142.1718-.26.2601-.68294.2601-.94265 0-.26001-.26-.26001-.6829 0-.9426.22858-.2289.22858-.6 0-.8289-.26001-.2597-.26001-.6827 0-.9424.25971-.26.68265-.26.94265 0 .2289.2289.6.2289.8286-.0003.1257-.1257.2933-.195.4712-.195.1782 0 .3454.0693.4715.1953.26.2597.26.6827 0 .9424-.2289.2289-.2289.6 0 .8289z"/><path d="m28.2542 23.7533c.2227.7647.9298 1.3253 1.7657 1.3253s1.543-.5606 1.7658-1.3253c.7647-.2225 1.3253-.9299 1.3253-1.7658 0-.8356-.5606-1.543-1.3253-1.7654-.2228-.7651-.9299-1.3257-1.7658-1.3257s-1.543.5606-1.7657 1.3257c-.7648.2224-1.3254.9298-1.3254 1.7654 0 .8359.5606 1.5433 1.3254 1.7658zm.5133-2.4323c.3235 0 .5859-.2622.5859-.5859 0-.3675.2988-.6666.6665-.6666.3674 0 .6665.2991.6665.6666 0 .3237.2625.5859.586.5859.3677 0 .6665.2991.6665.6665 0 .3677-.2988.6668-.6665.6668-.3235 0-.586.2622-.586.586 0 .3674-.2991.6665-.6665.6665-.3677 0-.6665-.2991-.6665-.6665 0-.3238-.2624-.586-.5859-.586-.3678 0-.6668-.2991-.6668-.6668 0-.3674.299-.6665.6668-.6665z"/></g></svg>