<svg fill="none" height="40" viewBox="0 0 37 40" width="37" xmlns="http://www.w3.org/2000/svg"><g fill="#000"><path d="m31.4818 9.90112v-1.46423h.093c1.3571 0 2.4613-1.10443 2.4613-2.46155v-3.5141c0-1.35711-1.1042-2.46124-2.4613-2.46124h-2.7658c-.328 0-.5942.266113-.5942.594177s.2662.593873.5942.593873h2.7658c.7019 0 1.2732.57129 1.2732 1.27319v3.5141c0 .70191-.571 1.2732-1.2732 1.2732h-26.2045c-.70221 0-1.27319-.57129-1.27319-1.2732v-3.5141c0-.7019.57098-1.27319 1.27319-1.27319h21.0623c.3281 0 .5939-.265809.5939-.593873s-.2658-.594177-.5939-.594177h-21.0623c-1.35712 0-2.46124 1.10413-2.46124 2.46124v3.5141c0 1.35712 1.10412 2.46124 2.46124 2.46124h.09308v1.46424c-2.76428.29758-4.924012 2.64468-4.924012 5.48648v8.2565c0 .3281.265808.5939.593872.5939.32806 0 .59418-.2658.59418-.5939v-8.2562c0-2.3877 1.94244-4.3302 4.33014-4.3302h24.83034c2.3877 0 4.3301 1.9425 4.3301 4.3302v19.1052c0 2.3816-1.9375 4.3192-4.3191 4.3192h-24.85264c-2.38159 0-4.31915-1.9376-4.31915-4.3192v-8.4726c0-.3281-.26581-.5942-.59387-.5942-.328064 0-.594178.2661-.594178.5942v8.4726c0 3.0368 2.470398 5.5072 5.507198 5.5072h24.85264c3.0365 0 5.5072-2.4704 5.5072-5.5072v-19.1052c0-2.8421-2.1601-5.1892-4.9243-5.48648zm-1.1881-1.46423v1.43219h-23.64227v-1.43219z"/><path d="m28.1287 35.1285c3.006 0 5.4517-2.4453 5.4517-5.4513v-14.35c0-.3281-.2661-.5942-.5942-.5942h-29.02801c-.32806 0-.59418.2661-.59418.5942v14.35c0 3.006 2.44568 5.4513 5.45166 5.4513zm-23.57633-5.4513v-13.7558h27.83963v13.7558c0 2.3508-1.9125 4.2633-4.2633 4.2633h-19.31303c-2.35077 0-4.2633-1.9125-4.2633-4.2633z"/><path d="m14.1361 21.3864c0-2.0636-1.6788-3.7424-3.7424-3.7424-2.06356 0-3.74233 1.6788-3.74233 3.7424s1.67877 3.7427 3.74233 3.7427c2.0636 0 3.7424-1.6791 3.7424-3.7427zm-6.29668 0c0-1.4084 1.14563-2.5543 2.55428-2.5543 1.4084 0 2.5544 1.1459 2.5544 2.5543 0 1.4087-1.146 2.5543-2.5544 2.5543-1.40865 0-2.55428-1.1456-2.55428-2.5543z"/><path d="m16.9279 31.2476c1.3104 0 2.3764-1.066 2.3764-2.3764 0-1.3101-1.066-2.3761-2.3764-2.3761-1.3102 0-2.3761 1.066-2.3761 2.3761 0 1.3104 1.0659 2.3764 2.3761 2.3764zm0-3.5644c.6552 0 1.188.5331 1.188 1.188 0 .6552-.5328 1.1881-1.188 1.1881-.655 0-1.1881-.5329-1.1881-1.1881 0-.6549.5331-1.188 1.1881-1.188z"/><path d="m22.809 25.9011c2.4567 0 4.4553-1.9986 4.4553-4.4552 0-2.4567-1.9986-4.4553-4.4553-4.4553-2.4566 0-4.4552 1.9986-4.4552 4.4553 0 2.4566 1.9986 4.4552 4.4552 4.4552zm0-7.7225c1.8015 0 3.2672 1.4658 3.2672 3.2673 0 1.8014-1.4657 3.2672-3.2672 3.2672-1.8017 0-3.2672-1.4658-3.2672-3.2672 0-1.8015 1.4658-3.2673 3.2672-3.2673z"/><path d="m24.9672 29.881c0 1.5396 1.2524 2.792 2.792 2.792 1.5393 0 2.7921-1.2524 2.7921-2.792 0-1.5393-1.2528-2.7918-2.7921-2.7918-1.5396 0-2.792 1.2525-2.792 2.7918zm2.792-1.6037c.8841 0 1.6037.7193 1.6037 1.6037 0 .8847-.7193 1.604-1.6037 1.604s-1.604-.7193-1.604-1.604c0-.8844.7196-1.6037 1.604-1.6037z"/><path d="m10.5861 30.5448c-.0965-.2283-.3293-.3788-.578-.3659-.23807.0122-.44895.1696-.52982.393-.08301.2292-.0116.4935.17304.6519.19561.1675.48648.1874.70378.0503.2429-.1529.3369-.4647.231-.7293z"/><path d="m27.607 30.1083c.1934.4828.9005.4746 1.0971 0 .2105-.5078-.3519-1.008-.8313-.7495-.2631.1419-.3824.473-.2658.7495z"/><path d="m29.0913 18.8189c.0924.2237.321.3732.5633.3671.2423-.0064.4639-.166.5448-.3942.0845-.2387.0064-.5127-.1941-.6681-.2088-.162-.5057-.166-.7187-.0091-.2179.1611-.2954.4544-.1953.7043z"/><path d="m23.5082 20.426c.0922.2188.3094.3665.5481.3668.2536 0 .4846-.1676.564-.4084.0775-.2349-.0028-.502-.1984-.6543-.199-.155-.4804-.1657-.6912-.0283-.2368.1541-.3302.4638-.2225.7242z"/><path d="m15.6965 24.8569c.0903.2188.3104.3674.5481.3674.2591 0 .4928-.1752.5685-.4221.0711-.2316-.0119-.4916-.2029-.6405-.2042-.159-.4953-.1657-.7071-.0171-.2237.1568-.3134.4596-.2066.7123z"/><path d="m10.4917 20.9241c.1334-.2026.1313-.4727-.0085-.6717-.1486-.2115-.4263-.3027-.67171-.2218-.49225.1626-.54322.8609-.08087 1.0937.26642.1343.59388.0449.76108-.2002z"/></g></svg>