<svg fill="none" height="40" viewBox="0 0 27 40" width="27" xmlns="http://www.w3.org/2000/svg"><g fill="#000"><path d="m9.08972 35.7153c.32361 0 .58594-.2623.58594-.5859s-.26233-.5859-.58594-.5859c-.3236 0-.58594.2623-.58594.5859s.26234.5859.58594.5859z"/><path d="m5.5741 32.1997c.3236 0 .58593-.2623.58593-.5859s-.26233-.586-.58593-.586c-.32361 0-.58594.2624-.58594.586s.26233.5859.58594.5859z"/><path d="m21.9803 29.856c.3237 0 .586-.2624.586-.586s-.2623-.5859-.586-.5859c-.3236 0-.5859.2623-.5859.5859s.2623.586.5859.586z"/><path d="m26.5315 23.9289c-.2939-2.2144-1.3094-4.1133-2.9367-5.4915-1.5387-1.3033-3.5219-2.021-5.5843-2.021-.8551 0-1.6879.1399-2.4755.4116v-15.07019c.0001-.969294-.7885-1.75781-1.7577-1.75781-.9693 0-1.7579.788516-1.7579 1.75781v15.07029c-.7875-.2718-1.6203-.4116-2.4755-.4116-1.6811 0-3.30383.4712-4.69274 1.3625-.27234.1747-.35148.5373-.17664.8096.17477.2723.53719.3516.80961.1766 1.19977-.7699 2.60359-1.1768 4.05984-1.1768 1.41363 0 2.75493.4514 3.87873 1.3056.2096.1592.4996.1592.7091 0 1.1239-.8542 2.4651-1.3056 3.8787-1.3056 3.8046 0 6.8176 2.6421 7.3497 6.4328-1.3662.9085-2.8379 1.6538-4.3796 2.2173-1.1543.422-1.9299 1.5284-1.9299 2.7532v2.6221c0 .3232-.2628.586-.5859.586-.3232 0-.586-.2628-.586-.586v-2.4782c0-.4927-.2098-.9645-.5756-1.2943-.3681-.3318-.8624-.4927-1.3559-.4415l-.024.0024c-.8894.0914-1.5601.8377-1.5601 1.736v5.9913c0 .3231-.2628.5859-.5859.5859-.3232 0-.586-.2628-.586-.5859v-5.9913c0-.8983-.6707-1.6446-1.5603-1.736l-.0227-.0024c-.4949-.0513-.9889.1097-1.3569.4415-.36586.3298-.57571.8016-.57571 1.2942v2.4783c0 .3231-.26281.5859-.58593.5859-.32313 0-.58594-.2628-.58594-.5859v-2.6222c0-1.2248-.77563-2.3312-1.93-2.7532-1.54172-.5636-3.01344-1.3089-4.37985-2.2175.20282-1.4436.77688-2.7646 1.66399-3.8235.20781-.248.17523-.6176-.07289-.8254-.24805-.2078-.61766-.1752-.82539.0729-1.04289 1.2448-1.7125 2.7953-1.93664 4.4841-.809846 6.1012 2.20047 10.5823 3.14242 11.8104 2.19898 2.8669 4.41648 4.2606 6.77924 4.2606.987 0 1.9594-.2365 2.8326-.6866.8732.45 1.8455.6866 2.8325.6866 2.3628 0 4.5803-1.3937 6.7793-4.2607.9419-1.228 3.9522-5.709 3.1424-11.8104zm-12.7542-6.222c-.1907-.1287-.3865-.2469-.586-.3568v-15.59229c0-.32312.2628-.58593.586-.58593.3231 0 .5859.26281.5859.58593v15.59229c-.1995.1099-.3953.2281-.5859.3568zm8.6819 17.3192c-1.9623 2.5584-3.8756 3.802-5.8494 3.802-.8918 0-1.7687-.2381-2.5358-.6886-.1832-.1076-.4103-.1075-.5935 0-.7672.4505-1.644.6886-2.5358.6886-1.97377 0-3.88713-1.2436-5.8494-3.802-.80664-1.0517-3.2507-4.6794-3.02211-9.6891 1.29203.8067 2.66657 1.4787 4.09828 2.002.69407.2537 1.16047.9179 1.16047 1.6526v2.6221c0 .9693.78852 1.7578 1.75782 1.7578.96934 0 1.75784-.7885 1.75784-1.7578v-2.4782c0-.1639.0669-.3144.1885-.424.1238-.1116.284-.1635.4521-.1461l.0233.0024c.2897.0298.508.2749.508.5702v5.9913c0 .9693.7885 1.7578 1.7578 1.7578s1.7578-.7885 1.7578-1.7578v-5.9913c0-.2953.2185-.5404.5076-.5701l.0246-.0025c.1675-.0177.3274.0346.4511.1462.1217.1095.1885.2601.1885.4239v2.4783c0 .9692.7886 1.7578 1.7579 1.7578.9692 0 1.7578-.7886 1.7578-1.7578v-2.6222c0-.7346.4663-1.3988 1.1604-1.6525 1.4318-.5233 2.8063-1.1952 4.0983-2.0021.2286 5.0099-2.2154 8.6375-3.0221 9.6891z"/></g></svg>