<svg fill="none" height="40" viewBox="0 0 22 40" width="22" xmlns="http://www.w3.org/2000/svg"><path d="m18.2117 14.1853c-.857-1.1757-1.5196-2.4727-1.9696-3.8552-.2711-.83176-.4613-1.69019-.5697-2.55847.6215-.24657 1.0627-.8525 1.0627-1.56078v-1.32812c0-.74922-.4932-1.385-1.1719-1.60078v-1.52414c0-.969218-.7886-1.75781-1.7578-1.75781h-4.84371c-.9693 0-1.75781.788592-1.75781 1.75781v1.52421c-.67867.21579-1.17188.85157-1.17188 1.60078v1.32813c0 .7082.44125 1.31413 1.06274 1.56077-.10844.86836-.29867 1.72688-.56985 2.5587-.44992 1.3824-1.11257 2.6794-1.96952 3.8551-2.37703 3.2631-3.633434 7.1209-3.633434 11.1567 0 .7731.047734 1.5526.141874 2.317l1.2882 10.4552c.13195 1.075 1.04867 1.8856 2.13234 1.8856h13.79845c1.0836 0 2.0003-.8106 2.1323-1.8854l.4851-3.9366c.0396-.3211-.1887-.6136-.5099-.6531-.3206-.0396-.6136.1886-.6531.5098l-.4851 3.9369c-.06.4882-.4767.8565-.9693.8565h-13.79837c-.49258 0-.9093-.3682-.96922-.8568l-1.28828-10.4554c-.08836-.7171-.13312-1.4484-.13312-2.1737 0-3.7861 1.17875-7.4054 3.40866-10.4665.92961-1.2755 1.6486-2.6827 2.13664-4.1823.29703-.91084.50477-1.85139.6218-2.80271h6.24549c.117.95117.3247 1.89163.6216 2.80241.4882 1.4998 1.2071 2.907 2.1368 4.1825 2.6656 3.6584 3.829 8.1476 3.2757 12.6403l-.4639 3.7651c-.0396.3211.1887.6136.5098.6532.0244.003.0485.0045.0725.0045.2915 0 .5442-.2175.5807-.5144l.4639-3.7651c.5896-4.7891-.6504-9.5742-3.4918-13.4739zm-9.83603-12.42749c0-.32313.26281-.58594.58594-.58594h4.84379c.3231 0 .5859.26281.5859.58594v1.44531h-6.01563zm7.18753 4.45312c0 .28-.2279.50781-.5079.50781h-7.34369c-.28 0-.50781-.22781-.50781-.50781v-1.32813c0-.28.22781-.50781.50781-.50781h7.34369c.28 0 .5079.22781.5079.50781zm-4.1797 24.86037c1.0007 0 1.9248-.5603 2.6017-1.5784.6277-.9443.9735-2.1886.9735-3.5037 0-1.315-.3458-2.5593-.9735-3.5036-.6702-1.0079-1.5828-1.5665-2.5725-1.5774-1.0144-.0111-1.95062.5542-2.63086 1.5774-.62781.9443-.97351 2.1886-.97351 3.5036 0 1.3151.34578 2.5594.97351 3.5037.67672 1.0178 1.60066 1.5784 2.60166 1.5784zm1.2998-8.3488c.6585.7061 1.1035 1.9196 1.1035 3.2667 0 1.9782-.9588 3.6694-2.1458 3.8861-.5568-.7559-.6554-1.7801-.2297-2.6315l.9926-1.9851c.3989-.7978.4836-1.6999.2794-2.5362zm-1.5573-.6194c.5568.7559.6553 1.7802.2297 2.6315l-.9926 1.985c-.39899.7979-.48368 1.7001-.2795 2.5364-.65856-.7061-1.10355-1.9196-1.10355-3.2668.00007-1.9782.95898-3.6693 2.14595-3.8861zm-5.93142.0572c-.31726-.0654-.62671.1392-.69171.4562-.22289 1.0863-.33586 2.221-.33586 3.3727 0 2.9175.72179 5.6688 2.03242 7.7468 1.36359 2.1621 3.20468 3.3528 5.18417 3.3528 1.9794 0 3.8205-1.1907 5.1841-3.3528 1.3105-2.0781 2.0324-4.8293 2.0324-7.7468 0-2.9174-.7218-5.6687-2.0324-7.7467-1.3636-2.1621-3.2047-3.3528-5.1841-3.3528-2.43965 0-4.69191 1.8553-6.02495 4.9628-.12758.2974.01007.6419.3075.7695.29734.1276.64187-.0102.76945-.3075 1.14242-2.6631 2.9921-4.253 4.948-4.253 1.5626 0 3.0517.9966 4.1929 2.806 1.1941 1.8935 1.8517 4.4227 1.8517 7.1217 0 2.6991-.6576 5.2283-1.8517 7.1217-1.1412 1.8094-2.6303 2.806-4.1929 2.806-1.5627 0-3.05176-.9966-4.193-2.806-1.19414-1.8934-1.85172-4.4226-1.85172-7.1217 0-1.0727.10492-2.1282.31195-3.1371.065-.317-.13929-.6268-.45625-.6918z" fill="#000"/></svg>