<svg fill="none" height="50" viewBox="0 0 36 50" width="36" xmlns="http://www.w3.org/2000/svg"><g fill="#fabb00"><path d="m21.3333 0h-16.6666c-2.29756 0-4.1667 1.86914-4.1667 4.1667v30c0 2.2975 1.86914 4.1667 4.1667 4.1667h15v-1.6667h-15c-1.37832 0-2.5-1.1217-2.5-2.5v-30c0-1.37832 1.12168-2.5 2.5-2.5h16.6667c1.3783 0 2.5 1.12168 2.5 2.5v24.1667h1.6666v-24.1667c0-2.29756-1.8692-4.1667-4.1667-4.1667z"/><path d="m33.4923 22.1967-8.175-10.2167-1.3026 1.0417 8.175 10.2158c1.0609 1.325 1.6442 2.99 1.6434 4.6875v20.4083h-12.1916c-4.305 0-7.8083-3.5025-7.8083-7.8083v-3.025h-1.6667v3.025c0 5.2241 4.2509 9.475 9.475 9.475h13.025c.4608 0 .8333-.3725.8333-.8333v-21.2408c.0009-2.0734-.7116-4.1084-2.0075-5.7292z"/><path d="m14.6635 19.6525c.585.0167 1.1292.26 1.53.685l11.1992 11.9 1.2142-1.1425-11.2009-11.9009c-.7075-.7492-1.665-1.1783-2.695-1.2075-1.0408-.035-2.01.3441-2.75 1.0434-.0092.0091-.0759.0724-.0842.0816-1.4241 1.4283-1.52 3.67-.2208 5.2184l7.1775 8.475v2.5783c-.0008 4.605 2.8951 8.7825 7.2076 10.3974l.5849-1.5608c-3.665-1.3725-6.1266-4.9233-6.1259-8.8366v-2.8833c0-.1967-.07-.3884-.1974-.5392l-7.3725-8.7058c-.7375-.8784-.6833-2.1542.1667-3.005.4249-.4017.9799-.6009 1.5666-.5975z"/><path d="m20.4997 1.66663h-1.6667v20.83327h1.6667z"/><path d="m16.3332 27.5h-1.6667v10h1.6667z"/><path d="m16.3332.833374h-1.6667v18.333326h1.6667z"/><path d="m6.3337 4.16675h-1.66671v10.83325h1.66671z"/><path d="m10.5002 4.16675h-1.6667v6.66665h1.6667z"/><path d="m10.5003 27.5h-5.00001c-.45996 0-.8333.3725-.8333.8333v5c0 .4608.37334.8333.8333.8333h5.00001c.46 0 .8333-.3725.8333-.8333v-5c0-.4608-.3733-.8333-.8333-.8333zm-.8333 5h-3.33331v-3.3333h3.33331z"/></g></svg>