<svg fill="none" height="50" viewBox="0 0 50 50" width="50" xmlns="http://www.w3.org/2000/svg"><g fill="#fabb00"><path d="m49.1665 45h-2.5v-15.8333c-.0003-.4602-.3738-.833-.834-.8327-.2716.0002-.526.1327-.6819.3552l-11.6666 16.6667c-.2638.3771-.1718.8967.2054 1.1604.1399.0978.3063.1503.4771.1504h10.8333v2.5c0 .4602.3731.8333.8333.8333s.8334-.3731.8334-.8333v-2.5h2.5c.4602 0 .8333-.3731.8333-.8333 0-.4603-.3731-.8334-.8333-.8334zm-4.1667 0h-9.2333l9.2333-13.19z"/><path d="m34.1665 48.3333h-9.8658l9.1725-10.8008c.0208-.0248.0403-.0506.0583-.0775 1.7256-2.5539 1.1508-6.0118-1.3083-7.87-2.9901-2.1484-7.1558-1.466-9.3041 1.5241-.8147 1.1338-1.2528 2.4948-1.2526 3.8909 0 .4602.3731.8333.8333.8333s.8334-.3731.8334-.8333c-.0003-2.7614 2.2381-5.0002 4.9994-5.0005 1.0467-.0001 2.067.3282 2.9172.9388 1.7226 1.3199 2.1238 3.7508.9167 5.5542l-10.3017 12.135c-.2978.3509-.2546.8768.0963 1.1746.1505.1277.3413.1978.5387.1979h11.6667c.4602 0 .8333-.3731.8333-.8333s-.3731-.8334-.8333-.8334z"/><path d="m22.5183 44.1825c.0174-.4599-.3414-.8468-.8013-.8642-.0001 0-.0002 0-.0003 0-10.8719-.4035-19.59785-9.1138-20.02087-19.985h3.30417c.46021 0 .83333-.3731.83333-.8333s-.37312-.8333-.83333-.8333h-3.30417c.41698-10.852 9.11877-19.55347 19.97087-19.97003v2.47c0 .4602.3731.83333.8333.83333s.8333-.37313.8333-.83333v-2.47c10.7036.41396 19.3423 8.88953 19.96 19.58333l-3.25-3.25c-.331-.3198-.8585-.3106-1.1783.0204-.3119.3229-.3119.8349 0 1.1579l4.6517 4.6517c.0876.106.2005.1882.3283.2392.0326.0098.0657.0179.0992.0241.0572.0207.1163.0349.1766.0425h.0242.0233c.0635-.0048.1262-.017.1867-.0366.0343-.0042.0682-.0106.1017-.0192.1128-.0401.2155-.1044.3008-.1883l4.715-4.7134c.3197-.331.3106-.8585-.0204-1.1783-.3229-.3119-.8349-.3119-1.1579 0l-3.3309 3.3283c-.5953-11.94476-10.4446-21.3290292-22.4041-21.3466333-.0209-.0008334-.0384-.0116667-.0592-.0116667s-.0383.0108333-.0592.0116667c-12.3802.0169791-22.4121542 10.0489333-22.4291333 22.4291333 0 .0209-.0116667.0384-.0116667.0592s.0108333.0383.0116667.0592c.0207291 12.0747 9.5769833 21.976 21.6433333 22.425h.0308c.4478-.0001.8156-.3542.8325-.8017z"/><path d="m33.6961 11.3042c-.3255-.3253-.853-.3253-1.1784 0l-8.955 8.9541c-.6765-.3016-1.4493-.3016-2.1258 0l-4.24-4.24c-.331-.3197-.8586-.3105-1.1783.0206-.3119.3229-.3119.8348 0 1.1578l4.2316 4.2316c-.5941 1.2438-.0675 2.7338 1.1764 3.3278.9547.4561 2.0932.2606 2.8411-.4878.752-.7456.9457-1.8873.4817-2.8391l8.9467-8.9467c.3253-.3254.3253-.8529 0-1.1783zm-10.6065 11.7848c-.0001.0001-.0001.0001-.0002.0002-.3296.3151-.8487.3151-1.1783 0-.3256-.3255-.3256-.8531-.0002-1.1786s.853-.3255 1.1785-.0002c.3255.3254.3255.8531.0002 1.1786z"/></g></svg>