<svg fill="none" height="50" viewBox="0 0 50 50" width="50" xmlns="http://www.w3.org/2000/svg"><g fill="#fabb00"><path d="m14.8438 45.8208v2.3934l.5278.181c6.2406 2.1396 13.0161 2.1396 19.2567 0l.5279-.181v-2.3934c4.2983-2.3282 7.9547-6.0694 10.5946-10.8474 2.7799-5.0315 4.2492-10.9115 4.2492-17.0047 0-1.9175-2.5915-3.4749-7.7026-4.6289-4.3821-.9895-10.1208-1.5578-16.256-1.6157.1465-.7082.3199-1.0938.4239-1.2763l-1.3579-.77275c-.2863.50335-.5057 1.19325-.6551 2.04515-6.3205.0313-12.25.6035-16.74927 1.6194-5.11153 1.1542-7.70303 2.7116-7.70303 4.6291 0 6.0932 1.46934 11.9732 4.24922 17.0047 2.63984 4.778 6.29628 8.5192 10.59458 10.8474zm29.5393-11.603c-2.576 4.6623-6.1603 8.2715-10.3658 10.4378l-.4235.2181v2.2187c-5.5889 1.7934-11.5987 1.7934-17.1876 0v-2.2187l-.4235-.2181c-4.2054-2.1662-7.78983-5.7756-10.36581-10.4378-2.28378-4.1336-3.63955-8.8738-3.97255-13.8328 1.27949.8501 3.29892 1.5876 6.0583 2.2126 4.44386 1.0034 10.28316 1.5738 16.51616 1.6179v2.347h1.5624v-2.3469c6.2331-.0441 12.0723-.6145 16.5162-1.6179 2.7565-.6225 4.776-1.36 6.0583-2.2127-.333 4.9589-1.6888 9.6992-3.9726 13.8328zm-2.43-19.354c5.1188 1.1558 6.4844 2.4955 6.4844 3.1049s-1.3656 1.9491-6.4844 3.1049c-4.3359.979-10.0526 1.5356-16.1719 1.5794v-7.8093c0-.5897.0204-1.106.054-1.5589 6.0989.0466 11.7953.6028 16.1179 1.579zm-33.90622 0c4.34742-.9816 10.08432-1.5388 16.22272-1.5799-.0332.4874-.0502 1.0073-.0508 1.5598v7.8094c-6.1193-.0438-11.8364-.6005-16.17183-1.5794-5.11884-1.1559-6.48447-2.4956-6.48447-3.105s1.36563-1.9491 6.48438-3.1049z"/><path d="m39.7656 36.1272c-.9277-1.2354-2.5496-3.3333-4.8947-5.1919-3.0904-2.4489-6.4183-3.6581-9.8858-3.5915-7.4819.143-12.7973 6.4355-14.7332 8.8193-.57276-1.1642-.87264-2.4437-.8769-3.7412h-1.5625c0 3.4889 1.81924 6.753 5.1226 9.1912 3.2321 2.3856 7.5169 3.6994 12.0649 3.6994s8.8328-1.3138 12.0649-3.6994c3.3034-2.4382 5.1226-5.7023 5.1226-9.1912h-1.5625c-.004 1.284-.2978 2.5506-.8594 3.7053zm-14.7656 7.6228c-6.0464 0-11.3013-2.5029-13.8979-6.1545.0586-.0722.1228-.1511.1933-.2383 1.6651-2.0573 6.7319-8.3175 13.7195-8.4509 3.0957-.0586 6.0867 1.0351 8.8856 3.2537 2.3182 1.8372 3.9099 3.9627 4.7649 5.1046.0896.1195.1686.2246.2407.3197-2.5938 3.6577-7.8535 6.1657-13.9061 6.1657z"/><path d="m31.8021 33.0411-1.1048 1.1049 3.9063 3.9063 1.1048-1.1049z"/><path d="m26.5625 8.59375c2.0255 0 3.8736-.86611 4.8231-2.26055.0177-.02578.0414-.04685.0691-.06135s.0586-.022.0898-.02185h18.4555v-1.5625h-18.4555c-.2859-.00029-.5676.06937-.8204.20293-.2528.13355-.4691.32694-.6301.56328-.6525.9584-2.0387 1.57754-3.5315 1.57754-2.1175 0-3.9063-1.25215-3.9063-2.73437 0-1.48223 1.7888-2.73438 3.9063-2.73438 1.4929 0 2.879.61914 3.5314 1.57734.161.23635.3773.42974.6301.56333.2528.13358.5345.2033.8204.20308h18.4556v-1.5625h-18.4556c-.0312.00016-.0621-.00733-.0898-.02182-.0277-.01448-.0514-.03552-.0692-.06129-.9493-1.394527-2.7974-2.26064-4.8229-2.26064-3.0155 0-5.4687 1.92754-5.4687 4.29688 0 2.36933 2.4532 4.29687 5.4687 4.29687z"/></g></svg>