<svg fill="none" height="171" viewBox="0 0 171 171" width="171" xmlns="http://www.w3.org/2000/svg"><g fill="#ffb612"><path d="m85.5009 148.196c-16.7469 0-32.4914-6.521-44.3319-18.364-11.8404-11.841-18.3643-27.585-18.3643-44.332 0-16.7469 6.5211-32.4914 18.3643-44.3318 11.8405-11.8405 27.585-18.3644 44.3319-18.3644 16.7471 0 32.4911 6.5211 44.3321 18.3644 11.84 11.8404 18.364 27.5849 18.364 44.3318 0 16.747-6.521 32.491-18.364 44.332-11.841 11.843-27.585 18.364-44.3321 18.364zm0-121.1207c-32.2152 0-58.4248 26.2095-58.4248 58.4247 0 32.215 26.2096 58.425 58.4248 58.425 32.2151 0 58.4251-26.21 58.4251-58.425 0-32.2152-26.21-58.4247-58.4251-58.4247z"/><path d="m84.3779 12.4954c-1.1789 0-2.1357-.9568-2.1357-2.1357v-8.22398c0-1.178917.9568-2.13572 2.1357-2.13572s2.1357.956803 2.1357 2.13572v8.22398c0 1.1789-.9568 2.1357-2.1357 2.1357z"/><path d="m168.864 86.5136h-8.224c-1.179 0-2.136-.9568-2.136-2.1357s.957-2.1357 2.136-2.1357h8.224c1.178 0 2.135.9568 2.135 2.1357s-.957 2.1357-2.135 2.1357z"/><path d="m86.622 171c-1.1789 0-2.1357-.957-2.1357-2.136v-8.224c0-1.179.9568-2.135 2.1357-2.135 1.179 0 2.1358.956 2.1358 2.135v8.224c0 1.179-.9568 2.136-2.1358 2.136z"/><path d="m10.3597 88.7578h-8.22398c-1.178917 0-2.13572-.9568-2.13572-2.1358 0-1.1789.956803-2.1357 2.13572-2.1357h8.22398c1.1789 0 2.1357.9568 2.1357 2.1357 0 1.179-.9568 2.1358-2.1357 2.1358z"/><path d="m120.997 21.4027c-.35 0-.706-.0854-1.034-.2677-1.031-.5724-1.404-1.8737-.831-2.9046l3.992-7.1902c.573-1.0309 1.874-1.40391 2.905-.8315 1.031.5723 1.404 1.8737.831 2.9045l-3.992 7.1903c-.39.7034-1.119 1.0992-1.871 1.0992z"/><path d="m158.922 127.13c-.351 0-.707-.086-1.034-.268l-7.19-3.992c-1.031-.573-1.404-1.874-.832-2.905.573-1.031 1.874-1.404 2.905-.832l7.19 3.993c1.031.572 1.404 1.874.831 2.904-.392.704-1.121 1.1-1.87 1.1z"/><path d="m46.0028 161.059c-.3502 0-.7062-.085-1.0337-.268-1.0308-.572-1.4039-1.873-.8315-2.904l3.9924-7.191c.5724-1.03 1.8737-1.403 2.9046-.831 1.0308.572 1.4039 1.874.8315 2.904l-3.9924 7.191c-.393.703-1.1191 1.099-1.8709 1.099z"/><path d="m19.2634 52.1344c-.3503 0-.7062-.0855-1.0337-.2677l-7.1903-3.9924c-1.0308-.5724-1.40384-1.8737-.8315-2.9046.5724-1.0308 1.8738-1.4038 2.9046-.8315l7.1903 3.9924c1.0308.5724 1.4039 1.8737.8315 2.9046-.393.7034-1.1191 1.0992-1.8709 1.0992z"/><path d="m149.312 47.9453c-.727 0-1.433-.3673-1.832-1.0337-.609-1.0109-.281-2.3237.729-2.9302l7.048-4.2401c1.011-.6066 2.324-.2819 2.931.729.609 1.0109.281 2.3236-.729 2.9302l-7.048 4.2401c-.345.205-.724.3047-1.099.3047z"/><path d="m129.432 158.496c-.726 0-1.432-.37-1.831-1.034l-4.24-7.048c-.609-1.01-.282-2.323.729-2.93 1.011-.606 2.324-.282 2.931.729l4.24 7.048c.609 1.011.282 2.324-.729 2.93-.345.205-.726.305-1.1.305z"/><path d="m14.6416 131.566c-.7262 0-1.4324-.367-1.8311-1.034-.6093-1.011-.2819-2.323.729-2.93l7.0479-4.24c1.0109-.607 2.3237-.282 2.9302.729.6094 1.011.2819 2.324-.729 2.93l-7.0478 4.24c-.3446.205-.7233.305-1.0992.305z"/><path d="m45.8094 23.826c-.7261 0-1.4323-.3702-1.831-1.0337l-4.2401-7.0479c-.6094-1.0109-.2819-2.3237.729-2.9302 1.0109-.6094 2.3236-.2819 2.9302.729l4.2401 7.0479c.6094 1.0109.2819 2.3236-.729 2.9302-.3446.205-.7233.3047-1.0992.3047z"/><path d="m84.9072 47.8743c-1.1789 0-2.1357-.9568-2.1357-2.1357v-4.3512c0-1.1789.9568-2.1357 2.1357-2.1357s2.1357.9568 2.1357 2.1357v4.3512c0 1.1818-.9568 2.1357-2.1357 2.1357z"/><path d="m129.612 87.0434h-4.351c-1.179 0-2.136-.9568-2.136-2.1357s.957-2.1357 2.136-2.1357h4.351c1.179 0 2.136.9568 2.136 2.1357s-.957 2.1357-2.136 2.1357z"/><path d="m86.0928 131.748c-1.179 0-2.1358-.957-2.1358-2.136v-4.351c0-1.179.9568-2.135 2.1358-2.135 1.1789 0 2.1357.956 2.1357 2.135v4.351c0 1.179-.954 2.136-2.1357 2.136z"/><path d="m45.7388 88.228h-4.3511c-1.1789 0-2.1357-.9568-2.1357-2.1357 0-1.179.9568-2.1358 2.1357-2.1358h4.3511c1.179 0 2.1358.9568 2.1358 2.1358 0 1.1789-.954 2.1357-2.1358 2.1357z"/><path d="m104.284 52.5874c-.35 0-.706-.0854-1.034-.2677-1.03-.5723-1.403-1.8737-.831-2.9045l2.113-3.8045c.572-1.0308 1.874-1.4038 2.904-.8315 1.031.5724 1.404 1.8738.832 2.9046l-2.113 3.8044c-.39.7034-1.119 1.0992-1.871 1.0992z"/><path d="m124.35 108.535c-.35 0-.706-.086-1.033-.268l-3.805-2.113c-1.031-.572-1.404-1.874-.831-2.905.572-1.03 1.873-1.403 2.904-.831l3.805 2.113c1.03.572 1.403 1.874.831 2.904-.393.704-1.119 1.1-1.871 1.1z"/><path d="m64.5985 126.489c-.3502 0-.7062-.085-1.0337-.268-1.0308-.572-1.4038-1.873-.8315-2.904l2.113-3.805c.5723-1.03 1.8737-1.404 2.9045-.831 1.0309.572 1.4039 1.874.8316 2.904l-2.113 3.805c-.3901.703-1.1191 1.099-1.8709 1.099z"/><path d="m50.4518 68.85c-.3503 0-.7062-.0854-1.0337-.2677l-3.8044-2.1129c-1.0309-.5724-1.4039-1.8737-.8315-2.9046.5723-1.0308 1.8737-1.4038 2.9045-.8315l3.8045 2.113c1.0308.5723 1.4038 1.8737.8315 2.9045-.393.7034-1.122 1.0992-1.8709 1.0992z"/><path d="m119.269 66.6344c-.727 0-1.433-.3702-1.832-1.0366-.609-1.0109-.281-2.3236.729-2.9302l3.731-2.2439c1.011-.6094 2.324-.2819 2.93.729.609 1.0109.282 2.3237-.729 2.9302l-3.73 2.2439c-.345.2079-.724.3076-1.099.3076z"/><path d="m108.749 125.13c-.726 0-1.433-.367-1.831-1.033l-2.244-3.731c-.61-1.011-.282-2.323.729-2.93 1.011-.606 2.323-.282 2.93.729l2.244 3.73c.609 1.011.282 2.324-.729 2.931-.345.205-.726.304-1.099.304z"/><path d="m48.0088 110.881c-.7262 0-1.4324-.37-1.8311-1.037-.6094-1.011-.2819-2.323.729-2.93l3.7304-2.244c1.0109-.609 2.3237-.282 2.9302.729.6066 1.011.2819 2.324-.729 2.93l-3.7304 2.244c-.3445.211-.7261.308-1.0991.308z"/><path d="m64.4988 53.8712c-.7262 0-1.4324-.3673-1.831-1.0336l-2.244-3.7304c-.6094-1.0109-.2819-2.3237.729-2.9302 1.0109-.6066 2.3237-.282 2.9302.7289l2.244 3.7304c.6093 1.0109.2819 2.3237-.729 2.9302-.3446.2051-.7233.3047-1.0992.3047z"/><path d="m84.751 88.3847c-1.179 0-2.1358-.9568-2.1358-2.1357v-27.2888c0-1.1789.9568-2.1357 2.1358-2.1357 1.1789 0 2.1357.9568 2.1357 2.1357v27.2888c0 1.1789-.954 2.1357-2.1357 2.1357z"/><path d="m70.9227 96.9816c-.7147 0-1.4124-.3588-1.8168-1.0081-.6236-1.0024-.316-2.318.6863-2.9416l13.831-8.597c1.0023-.6236 2.3179-.3161 2.9415.6863.6237 1.0024.3161 2.318-.6862 2.9416l-13.831 8.597c-.3502.2192-.7403.3218-1.1248.3218z"/></g></svg>