<svg fill="none" height="146" viewBox="0 0 150 146" width="150" xmlns="http://www.w3.org/2000/svg"><g fill="#fabb00"><path d="m144.763 58.997c-1.535-2.5779-2.985-5.013-3.773-7.4388-.836-2.5764-1.117-5.4935-1.414-8.5819-.475-4.9351-.966-10.0383-3.897-14.0655-2.962-4.069-7.684-6.1119-12.25-8.0877-2.828-1.2234-5.499-2.3792-7.654-3.9477-2.115-1.539-4.013-3.7023-6.022-5.9924-3.301-3.76288-6.714-7.65379-11.5718-9.23084-4.6474-1.509086-9.6074-.40957-14.4041.65332-2.9435.65244-5.9872 1.32685-8.7771 1.32685-2.7896 0-5.8336-.67471-8.7771-1.32685-4.7967-1.06289-9.757-2.162406-14.4043-.65303-4.8572 1.57705-8.2706 5.46797-11.5717 9.23085-2.0089 2.2898-3.9068 4.4531-6.0214 5.9921-.7442.5417-1.5932 1.0649-2.5957 1.5996-1.0708.571-1.4757 1.902-.9047 2.9728s1.902 1.4753 2.973.9044c1.1842-.6317 2.2029-1.261 3.1134-1.924 2.5099-1.8266 4.66-4.2773 6.7392-6.6471 3.0433-3.4688 5.9177-6.74535 9.6255-7.94945 3.5094-1.13907 7.6804-.21475 12.0964.76406 3.1743.70342 6.457 1.43086 9.728 1.43086s6.5534-.72744 9.728-1.43115c4.4165-.97852 8.5881-1.90284 12.0961-.76407 3.7083 1.20381 6.5823 4.48035 9.6253 7.94945 2.08 2.3698 4.229 4.8205 6.74 6.6471 2.548 1.8551 5.571 3.1629 8.495 4.4277 4.21 1.8214 8.187 3.542 10.442 6.6404 2.224 3.0568 2.637 7.3526 3.075 11.9007.307 3.1878.624 6.484 1.61 9.5179.939 2.894 2.585 5.6576 4.176 8.33 2.374 3.99 4.617 7.7578 4.617 11.7554s-2.243 7.7657-4.618 11.7551c-1.592 2.6724-3.237 5.4357-4.176 8.3294-.986 3.0339-1.303 6.3301-1.61 9.5185-.437 4.547-.851 8.844-3.076 11.9-2.255 3.099-6.231 4.819-10.441 6.641-2.924 1.264-5.947 2.572-8.496 4.427-2.509 1.827-4.659 4.278-6.739 6.647-3.043 3.469-5.917 6.746-9.6252 7.949-3.5089 1.14-7.6799.215-12.0964-.764-3.1746-.703-6.457-1.43-9.7277-1.43-3.271 0-6.5534.727-9.728 1.43-4.4162.979-8.5872 1.904-12.0964.764-3.7078-1.203-6.5824-4.48-9.6255-7.949-2.0792-2.37-4.229-4.82-6.7392-6.647-2.5488-1.855-5.5719-3.163-8.4952-4.428-4.2099-1.821-8.1867-3.542-10.4417-6.64-2.2245-3.057-2.6379-7.353-3.0758-11.901-.3068-3.1874-.6241-6.4836-1.609-9.5175-.9396-2.8937-2.5849-5.6573-4.17601-8.3294-2.3748-3.9894-4.61836-7.7575-4.61836-11.7551s2.24356-7.7654 4.61895-11.7548c1.59112-2.6724 3.23642-5.436 4.17602-8.3297.9852-3.034 1.3022-6.3304 1.6092-9.5182.4377-4.5481.8511-8.8439 3.0759-11.9007 1.2817-1.7611 3.2019-3.2192 6.2262-4.7277 1.086-.5417 1.5272-1.8612.9855-2.9469-.5417-1.0861-1.8612-1.5273-2.9469-.9856-2.4832 1.2387-5.616 3.0487-7.8182 6.0747-2.9309 4.0272-3.4219 9.1301-3.8971 14.0655-.297 3.0884-.57801 6.0055-1.41443 8.5822-.7875 2.4258-2.2374 4.8606-3.77227 7.4385-2.5749 4.3242-5.2374 8.7961-5.2374 14.0027 0 5.2069 2.6625 9.6788 5.2374 14.0033 1.53487 2.5778 2.98477 5.0127 3.77227 7.4385.83642 2.5764 1.11713 5.4934 1.41443 8.5812.4749 4.936.9662 10.039 3.8971 14.066 2.9613 4.069 7.6834 6.112 12.2499 8.088 2.828 1.223 5.4993 2.379 7.6544 3.948 2.1146 1.539 4.0122 3.702 6.0214 5.992 3.3011 3.763 6.7148 7.654 11.5719 9.231 1.6369.531 3.3118.739 5.0051.739 3.1152 0 6.2915-.704 9.399-1.392 2.9435-.653 5.9875-1.327 8.7771-1.327 2.7899 0 5.8336.674 8.7771 1.327 4.7967 1.062 9.7567 2.162 14.4043.653 4.8576-1.578 8.2706-5.468 11.5716-9.231 2.009-2.29 3.907-4.453 6.022-5.993 2.155-1.568 4.826-2.724 7.654-3.947 4.566-1.976 9.288-4.019 12.25-8.088 2.931-4.027 3.422-9.131 3.897-14.066.297-3.088.578-6.0051 1.414-8.5815.788-2.4258 2.238-4.8607 3.773-7.4385 2.574-4.3245 5.237-8.7964 5.237-14.003s-2.663-9.6785-5.237-14.003z"/><path d="m21.1094 55.4901c-.624 1.9222-1.788 3.8763-3.0199 5.9455-2.1162 3.554-4.3043 7.229-4.3043 11.5644s2.1881 8.0104 4.3043 11.5647c1.2319 2.0692 2.3956 4.0236 3.0199 5.9455.6641 2.0455.8894 4.388 1.1282 6.8683.3902 4.0565.7939 8.2505 3.2367 11.6075 2.4674 3.39 6.3484 5.069 10.1013 6.693 2.2708.982 4.4156 1.91 6.1254 3.155 1.6769 1.22 3.2004 2.956 4.8132 4.795 2.7131 3.093 5.5186 6.291 9.5651 7.605 1.3752.446 2.7759.62 4.1865.62 2.5653 0 5.1651-.576 7.7089-1.139 2.473-.549 4.8088-1.066 7.0248-1.066s4.5519.517 7.0248 1.066c3.9434.873 8.02 1.777 11.8954.519 4.0462-1.314 6.8513-4.512 9.5653-7.605 1.612-1.838 3.136-3.575 4.813-4.795 1.71-1.245 3.854-2.173 6.125-3.155 3.753-1.624 7.634-3.303 10.101-6.693 2.443-3.357 2.847-7.551 3.237-11.6072.239-2.4803.465-4.8231 1.129-6.8683.624-1.9222 1.787-3.8766 3.02-5.9458 2.116-3.5541 4.304-7.2291 4.304-11.5644 0-4.3351-2.188-8.0104-4.304-11.5644-1.232-2.0692-2.396-4.0236-3.02-5.9458-.664-2.0452-.89-4.388-1.129-6.8683-.39-4.0562-.794-8.2503-3.237-11.6069-2.467-3.3905-6.348-5.0695-10.101-6.6931-2.271-.9826-4.415-1.9105-6.125-3.1547-1.677-1.2205-3.201-2.9569-4.813-4.7956-2.714-3.0929-5.5191-6.2906-9.5653-7.6046-3.8756-1.2583-7.9523-.3548-11.8954.5191-2.4729.5482-4.8088 1.0659-7.0248 1.0659s-4.5518-.5177-7.0248-1.0659c-3.9431-.8739-8.0203-1.7774-11.8954-.5191-4.0465 1.3137-6.852 4.5117-9.5651 7.6046-1.6128 1.8384-3.1363 3.5751-4.8132 4.7956-1.7098 1.2442-3.8546 2.1723-6.1254 3.1547-3.7529 1.6236-7.6339 3.3026-10.1013 6.6931-2.4428 3.3566-2.8462 7.5507-3.2367 11.6069-.2388 2.48-.4641 4.8225-1.1282 6.8683zm5.5025-6.4476c.3492-3.6287.6791-7.0559 2.4155-9.4421 1.7611-2.4196 4.9339-3.7925 8.2934-5.2459 2.3906-1.0342 4.8627-2.1038 6.9662-3.6349 2.0722-1.5079 3.8306-3.5121 5.531-5.4504 2.4281-2.7679 4.7217-5.3824 7.6186-6.3228 2.7361-.888 6.0639-.1509 9.5874.6299 2.5951.5751 5.2787 1.1698 7.9758 1.1698s5.3807-.5947 7.9758-1.1698c3.5229-.7811 6.8505-1.5188 9.5874-.6299 2.8969.9404 5.1905 3.5549 7.619 6.3228 1.7 1.9383 3.458 3.9425 5.531 5.4504 2.103 1.5311 4.575 2.6007 6.966 3.6349 3.359 1.4534 6.532 2.826 8.293 5.2459 1.737 2.3862 2.066 5.8134 2.416 9.4421.25 2.6065.51 5.3018 1.323 7.8047.776 2.3903 2.122 4.6506 3.423 6.8367 1.896 3.1834 3.686 6.1901 3.686 9.3161s-1.79 6.133-3.686 9.3161c-1.301 2.1859-2.647 4.4464-3.423 6.8367-.813 2.5029-1.073 5.1982-1.323 7.8047-.35 3.6285-.679 7.0565-2.416 9.4425-1.761 2.419-4.934 3.792-8.293 5.246-2.391 1.034-4.863 2.103-6.966 3.634-2.073 1.508-3.831 3.513-5.531 5.451-2.4285 2.768-4.7221 5.382-7.619 6.323-2.7363.888-6.0642.15-9.5874-.63-2.5951-.575-5.2787-1.17-7.9758-1.17s-5.3807.595-7.9758 1.17c-3.5229.78-6.851 1.518-9.5874.63-2.8969-.941-5.1905-3.555-7.6186-6.323-1.7004-1.939-3.4588-3.943-5.531-5.451-2.1035-1.531-4.5756-2.6-6.9662-3.634-3.3592-1.454-6.532-2.826-8.2934-5.246-1.7364-2.387-2.0663-5.814-2.4155-9.4425-.2508-2.6065-.51-5.3015-1.3227-7.8044-.7761-2.3903-2.122-4.6506-3.4237-6.8367-1.8955-3.1834-3.6858-6.1901-3.6858-9.3164 0-3.126 1.7903-6.1327 3.6858-9.3161 1.3014-2.1861 2.6476-4.4467 3.4237-6.8367.8124-2.5029 1.0719-5.1982 1.3227-7.8047z"/><path d="m67.0849 102.129c-.1283 0-.2563-.002-.3849-.006-3.2485-.111-6.303-1.607-8.3804-4.1067l-10.9081-13.1247c-2.4179-2.9095-2.0183-7.2437.8912-9.6618l3.058-2.5415c2.9098-2.4179 7.2434-2.0183 9.6618.8912l5.4955 6.6123c.3088.3715.7026.4386.9097.4456.2051.007.6041-.0331.9375-.3832.0184-.0193.0372-.0384.0565-.0571l28.0682-27.3856c1.2609-1.3075 2.9537-2.0511 4.7711-2.0953 1.829-.0457 3.572.6273 4.899 1.8911l2.879 2.7428c2.739 2.6092 2.844 6.9603.235 9.6996-.015.0161-.031.0316-.046.0472l-14.9154 14.7424c-.8634.8535-2.2547.845-3.1073-.0181-.8531-.8631-.8449-2.2544.0179-3.1072l14.8878-14.7159c.919-.9858.874-2.535-.103-3.4667l-2.88-2.7427c-.477-.4544-1.102-.6976-1.761-.68-.658.0161-1.271.2874-1.7256.7643-.0188.0194-.0375.0384-.0566.0572l-28.0693 27.3864c-1.1054 1.1423-2.6529 1.7669-4.2369 1.7115-1.6052-.0542-3.1143-.7936-4.1406-2.0288l-5.4955-6.6123c-.8692-1.0459-2.4275-1.1894-3.4731-.3205l-3.0583 2.5415c-1.0459.8692-1.1895 2.4273-.3205 3.4732l10.9081 13.1247c1.2765 1.536 3.1535 2.4556 5.1495 2.523 1.9942.0691 3.9308-.7227 5.3083-2.1688.0152-.0162.0308-.0317.0463-.0472l12.319-12.1764c.8634-.8534 2.2547-.8449 3.1076.0182.8531.8631.8449 2.2544-.0179 3.1072l-12.2968 12.1544c-2.1513 2.2457-5.1305 3.5127-8.2298 3.5127z"/></g></svg>