<svg fill="none" height="172" viewBox="0 0 172 172" width="172" xmlns="http://www.w3.org/2000/svg"><circle cx="86" cy="86" fill="#fff" r="86"/><g fill="#000"><path d="m137.543 90.6274h-4.285v-39.6303c0-6.3527-5.169-11.5213-11.522-11.5213h-2.317c-1.435-4.0703-7.285-6.8021-8.034-7.1376-.473-.2117-1.014-.2117-1.487 0-.749.3355-6.599 3.0673-8.035 7.1376h-3.8324c-1.5685-5.804-10.2146-9.8367-11.2874-10.317-.4728-.2117-1.0139-.2117-1.4866 0-1.0728.4803-9.7186 4.513-11.2875 10.317h-3.8328c-1.4354-4.0703-7.2853-6.8021-8.0346-7.1376-.473-.2117-1.0139-.2117-1.4868 0-.7493.3355-6.5992 3.0673-8.0346 7.1376h-2.3169c-6.3527 0-11.5213 5.1686-11.5213 11.5213v39.6303h-4.2847c-3.0093 0-5.4574 2.4483-5.4574 5.4574s2.4481 5.4572 5.4574 5.4572h32.9992c.845 4.147 4.5199 7.277 8.9126 7.277h3.2073v8.887c-4.0611 2.104-6.8027 6.037-7.3892 10.545h-6.253c-3.3831 0-7.1097 2.421-8.4838 5.513l-2.4005 5.401h-3.6689c-1.0046 0-1.8191.815-1.8191 1.82 0 1.004.8145 1.819 1.8191 1.819h4.8409 59.54 4.857c1.005 0 1.819-.815 1.819-1.819 0-1.005-.814-1.82-1.819-1.82h-3.669l-2.401-5.401c-1.374-3.092-5.1-5.513-8.483-5.513h-6.2533c-.5865-4.508-3.3281-8.441-7.3892-10.545v-8.887h3.2073c4.3922 0 8.0672-3.13 8.9122-7.277h33c3.009 0 5.457-2.4481 5.457-5.4572s-2.448-5.4574-5.457-5.4574zm-26.902-54.6092c1.645.8465 3.564 2.1578 4.632 3.4576h-9.263c1.068-1.3001 2.987-2.6116 4.631-3.4576zm-24.6398-3.184c2.363 1.1825 6.7005 3.8311 8.1483 6.6416h-16.2966c1.4509-2.8046 5.7875-5.457 8.1483-6.6416zm-24.6429 3.184c1.645.8465 3.5633 2.1578 4.6315 3.4576h-9.2626c1.068-1.3001 2.9868-2.6116 4.6311-3.4576zm-11.0946 7.0959h71.4723c4.347 0 7.883 3.5362 7.883 7.883v5.5787c-3.289.4412-5.208 2.0474-6.926 3.4933-1.832 1.5419-3.279 2.76-6.402 2.76s-4.57-1.2179-6.403-2.76c-2.013-1.6943-4.294-3.6146-8.745-3.6146-4.45 0-6.7313 1.9203-8.7442 3.6148-1.8318 1.5417-3.2786 2.7598-6.4012 2.7598-3.1229 0-4.5697-1.2179-6.4017-2.76-2.0127-1.6943-4.2942-3.6146-8.7446-3.6146-4.4501 0-6.7313 1.9203-8.744 3.6146-1.076.9059-2.0923 1.7616-3.4084 2.261-.7065.2681-1.1734.945-1.1734 1.7008v10.0138c0 1.0032-.816 1.8192-1.8192 1.8192-1.0029 0-1.8191-.816-1.8191-1.8192 0-3.3159 0-9.5663.0007-9.9844.0126-.7551-.4478-1.4544-1.1735-1.7299-1.3163-.4997-2.3329-1.3554-3.4088-2.2611-1.7175-1.4461-3.6356-3.052-6.9249-3.4935v-5.5787c0-4.3468 3.5364-7.883 7.883-7.883zm-7.883 17.1456c1.9482.3818 3.1491 1.3867 4.5818 2.5927.9389.7904 1.9759 1.6631 3.2871 2.3501l-.0005 8.842c0 3.0091 2.4481 5.4574 5.4575 5.4574 3.0093 0 5.4574-2.4483 5.4574-5.4574v-8.842c1.311-.687 2.3479-1.5599 3.2868-2.3501 1.8318-1.5417 3.2786-2.7598 6.401-2.7598 3.1229 0 4.5697 1.2179 6.4015 2.76 2.0129 1.6942 4.2944 3.6145 8.7445 3.6145s6.7314-1.9203 8.7443-3.6147c1.8318-1.5417 3.2786-2.7598 6.4009-2.7598 3.124 0 4.571 1.2179 6.403 2.76 2.013 1.6942 4.294 3.6145 8.745 3.6145s6.732-1.9203 8.745-3.6145c1.434-1.2062 2.635-2.2114 4.584-2.5931v30.3674h-87.2393zm47.5317 60.2883c3.3043 1.359 5.6107 4.276 6.2198 7.702h-10.1172c-1.0046 0-1.8191.815-1.8191 1.819 0 1.005.8145 1.82 1.8191 1.82h20.051c1.954 0 4.365 1.566 5.159 3.352l1.744 3.924h-53.9378l1.744-3.924c.7939-1.786 3.2046-3.352 5.1591-3.352h12.8041c1.0047 0 1.8192-.815 1.8192-1.82 0-1.004-.8145-1.819-1.8192-1.819h-2.8703c.609-3.426 2.9155-6.343 6.2198-7.702.682-.281 1.1269-.945 1.1269-1.683v-10.046h5.5707v10.046c-.0003.738.4448 1.402 1.1269 1.683zm5.7184-15.367h-19.2616c-2.3715 0-4.3936-1.521-5.1446-3.639h29.5504c-.751 2.118-2.7725 3.639-5.1442 3.639zm41.9122-7.277h-103.0856c-1.0032 0-1.8191-.816-1.8191-1.8192s.8159-1.8191 1.8191-1.8191h103.0856c1.003 0 1.819.8159 1.819 1.8191s-.816 1.8192-1.819 1.8192z"/><path d="m111.028 84.8484c1.005 0 1.819-.8145 1.819-1.8192s-.814-1.8191-1.819-1.8191-1.819.8144-1.819 1.8191.814 1.8192 1.819 1.8192z"/><path d="m118.305 77.5718c1.005 0 1.82-.8145 1.82-1.8192s-.815-1.8191-1.82-1.8191c-1.004 0-1.819.8144-1.819 1.8191s.815 1.8192 1.819 1.8192z"/></g></svg>