<svg fill="none" height="128" viewBox="0 0 150 128" width="150" xmlns="http://www.w3.org/2000/svg"><g fill="#fabb00"><path d="m147.894 123.296c-20.001-.821-39.892-3.655-59.2731-8.426 18.6581-5.284 38.5291-7.962 59.1831-7.962 1.213 0 2.197-.983 2.197-2.197 0-1.213-.984-2.197-2.197-2.197-23.639 0-46.29 3.441-67.3255 10.228-.5075-.141-1.0163-.275-1.5232-.418-5.8403-1.648-11.8819-3.125-17.9566-4.388-1.1895-.248-2.3514.516-2.5987 1.704-.2472 1.188.5157 2.351 1.7037 2.598 5.9748 1.243 11.9159 2.695 17.6578 4.315 22.7345 6.416 46.2695 10.162 69.9515 11.134.031.001.061.002.092.002 1.172 0 2.145-.926 2.194-2.107.05-1.213-.893-2.236-2.105-2.286z"/><path d="m51.1585 106.078c-15.8795-2.704-32.3523-4.075-48.96123-4.075-1.213481 0-2.19727.984-2.19727 2.197 0 1.214.983789 2.198 2.19727 2.198 16.36263 0 32.58723 1.349 48.22353 4.012.1248.021.249.031.3715.031 1.0515 0 1.981-.757 2.1636-1.829.2036-1.196-.6012-2.331-1.7974-2.534z"/><path d="m108.922 61.9686c.157 1.0954 1.096 1.8858 2.172 1.8858.104 0 .209-.0073.315-.0225 1.201-.1723 2.035-1.2856 1.863-2.4871-.846-5.898-3.184-11.533-6.764-16.2955-.728-.9703-2.106-1.1657-3.076-.4365-.97.7289-1.165 2.1065-.437 3.0765 3.136 4.1733 5.186 9.111 5.927 14.2793z"/><path d="m67.1338 27.3777c-1.0198 2.0467-1.955 4.1116-2.7944 6.1492-7.0139 2.9223-12.902 8.0223-16.812 14.4527l-.805-4.4109c-.218-1.1939-1.3621-1.984-2.5562-1.7669-1.1938.2179-1.9849 1.3623-1.7669 2.5561l1.9105 10.4652c-1.2598 3.6433-1.9462 7.5515-1.9462 11.6179 0 6.7207 1.8612 13.0201 5.1041 18.399-7.5765-7.7238-12.2567-18.2979-12.2567-29.9463 0-15.3616 8.3069-29.6256 21.6785-37.2264 1.055-.5997 1.4242-1.9409.8245-2.9962-.5997-1.055-1.941-1.4238-2.9959-.8244-7.125 4.05-12.9402 9.8191-17.0532 16.6087l-1.0459-3.9062c-.3137-1.1721-1.5184-1.8691-2.6909-1.5542-1.1722.3138-1.868 1.5185-1.5542 2.691l2.2966 8.5781c-2.499 5.8005-3.8543 12.1245-3.8543 18.6296 0 4.6822.6888 9.2059 1.9649 13.4789l-1.6573-.2203c-1.2053-.1606-2.3077.6858-2.4677 1.8884-.1599 1.203.6856 2.3077 1.8885 2.4677l3.8968.518c7.1215 17.044 23.9643 29.0526 43.5606 29.0526 23.351 0 42.792-17.0512 46.533-39.3563l6.131-6.4298c.838-.8783.805-2.2691-.073-3.1067-.879-.8376-2.269-.8047-3.107.0739l-2.308 2.4205c.004-.2622.01-.5239.01-.7869 0-8.9836-2.577-17.6262-7.196-25.0134v-10.582c0-1.2135-.984-2.1973-2.197-2.1973-1.214 0-2.198.9838-2.198 2.1973v4.6456c-3.455-3.9827-7.596-7.4171-12.311-10.0972-1.055-.5997-2.3962-.2309-2.9956.8244-.5997 1.055-.2305 2.3962.8244 2.9962 11.3612 6.4582 19.0632 17.7281 21.1232 30.3932l-1.519-1.0632c-.994-.6961-2.364-.4544-3.06.5393-.696.9941-.454 2.3643.539 3.0604l4.577 3.2045c.009.3635.018.7271.018 1.0919 0 11.6833-4.708 22.2861-12.325 30.0158 2.399-3.956 4.033-8.361 4.747-12.9545.186-1.1991-.635-2.3224-1.834-2.5087-1.199-.1857-2.322.6349-2.509 1.8337-2.041 13.137-12.4513 23.5702-25.3425 25.9058 4.4616-5.4343 11.1999-15.8663 12.6882-30.6012 1.6857-.8766 4.9073-2.9095 6.9753-6.4696.609-1.0495.252-2.3942-.797-3.0036-1.049-.6096-2.394-.2528-3.0034.7966-.8028 1.3823-1.8721 2.4604-2.8793 3.2634.0589-6.675-.9879-14.1091-3.7108-22.248 1.2252.6618 2.4147 1.4042 3.557 2.235.9814.7143 2.3554.4972 3.0694-.4843.7141-.9814.4972-2.3554-.4843-3.0694-2.5957-1.8882-5.3953-3.3946-8.3358-4.5082-.7831-1.8729-1.6527-3.779-2.6195-5.7193-.5411-1.0861-1.86-1.5279-2.9463-.987-1.0864.5411-1.5282 1.8603-.9871 2.9463.3633.7292.7108 1.4526 1.0459 2.1715-2.3156-.467-4.6904-.7066-7.1003-.7066-2.778 0-5.4824.3199-8.0789.924.3691-.7972.7476-1.5943 1.1434-2.3889.5411-1.0863.0993-2.4052-.987-2.9463-1.0852-.5403-2.4041-.0982-2.9452.9878zm20.1507 9.2221c6.5765 16.8478 5.5186 30.5985 2.1694 40.805l-4.3064-9.9946c-.4801-1.1145-1.7724-1.6292-2.8872-1.1485-1.1144.4802-1.6286 1.7728-1.1484 2.8872l6.0542 14.0514c-1.415 3.0466-2.9757 5.6519-4.4561 7.7965-.7702-.23-5.7799-1.8627-10.0198-6.4951l2.0224-5.3719c.4274-1.1356-.1465-2.4029-1.282-2.8307-1.1356-.4271-2.403.1465-2.8307 1.2821l-.9917 2.6343c-.7884-1.425-1.4713-3.0228-1.9896-4.8146-.3375-1.1657-1.5559-1.8366-2.7213-1.5-1.1658.3372-1.8372 1.5559-1.5 2.7214 3.4069 11.7741 12.6146 16.5255 16.5205 18.0509-1.1833 1.4148-2.1657 2.42-2.766 3.0006-.2194-.0044-.4379-.0111-.6565-.0187-.0398-.0041-.0791-.0103-.1195-.0123-11.3441-.5813-21.0076-7.1614-25.9949-16.578.356-1.7525 1.7904-7.3869 6.0709-11.1322.9132-.7992 1.0058-2.1873.2069-3.1005-.7992-.9132-2.1873-1.0057-3.1005-.2068-2.7689 2.4226-4.5633 5.3886-5.7138 8.0115-.7075-2.6144-1.0854-5.3628-1.0854-8.1964 0-17.2283 14.0162-31.2442 31.2442-31.2442 3.1881.0003 6.3065.4796 9.2813 1.4036z"/><path d="m26.0008 23.5349c.3516.2091.7383.3088 1.1201.3088.7485 0 1.4786-.3827 1.8905-1.0711.0272-.0454 2.7864-4.5944 8.7152-9.0686 7.9119-5.97099 17.4323-8.99853 28.2967-8.99853 1.2135 0 2.1973-.98378 2.1973-2.19726s-.9838-2.197266-2.1973-2.197266c-8.2265 0-15.0436 1.671976-20.5104 3.939546l-5.8981-2.05898c-1.1464-.40049-2.3988.20479-2.7987 1.35029-.3999 1.1458.2045 2.39883 1.3503 2.79873l1.8067.63076c-1.9391 1.11211-3.6299 2.26114-5.0713 3.35981-6.544 4.9875-9.5452 9.9884-9.6697 10.1988-.617 1.0424-.2725 2.3853.7687 3.005z"/><path d="m9.88579 18.5093c.19281 0 .38881-.0255.58391-.0791l1.8635-.5124c-.5147 1.3986-.9436 2.903-1.2377 4.5061-.2195 1.1936.5707 2.3388 1.7639 2.558.1342.0246.2678.0366.3996.0366 1.0398 0 1.9641-.7415 2.1586-1.8006 1.5847-8.6265 7.9743-14.08771 8.0385-14.14191.9287-.77754 1.0532-2.16064.2774-3.0914-.7769-.93252-2.1627-1.05821-3.0946-.28125-.1942.16201-3.1183 2.63847-5.751 6.95476l-5.58307 1.5352c-1.17012.3217-1.85771 1.531-1.53633 2.7011.26807.9748 1.15254 1.6149 2.11729 1.6149z"/><path d="m110.519 102.08c.559-.055 10.863-1.142 20.593-8.3323h9c1.213 0 2.197-.9838 2.197-2.1972 0-1.2135-.984-2.1973-2.197-2.1973h-3.949c1.418-1.4499 2.789-3.0606 4.074-4.8551.707-.9864.481-2.359-.506-3.0659-.987-.7066-2.359-.4799-3.066.5066-4.357 6.0814-9.89 9.851-14.76 12.1707l.999-3.8973c.301-1.1754-.407-2.3728-1.583-2.6739-1.174-.3012-2.373.4072-2.674 1.5829l-1.799 7.0166c-3.802 1.255-6.463 1.5504-6.542 1.5583-1.206.1192-2.089 1.1926-1.971 2.3989.11 1.136 1.066 1.985 2.184 1.985z"/><path d="m58.1244 58.1301c.2449.0879.4951.1295.7412.1295.9014 0 1.7469-.559 2.0686-1.4564.0188-.0518.7855-2.117 2.5544-4.5167l6.6715.4606c.0516.0035.1028.0055.1535.0055 1.1444 0 2.1097-.8868 2.19-2.0461.0835-1.2105-.83-2.2596-2.0409-2.3434l-2.9162-.2016c2.8755-2.1445 6.8075-3.7163 12.0238-3.2335 1.2079.1108 2.2784-.7769 2.3903-1.9854.1116-1.2085-.7773-2.2785-1.9855-2.3904-8.9519-.8279-14.794 3.245-18.1177 6.808-3.5432 3.7984-4.9995 7.7918-5.0599 7.96-.4096 1.1426.1843 2.4006 1.3269 2.8099z"/></g></svg>