<svg width="36" height="40" viewBox="0 0 36 40" fill="none" xmlns="http://www.w3.org/2000/svg">
<path d="M14.4272 11.4393C13.6528 9.92822 13.2156 8.26713 13.1457 6.57067C13.7433 6.359 14.2094 5.81408 14.2373 5.1515C14.2495 4.82444 14.1615 4.50148 13.985 4.22584C13.8086 3.9502 13.5521 3.73504 13.25 3.60917V0.84825C13.25 0.38875 12.8372 0 12.3777 0H4.54258C4.08333 0 3.75 0.38875 3.75 0.84825V3.61917C3.4452 3.73133 3.18262 3.93514 2.99834 4.20258C2.81407 4.47003 2.71716 4.78799 2.72092 5.11275C2.72468 5.43751 2.82894 5.75313 3.01936 6.01624C3.20978 6.27935 3.47701 6.47702 3.78433 6.58208C3.71111 8.27497 3.27238 9.93195 2.49825 11.4393L1.41292 13.5602C0.485083 15.3981 0 17.3352 0 19.3177V36.9851C0.00578433 37.7845 0.32655 38.5494 0.892705 39.1138C1.45886 39.6782 2.22473 39.9967 3.02417 40H13.8962C14.6952 39.9965 15.4606 39.6779 16.0262 39.1134C16.5917 38.549 16.9117 37.7841 16.9167 36.9851V19.3177C16.9167 17.3351 16.436 15.398 15.5083 13.5602L14.4272 11.4393ZM4.75 1H12.25V3.5H4.75V1ZM15.9167 36.9851C15.912 37.519 15.6975 38.0296 15.3194 38.4067C14.9413 38.7837 14.4301 38.9968 13.8962 39H3.02417C2.48986 38.997 1.97816 38.784 1.59948 38.407C1.22079 38.0301 1.00548 37.5194 1 36.9851V21.0813C1.08333 21.1024 1.14425 21.1243 1.211 21.1467C1.82965 21.3722 2.48466 21.4814 3.143 21.4686C3.80034 21.4814 4.45436 21.3723 5.07192 21.1467C5.58628 20.9545 6.1328 20.8628 6.68175 20.8768C7.23043 20.8628 7.77668 20.9545 8.29075 21.1467C8.90737 21.3724 9.56053 21.4815 10.217 21.4686C10.8735 21.4815 11.5266 21.3724 12.1432 21.1467C12.6571 20.9545 13.2031 20.8628 13.7516 20.8768C14.3035 20.863 14.8529 20.9546 15.3704 21.1467C15.548 21.2153 15.7306 21.2701 15.9167 21.3105V36.9851ZM15.9167 20.27C15.8333 20.2469 15.7613 20.223 15.6883 20.1985C15.0699 19.973 14.4152 19.8639 13.7571 19.8768C13.0999 19.8639 12.4459 19.973 11.8285 20.1985C11.3141 20.3908 10.7676 20.4825 10.2187 20.4686C9.67001 20.4825 9.12379 20.3908 8.60975 20.1985C7.99315 19.9729 7.34002 19.8638 6.68358 19.8768C6.02717 19.8638 5.37407 19.9729 4.7575 20.1985C4.24367 20.3908 3.69764 20.4825 3.14917 20.4686C2.59678 20.4823 2.04683 20.3906 1.52875 20.1985C1.35719 20.131 1.18033 20.0778 1 20.0395V19.3177C1 17.4932 1.44642 15.7077 2.303 14.0108L3.37975 11.8899C4.21194 10.2684 4.68649 8.48726 4.77133 6.66667H5.25C5.38261 6.66667 5.50978 6.61399 5.60355 6.52022C5.69732 6.42645 5.75 6.29928 5.75 6.16667C5.75 6.03406 5.69732 5.90688 5.60355 5.81311C5.50978 5.71935 5.38261 5.66667 5.25 5.66667H4.3065C4.1632 5.66893 4.02385 5.61971 3.91375 5.52796C3.80366 5.43622 3.73012 5.30802 3.7065 5.16667C3.6946 5.08427 3.70048 5.00029 3.72374 4.92036C3.74699 4.84042 3.78709 4.7664 3.84133 4.70324C3.89557 4.64009 3.96269 4.58928 4.0382 4.55423C4.11371 4.51917 4.19584 4.50068 4.27908 4.5H12.614C12.7572 4.49781 12.8965 4.54706 13.0065 4.63881C13.1165 4.73055 13.1899 4.85871 13.2135 5C13.2254 5.08239 13.2195 5.16638 13.1963 5.24631C13.173 5.32624 13.1329 5.40027 13.0787 5.46342C13.0244 5.52657 12.9573 5.57739 12.8818 5.61244C12.8063 5.6475 12.7242 5.66599 12.6409 5.66667H8.58333C8.45072 5.66667 8.32355 5.71935 8.22978 5.81311C8.13601 5.90688 8.08333 6.03406 8.08333 6.16667C8.08333 6.29928 8.13601 6.42645 8.22978 6.52022C8.32355 6.61399 8.45072 6.66667 8.58333 6.66667H12.1491C12.2317 8.48685 12.7042 10.2681 13.5346 11.8899L14.6155 14.0108C15.4721 15.7076 15.9167 17.4931 15.9167 19.3177V20.27Z" fill="black"/>
<path d="M3.1665 29.0342C3.0339 29.0342 2.90672 29.0869 2.81295 29.1806C2.71918 29.2744 2.6665 29.4016 2.6665 29.5342V34.7833C2.6665 34.916 2.71918 35.0431 2.81295 35.1369C2.90672 35.2307 3.0339 35.2833 3.1665 35.2833C3.29911 35.2833 3.42629 35.2307 3.52006 35.1369C3.61383 35.0431 3.6665 34.916 3.6665 34.7833V29.5342C3.6665 29.4016 3.61383 29.2744 3.52006 29.1806C3.42629 29.0869 3.29911 29.0342 3.1665 29.0342V29.0342Z" fill="black"/>
<path d="M3.1665 25.3895C3.0339 25.3895 2.90672 25.4421 2.81295 25.5359C2.71918 25.6297 2.6665 25.7569 2.6665 25.8895V27.6906C2.6665 27.8232 2.71918 27.9504 2.81295 28.0442C2.90672 28.138 3.0339 28.1906 3.1665 28.1906C3.29911 28.1906 3.42629 28.138 3.52006 28.0442C3.61383 27.9504 3.6665 27.8232 3.6665 27.6906V25.8895C3.6665 25.7569 3.61383 25.6297 3.52006 25.5359C3.42629 25.4421 3.29911 25.3895 3.1665 25.3895Z" fill="black"/>
<path d="M3.1665 23.1234C3.0339 23.1234 2.90672 23.176 2.81295 23.2698C2.71918 23.3636 2.6665 23.4907 2.6665 23.6234V24.0239C2.6665 24.1565 2.71918 24.2837 2.81295 24.3775C2.90672 24.4713 3.0339 24.5239 3.1665 24.5239C3.29911 24.5239 3.42629 24.4713 3.52006 24.3775C3.61383 24.2837 3.6665 24.1565 3.6665 24.0239V23.6234C3.6665 23.4907 3.61383 23.3636 3.52006 23.2698C3.42629 23.176 3.29911 23.1234 3.1665 23.1234Z" fill="black"/>
<path d="M35.3094 20.5833H22.2094C22.1391 20.584 22.0697 20.5993 22.0056 20.6283C21.9416 20.6574 21.8843 20.6995 21.8375 20.752C21.7907 20.8045 21.7554 20.8661 21.7338 20.9331C21.7122 21 21.7049 21.0707 21.7122 21.1406L23.5477 38.353C23.5946 38.8041 23.8067 39.2218 24.1432 39.5259C24.4797 39.83 24.9167 39.9988 25.3702 40H32.1482C32.6017 39.9991 33.0389 39.8305 33.3754 39.5265C33.712 39.2225 33.9242 38.8047 33.9712 38.3536L35.8067 21.1458C35.8141 21.0754 35.8068 21.0043 35.7853 20.9368C35.7638 20.8694 35.7285 20.8072 35.6817 20.7541C35.635 20.7012 35.5778 20.6587 35.5136 20.6293C35.4495 20.5998 35.3799 20.5842 35.3094 20.5833ZM32.9768 38.2476C32.9557 38.453 32.8594 38.6435 32.7064 38.7823C32.5535 38.9212 32.3547 38.9987 32.1482 39H25.3702C25.1637 38.9987 24.9649 38.9212 24.812 38.7823C24.659 38.6435 24.5628 38.453 24.5417 38.2476L23.4823 28.3142C23.5436 28.333 23.6038 28.3511 23.6663 28.3721C24.5644 28.6798 25.5394 28.6793 26.4371 28.3706C27.1288 28.1312 27.8809 28.1312 28.5726 28.3706C29.4705 28.679 30.4456 28.679 31.3435 28.3706C32.0353 28.1313 32.7875 28.1313 33.4794 28.3706C33.6541 28.4335 33.8325 28.4854 34.0136 28.5261L32.9768 38.2476ZM34.1204 27.5181C34.0077 27.4896 33.9055 27.4572 33.797 27.4209C32.8989 27.1131 31.9238 27.1135 31.026 27.422C30.3342 27.6615 29.582 27.6615 28.8902 27.422C27.9924 27.1136 27.0173 27.1136 26.1194 27.422C25.4277 27.6614 24.6756 27.6614 23.9839 27.422C23.7838 27.3498 23.5784 27.2929 23.3697 27.2518L22.7652 21.5833H34.7532L34.1204 27.5181Z" fill="black"/>
</svg>
