<svg width="40" height="37" viewBox="0 0 40 37" fill="none" xmlns="http://www.w3.org/2000/svg">
<path d="M39.9966 13.0713L39.9858 12.5375L39.4537 12.4915C38.1034 12.3748 36.9995 11.3607 36.7692 10.0253L36.6574 9.37734L36.024 9.55406C35.6926 9.64656 35.3514 9.69344 35.0098 9.69344C32.9341 9.69344 31.2453 8.00461 31.2453 5.92891C31.2453 5.67953 31.2702 5.42906 31.3192 5.18445L31.4334 4.61453L30.8662 4.48789C29.5127 4.18578 28.5303 2.95875 28.5303 1.57031C28.5303 1.31602 28.5623 1.06328 28.6254 0.819297L28.7973 0.154531L28.1147 0.0800781C27.6271 0.0269531 27.1349 0 26.6517 0C20.4071 0 15.151 4.31062 13.701 10.1124C13.5837 10.1094 13.4662 10.1077 13.3481 10.1077C5.98797 10.1076 0 16.0955 0 23.4558C0 30.8159 5.98797 36.804 13.3482 36.804C19.5929 36.804 24.8489 32.4934 26.2989 26.6916C26.4162 26.6947 26.5338 26.6962 26.6518 26.6962C34.012 26.6962 40 20.7083 40 13.348C40 13.2555 39.9984 13.1634 39.9966 13.0713ZM13.3482 35.6159C6.64312 35.6159 1.18813 30.1609 1.18813 23.4558C1.18813 16.7507 6.64312 11.2957 13.3482 11.2957C20.0533 11.2957 25.5083 16.7507 25.5083 23.4558C25.5083 30.1609 20.0533 35.6159 13.3482 35.6159ZM26.6518 25.5081C26.614 25.5081 26.5766 25.507 26.5388 25.5067C26.6423 24.838 26.6964 24.1531 26.6964 23.4558C26.6964 16.6225 21.5349 10.973 14.9061 10.199C16.297 5.01562 21.0355 1.18797 26.6518 1.18797C26.8854 1.18797 27.1213 1.19484 27.3579 1.20867C27.3475 1.32875 27.3423 1.44945 27.3423 1.57031C27.3423 3.32391 28.4641 4.89328 30.0767 5.4907C30.0638 5.63656 30.0573 5.78281 30.0573 5.92891C30.0573 8.65984 32.2791 10.8816 35.01 10.8816C35.2569 10.8816 35.5035 10.863 35.7479 10.8261C36.2075 12.2194 37.3735 13.2751 38.8095 13.5923C38.6792 20.1854 33.2755 25.5081 26.6518 25.5081Z" fill="black"/>
<path d="M25.0391 4.42029C24.05 4.42029 23.2451 5.22505 23.2451 6.21427C23.2451 7.20349 24.0499 8.00826 25.0391 8.00826C26.0283 8.00826 26.8331 7.20349 26.8331 6.21427C26.8331 5.22505 26.0282 4.42029 25.0391 4.42029ZM25.0391 6.82013C24.7051 6.82013 24.4332 6.54833 24.4332 6.21427C24.4332 5.88021 24.705 5.60841 25.0391 5.60841C25.3732 5.60841 25.645 5.88021 25.645 6.21427C25.645 6.54833 25.3731 6.82013 25.0391 6.82013Z" fill="black"/>
<path d="M17.9579 6.86182C17.7506 7.13791 17.5538 7.42721 17.373 7.72135L18.3853 8.3433C18.5469 8.08041 18.7227 7.82197 18.908 7.57525L17.9579 6.86182Z" fill="black"/>
<path d="M22.8117 3.16663C21.2432 3.78124 19.8092 4.76499 18.6646 6.01155L19.5397 6.81514C20.5628 5.701 21.844 4.82186 23.2451 4.27288L22.8117 3.16663Z" fill="black"/>
<path d="M35.7382 16.8569C35.424 17.6323 35.0112 18.3675 34.5112 19.0421L35.4658 19.7495C36.0254 18.9944 36.4876 18.1714 36.8393 17.3032L35.7382 16.8569Z" fill="black"/>
<path d="M30.3208 17.612C29.3316 17.612 28.5269 18.4168 28.5269 19.406C28.5269 20.3952 29.3316 21.2 30.3208 21.2C31.3101 21.2 32.1148 20.3951 32.1148 19.406C32.1148 18.4168 31.3101 17.612 30.3208 17.612ZM30.3208 20.0118C29.9868 20.0118 29.715 19.74 29.715 19.406C29.715 19.0719 29.9868 18.8001 30.3208 18.8001C30.6549 18.8001 30.9267 19.0719 30.9267 19.406C30.9267 19.7401 30.655 20.0118 30.3208 20.0118Z" fill="black"/>
<path d="M26.6519 9.91272C25.6627 9.91272 24.8579 10.7176 24.8579 11.7067C24.8579 12.6959 25.6627 13.5007 26.6519 13.5007C27.6411 13.5007 28.4459 12.6959 28.4459 11.7067C28.4459 10.7176 27.6411 9.91272 26.6519 9.91272ZM26.6519 12.3126C26.3178 12.3126 26.046 12.0408 26.046 11.7068C26.046 11.3727 26.3178 11.1009 26.6519 11.1009C26.986 11.1009 27.2578 11.3728 27.2578 11.7068C27.2578 12.0408 26.986 12.3126 26.6519 12.3126Z" fill="black"/>
<path d="M33.2557 12.4099C32.0296 12.4099 31.0322 13.4074 31.0322 14.6334C31.0322 15.8595 32.0297 16.857 33.2557 16.857C34.4819 16.857 35.4793 15.8595 35.4793 14.6334C35.4793 13.4074 34.4818 12.4099 33.2557 12.4099ZM33.2557 15.6689C32.6848 15.6689 32.2204 15.2045 32.2204 14.6334C32.2204 14.0625 32.6848 13.598 33.2557 13.598C33.8267 13.598 34.2912 14.0624 34.2912 14.6334C34.2912 15.2044 33.8268 15.6689 33.2557 15.6689Z" fill="black"/>
<path d="M14.1309 12.9551C13.1417 12.9551 12.3369 13.7599 12.3369 14.7491C12.3369 15.7382 13.1417 16.543 14.1309 16.543C15.1201 16.543 15.9249 15.7383 15.9249 14.7491C15.9249 13.7598 15.1201 12.9551 14.1309 12.9551ZM14.1309 15.3549C13.7968 15.3549 13.525 15.0831 13.525 14.7491C13.525 14.415 13.7968 14.1432 14.1309 14.1432C14.465 14.1432 14.7368 14.4151 14.7368 14.7491C14.7368 15.083 14.465 15.3549 14.1309 15.3549Z" fill="black"/>
<path d="M4.43055 16.9205C4.22297 17.197 4.02617 17.4862 3.8457 17.7801L4.85805 18.4019C5.0193 18.1394 5.19516 17.8809 5.38063 17.6339L4.43055 16.9205Z" fill="black"/>
<path d="M9.28439 13.2253C7.71596 13.8398 6.28189 14.8236 5.13721 16.0703L6.01236 16.8739C7.03541 15.7597 8.31674 14.8805 9.71775 14.3316L9.28439 13.2253Z" fill="black"/>
<path d="M22.477 27.0552C22.1627 27.8303 21.7501 28.5655 21.25 29.2403L22.2046 29.9477C22.7643 29.1924 23.2264 28.3694 23.578 27.5013L22.477 27.0552Z" fill="black"/>
<path d="M4.95244 28.0898L3.9126 28.6647C4.43611 29.6116 5.09416 30.4768 5.86854 31.2365L6.70057 30.3884C6.0083 29.7092 5.42025 28.9359 4.95244 28.0898Z" fill="black"/>
<path d="M4.1065 26.0588L2.96143 26.3756C3.08033 26.8052 3.22658 27.2317 3.39635 27.6434L4.49471 27.1905C4.34322 26.823 4.2126 26.4424 4.1065 26.0588Z" fill="black"/>
<path d="M17.0171 27.7197C16.0279 27.7197 15.2231 28.5246 15.2231 29.5137C15.2231 30.5029 16.028 31.3077 17.0171 31.3077C18.0063 31.3077 18.8111 30.5029 18.8111 29.5137C18.8111 28.5245 18.0063 27.7197 17.0171 27.7197ZM17.0171 30.1196C16.6831 30.1196 16.4113 29.8478 16.4113 29.5137C16.4113 29.1796 16.6831 28.9079 17.0171 28.9079C17.3512 28.9079 17.623 29.1797 17.623 29.5137C17.623 29.8478 17.3511 30.1196 17.0171 30.1196Z" fill="black"/>
<path d="M5.14604 20.4619C4.15682 20.4619 3.35205 21.2667 3.35205 22.2559C3.35205 23.2451 4.15689 24.0499 5.14604 24.0499C6.13518 24.0499 6.94002 23.245 6.94002 22.2559C6.93994 21.2667 6.13525 20.4619 5.14604 20.4619ZM5.14604 22.8618C4.81197 22.8618 4.54018 22.5899 4.54018 22.2559C4.54018 21.9218 4.81205 21.65 5.14604 21.65C5.4801 21.65 5.75189 21.9218 5.75189 22.2559C5.75189 22.59 5.4801 22.8618 5.14604 22.8618Z" fill="black"/>
<path d="M13.3482 20.0204C12.359 20.0204 11.5542 20.8252 11.5542 21.8144C11.5542 22.8035 12.359 23.6084 13.3482 23.6084C14.3374 23.6084 15.1422 22.8036 15.1422 21.8144C15.1422 20.8251 14.3374 20.0204 13.3482 20.0204ZM13.3482 22.4202C13.0141 22.4202 12.7423 22.1484 12.7423 21.8144C12.7423 21.4803 13.0142 21.2085 13.3482 21.2085C13.6822 21.2085 13.954 21.4804 13.954 21.8144C13.954 22.1484 13.6822 22.4202 13.3482 22.4202Z" fill="black"/>
<path d="M21.5819 20.888C20.3558 20.8881 19.3584 21.8856 19.3584 23.1116C19.3584 24.3377 20.3559 25.3351 21.5819 25.3351C22.808 25.3351 23.8055 24.3376 23.8055 23.1116C23.8055 21.8855 22.808 20.888 21.5819 20.888ZM21.5819 24.147C21.011 24.147 20.5465 23.6825 20.5465 23.1116C20.5465 22.5407 21.011 22.0761 21.5819 22.0761C22.1529 22.0762 22.6174 22.5407 22.6174 23.1116C22.6174 23.6825 22.1529 24.147 21.5819 24.147Z" fill="black"/>
<path d="M10.1058 29.4268C8.87975 29.4268 7.88232 30.4243 7.88232 31.6504C7.88232 32.8764 8.87982 33.8739 10.1058 33.8739C11.3319 33.8739 12.3294 32.8764 12.3294 31.6504C12.3295 30.4242 11.3319 29.4268 10.1058 29.4268ZM10.1058 32.6857C9.5349 32.6857 9.07045 32.2212 9.07045 31.6503C9.07045 31.0793 9.5349 30.6148 10.1058 30.6148C10.6769 30.6148 11.1413 31.0793 11.1413 31.6503C11.1414 32.2212 10.6768 32.6857 10.1058 32.6857Z" fill="black"/>
</svg>
