<svg width="40" height="47" viewBox="0 0 40 47" fill="none" xmlns="http://www.w3.org/2000/svg">
<path d="M2.30571 22.9852V41.5569C2.30826 44.105 4.37325 46.17 6.92134 46.1725H33.0766C35.6246 46.17 37.6896 44.105 37.6922 41.5569V22.9852C39.052 22.6437 40.004 21.4193 40 20.0173C40 18.3179 38.6223 16.9402 36.9229 16.9402H36.0921C35.71 14.2932 33.4432 12.3277 30.7687 12.3246H29.2302C28.1708 12.3179 27.3137 11.4608 27.307 10.4014C27.2969 8.9728 26.4074 7.69817 25.07 7.19587C25.8667 4.96489 25.1118 2.47527 23.2102 1.06245C21.3086 -0.35037 18.7071 -0.354511 16.801 1.05225C14.895 2.45901 14.1322 4.94621 14.9218 7.17972C14.4673 7.34663 14.0547 7.61044 13.7125 7.95283C13.0552 8.59757 12.6867 9.48075 12.6909 10.4014C12.6909 10.9115 12.4882 11.4006 12.1276 11.7613C11.7669 12.122 11.2777 12.3246 10.7677 12.3246H9.22915C6.55368 12.3254 4.28527 14.2919 3.90502 16.9402H3.07498C1.52739 16.9383 0.220167 18.0883 0.0247972 19.6235C-0.170573 21.1587 0.80696 22.5994 2.30571 22.9852ZM19.9989 1.55481C22.1232 1.55481 23.8453 3.27688 23.8453 5.40116C23.8453 7.52544 22.1232 9.24752 19.9989 9.24752C17.8747 9.24752 16.1526 7.52544 16.1526 5.40116C16.1551 3.27793 17.8757 1.55735 19.9989 1.55481ZM6.51362 14.9894C7.23057 14.2641 8.20937 13.8582 9.22915 13.8631H10.7677C12.6787 13.861 14.2273 12.3124 14.2294 10.4014C14.238 9.54011 14.81 8.78618 15.6372 8.54594C16.6443 9.95069 18.2664 10.7844 19.9949 10.7858C21.7233 10.7872 23.3467 9.95601 24.3561 8.55286C25.1884 8.78217 25.766 9.53806 25.7685 10.4014C25.7748 12.3106 27.321 13.8568 29.2302 13.8631H30.7687C32.5958 13.8654 34.1701 15.1506 34.5382 16.9402H5.45972C5.60848 16.1993 5.97552 15.5199 6.51362 14.9894V14.9894ZM1.988 18.9303C2.27548 18.6407 2.66689 18.4781 3.07498 18.4788H36.9229C37.7726 18.4788 38.4614 19.1676 38.4614 20.0173C38.4614 20.867 37.7726 21.5559 36.9229 21.5559H12.3062C11.8814 21.5559 11.537 21.9003 11.537 22.3251C11.537 22.75 11.8814 23.0944 12.3062 23.0944H36.1536V41.5569C36.1536 43.2563 34.776 44.634 33.0766 44.634H6.92134C5.22191 44.634 3.84425 43.2563 3.84425 41.5569V23.0944H8.45988C8.88474 23.0944 9.22915 22.75 9.22915 22.3251C9.22915 21.9003 8.88474 21.5559 8.45988 21.5559H3.07498C2.45328 21.5551 1.89313 21.1803 1.65531 20.6058C1.4175 20.0314 1.54877 19.3703 1.988 18.9303V18.9303Z" fill="black"/>
<path d="M18.4602 6.17041C18.885 6.17041 19.2295 5.82599 19.2295 5.40114C19.2295 4.97628 19.5739 4.63186 19.9987 4.63186C20.4236 4.63186 20.768 4.28745 20.768 3.86259C20.768 3.43774 20.4236 3.09332 19.9987 3.09332C18.7242 3.09332 17.6909 4.12657 17.6909 5.40114C17.6909 5.60516 17.772 5.80083 17.9162 5.94509C18.0605 6.08936 18.2562 6.17041 18.4602 6.17041Z" fill="black"/>
<path d="M5.38281 26.9408C5.38281 27.3656 5.72723 27.7101 6.15208 27.7101H33.8458C34.2707 27.7101 34.6151 27.3656 34.6151 26.9408C34.6151 26.5159 34.2707 26.1715 33.8458 26.1715H6.15208C5.72723 26.1715 5.38281 26.5159 5.38281 26.9408Z" fill="black"/>
<path d="M33.8458 39.2491H6.15208C5.72723 39.2491 5.38281 39.5935 5.38281 40.0184C5.38281 40.4432 5.72723 40.7876 6.15208 40.7876H33.8458C34.2707 40.7876 34.6151 40.4432 34.6151 40.0184C34.6151 39.5935 34.2707 39.2491 33.8458 39.2491Z" fill="black"/>
<path d="M12.3064 29.2485C11.8815 29.2485 11.5371 29.5929 11.5371 30.0178V35.4027C11.5371 36.6773 12.5704 37.7105 13.8449 37.7105C15.1195 37.7105 16.1527 36.6773 16.1527 35.4027V30.0178C16.1527 29.5929 15.8083 29.2485 15.3835 29.2485C14.9586 29.2485 14.6142 29.5929 14.6142 30.0178V35.4027C14.6142 35.8276 14.2698 36.172 13.8449 36.172C13.4201 36.172 13.0757 35.8276 13.0757 35.4027V30.0178C13.0757 29.5929 12.7312 29.2485 12.3064 29.2485Z" fill="black"/>
<path d="M19.9987 30.7871C20.4236 30.7871 20.768 31.1315 20.768 31.5563C20.768 31.9812 21.1124 32.3256 21.5373 32.3256C21.9621 32.3256 22.3065 31.9812 22.3065 31.5563C22.3065 30.2818 21.2733 29.2485 19.9987 29.2485C18.7242 29.2485 17.6909 30.2818 17.6909 31.5563V35.4027C17.6909 36.6773 18.7242 37.7105 19.9987 37.7105C21.2733 37.7105 22.3065 36.6773 22.3065 35.4027V34.6334C22.7314 34.6334 23.0758 34.289 23.0758 33.8642C23.0758 33.4393 22.7314 33.0949 22.3065 33.0949H20.768C20.3431 33.0949 19.9987 33.4393 19.9987 33.8642C19.9987 34.289 20.3431 34.6334 20.768 34.6334V35.4027C20.768 35.8276 20.4236 36.172 19.9987 36.172C19.5739 36.172 19.2295 35.8276 19.2295 35.4027V31.5563C19.2295 31.1315 19.5739 30.7871 19.9987 30.7871Z" fill="black"/>
<path d="M27.6916 37.7105C28.1164 37.7105 28.4608 37.3661 28.4608 36.9412V31.5563C28.4608 30.2818 27.4276 29.2485 26.153 29.2485C24.8785 29.2485 23.8452 30.2818 23.8452 31.5563V36.9412C23.8452 37.3661 24.1896 37.7105 24.6145 37.7105C25.0393 37.7105 25.3838 37.3661 25.3838 36.9412V34.6334H26.9223V36.9412C26.9223 37.3661 27.2667 37.7105 27.6916 37.7105ZM25.3838 33.0949V31.5563C25.3838 31.1315 25.7282 30.7871 26.153 30.7871C26.5779 30.7871 26.9223 31.1315 26.9223 31.5563V33.0949H25.3838Z" fill="black"/>
<path d="M31.9227 29.2485H30.7688C30.3439 29.2485 29.9995 29.593 29.9995 30.0178V36.9413C29.9995 37.3661 30.3439 37.7105 30.7688 37.7105C31.1936 37.7105 31.5381 37.3661 31.5381 36.9413V34.6334H31.8319L33.1574 37.2851C33.3473 37.6654 33.8095 37.8197 34.1897 37.6298C34.57 37.4398 34.7243 36.9776 34.5344 36.5974L33.3443 34.218C34.3654 33.5851 34.8421 32.3511 34.5117 31.196C34.1812 30.041 33.1241 29.2457 31.9227 29.2485V29.2485ZM31.5381 30.7871H31.9227C32.56 30.7871 33.0766 31.3037 33.0766 31.941C33.0766 32.5783 32.56 33.0949 31.9227 33.0949H31.5381V30.7871Z" fill="black"/>
<path d="M7.69063 36.172C7.26577 36.172 6.92135 35.8276 6.92135 35.4027C6.92135 34.9778 6.57694 34.6334 6.15208 34.6334C5.72723 34.6334 5.38281 34.9778 5.38281 35.4027C5.38281 36.6773 6.41606 37.7105 7.69063 37.7105C8.9652 37.7105 9.99844 36.6773 9.99844 35.4027V35.0181C9.99844 33.7435 8.9652 32.7103 7.69063 32.7103C7.26577 32.7103 6.92135 32.3658 6.92135 31.941V31.5563C6.92135 31.1315 7.26577 30.7871 7.69063 30.7871C8.11548 30.7871 8.4599 31.1315 8.4599 31.5563C8.4599 31.9812 8.80431 32.3256 9.22917 32.3256C9.65402 32.3256 9.99844 31.9812 9.99844 31.5563C9.99844 30.2818 8.9652 29.2485 7.69063 29.2485C6.41606 29.2485 5.38281 30.2818 5.38281 31.5563V31.941C5.38281 33.2156 6.41606 34.2488 7.69063 34.2488C8.11548 34.2488 8.4599 34.5932 8.4599 35.0181V35.4027C8.4599 35.8276 8.11548 36.172 7.69063 36.172Z" fill="black"/>
<path d="M16.5701 10.8584C16.3706 10.8157 16.1623 10.8541 15.9911 10.965C15.8198 11.076 15.6996 11.2504 15.657 11.4499C15.3657 12.7841 14.545 13.9427 13.3831 14.6601C13.0393 14.8905 12.9394 15.3516 13.157 15.7037C13.3747 16.0557 13.8318 16.1724 14.1916 15.9679C15.7088 15.0291 16.7797 13.5142 17.1586 11.7707C17.2471 11.3564 16.9841 10.9486 16.5701 10.8584V10.8584Z" fill="black"/>
</svg>
