<svg width="27" height="40" viewBox="0 0 27 40" fill="none" xmlns="http://www.w3.org/2000/svg">
<path d="M9.08984 35.7153C9.41345 35.7153 9.67578 35.453 9.67578 35.1294C9.67578 34.8058 9.41345 34.5435 9.08984 34.5435C8.76624 34.5435 8.50391 34.8058 8.50391 35.1294C8.50391 35.453 8.76624 35.7153 9.08984 35.7153Z" fill="black"/>
<path d="M5.57422 32.1997C5.89782 32.1997 6.16016 31.9374 6.16016 31.6138C6.16016 31.2902 5.89782 31.0278 5.57422 31.0278C5.25061 31.0278 4.98828 31.2902 4.98828 31.6138C4.98828 31.9374 5.25061 32.1997 5.57422 32.1997Z" fill="black"/>
<path d="M21.9805 29.856C22.3041 29.856 22.5664 29.5936 22.5664 29.27C22.5664 28.9464 22.3041 28.6841 21.9805 28.6841C21.6569 28.6841 21.3945 28.9464 21.3945 29.27C21.3945 29.5936 21.6569 29.856 21.9805 29.856Z" fill="black"/>
<path d="M26.532 23.9289C26.2381 21.7145 25.2226 19.8156 23.5953 18.4374C22.0566 17.1341 20.0734 16.4164 18.011 16.4164C17.1559 16.4164 16.3231 16.5563 15.5355 16.828V1.75781C15.5356 0.788516 14.747 0 13.7777 0C12.8084 0 12.0199 0.788516 12.0199 1.75781V16.8281C11.2324 16.5563 10.3996 16.4165 9.54438 16.4165C7.86329 16.4165 6.24056 16.8877 4.85165 17.779C4.57931 17.9537 4.50017 18.3163 4.67501 18.5886C4.84978 18.8609 5.2122 18.9402 5.48462 18.7652C6.68438 17.9953 8.08821 17.5884 9.54446 17.5884C10.9581 17.5884 12.2994 18.0398 13.4232 18.894C13.6327 19.0532 13.9228 19.0532 14.1323 18.894C15.2562 18.0398 16.5974 17.5884 18.011 17.5884C21.8156 17.5884 24.8286 20.2305 25.3607 24.0212C23.9945 24.9297 22.5228 25.675 20.9811 26.2385C19.8268 26.6605 19.0512 27.7669 19.0512 28.9917V31.6138C19.0512 31.937 18.7884 32.1998 18.4652 32.1998C18.1421 32.1998 17.8793 31.937 17.8793 31.6138V29.1356C17.8793 28.6429 17.6695 28.1711 17.3037 27.8413C16.9356 27.5095 16.4413 27.3486 15.9478 27.3998L15.9238 27.4022C15.0344 27.4936 14.3637 28.2399 14.3637 29.1382V35.1295C14.3637 35.4526 14.1009 35.7154 13.7777 35.7154C13.4546 35.7154 13.1918 35.4526 13.1918 35.1295V29.1382C13.1918 28.2399 12.5211 27.4936 11.6315 27.4022L11.6088 27.3998C11.1139 27.3485 10.6199 27.5095 10.2519 27.8413C9.88602 28.1711 9.67618 28.6429 9.67618 29.1355V31.6138C9.67618 31.9369 9.41337 32.1997 9.09024 32.1997C8.76712 32.1997 8.50431 31.9369 8.50431 31.6138V28.9916C8.50431 27.7668 7.72868 26.6604 6.57431 26.2384C5.03259 25.6748 3.56087 24.9295 2.19446 24.0209C2.39728 22.5773 2.97134 21.2563 3.85845 20.1974C4.06626 19.9494 4.03368 19.5798 3.78556 19.372C3.53751 19.1642 3.1679 19.1968 2.96017 19.4449C1.91728 20.6897 1.24767 22.2402 1.02353 23.929C0.213682 30.0302 3.22399 34.5113 4.16595 35.7394C6.36493 38.6063 8.58243 40 10.9452 40C11.9322 40 12.9045 39.7635 13.7777 39.3134C14.651 39.7634 15.6233 40 16.6103 40C18.9731 40 21.1906 38.6063 23.3895 35.7393C24.3315 34.5113 27.3418 30.0303 26.532 23.9289V23.9289ZM13.7777 17.7069C13.5871 17.5782 13.3913 17.46 13.1918 17.3501V1.75781C13.1918 1.43469 13.4546 1.17188 13.7777 1.17188C14.1009 1.17188 14.3637 1.43469 14.3637 1.75781V17.3501C14.1641 17.46 13.9684 17.5782 13.7777 17.7069ZM22.4597 35.0261C20.4974 37.5845 18.5841 38.8281 16.6103 38.8281C15.7185 38.8281 14.8416 38.59 14.0745 38.1395C13.8913 38.0319 13.6642 38.032 13.481 38.1395C12.7138 38.59 11.837 38.8281 10.9452 38.8281C8.97142 38.8281 7.05806 37.5845 5.09579 35.0261C4.28915 33.9744 1.84509 30.3467 2.07368 25.337C3.36571 26.1437 4.74024 26.8157 6.17196 27.339C6.86602 27.5927 7.33243 28.2569 7.33243 28.9916V31.6137C7.33243 32.583 8.12095 33.3715 9.09024 33.3715C10.0595 33.3715 10.8481 32.583 10.8481 31.6137V29.1355C10.8481 28.9716 10.915 28.8211 11.0366 28.7115C11.1604 28.5999 11.3206 28.548 11.4887 28.5654L11.512 28.5678C11.8016 28.5976 12.02 28.8427 12.02 29.138V35.1293C12.02 36.0986 12.8085 36.8871 13.7778 36.8871C14.747 36.8871 15.5356 36.0986 15.5356 35.1293V29.138C15.5356 28.8427 15.7541 28.5976 16.0432 28.5679L16.0677 28.5654C16.2353 28.5477 16.3952 28.6 16.5189 28.7116C16.6406 28.8211 16.7074 28.9717 16.7074 29.1355V31.6138C16.7074 32.583 17.496 33.3716 18.4652 33.3716C19.4345 33.3716 20.2231 32.583 20.2231 31.6138V28.9916C20.2231 28.257 20.6894 27.5928 21.3835 27.3391C22.8153 26.8158 24.1898 26.1439 25.4818 25.337C25.7104 30.3469 23.2664 33.9745 22.4597 35.0261V35.0261Z" fill="black"/>
</svg>
