<svg width="40" height="40" viewBox="0 0 40 40" fill="none" xmlns="http://www.w3.org/2000/svg">
<path d="M38.5465 7.70745L34.0019 5.25139L31.6724 1.38572C31.0294 0.319134 30.0208 -0.187764 29.0403 0.063091C28.0534 0.315777 27.4082 1.25694 27.3563 2.51884L27.1787 6.83556C27.1409 6.83525 27.1033 6.83556 27.0652 6.83709C26.5012 6.86058 25.9809 7.10167 25.6016 7.51458C25.4685 7.65923 25.3584 7.81884 25.2717 7.98974C22.5544 7.09282 19.8179 7.11998 17.8074 8.09166C16.244 8.84728 15.1502 10.1571 14.6448 11.8801L10.2503 26.8811C10.2134 27.0068 10.1752 27.1322 10.1374 27.257C9.83679 28.247 9.47882 29.4271 9.95794 30.4562C9.18951 32.593 6.35687 33.865 3.96368 33.9859C1.21251 34.1262 0.278064 35.8032 0.313464 37.1963C0.352832 38.7423 1.45635 40 2.77318 40H12.9972C14.3287 40 15.4539 39.2828 16.084 38.0325C16.7515 36.7089 16.6813 35.1184 15.9092 34.0753C15.6095 33.6703 15.0034 33.0859 13.9435 32.9516C13.9524 32.5305 13.8764 32.0803 13.7498 31.6433C14.032 31.5475 14.3061 31.4386 14.5667 31.3354C14.6876 31.2872 14.809 31.2393 14.9311 31.192L21.8946 28.5055C22.3066 28.3465 22.5117 27.8836 22.3527 27.4716C22.1937 27.0596 21.7307 26.8545 21.319 27.0135L15.9486 29.0853L12.2339 25.7977L16.1793 12.33C16.5592 11.0345 17.3411 10.093 18.5032 9.53149C20.2131 8.70507 22.7344 8.75512 25.1649 9.64654C25.2778 9.96758 25.4679 10.2578 25.7246 10.494L30.2012 14.6197C30.4704 14.8675 30.7923 15.0372 31.1393 15.119C32.1623 17.3602 32.3814 19.6798 31.7179 21.3937C31.2324 22.648 30.2949 23.5507 28.9307 24.0771L27.3844 24.674C26.9721 24.833 26.767 25.296 26.9263 25.7077C27.0487 26.025 27.3515 26.2197 27.6725 26.2197C27.768 26.2197 27.8654 26.2023 27.96 26.1657L29.5066 25.5691C31.2833 24.8834 32.5636 23.6392 33.2093 21.9711C33.9854 19.9667 33.8123 17.3562 32.7644 14.8452C32.916 14.7485 33.0561 14.6316 33.1806 14.4961C33.5612 14.0832 33.758 13.5452 33.7348 12.9812C33.7293 12.8497 33.7116 12.7209 33.6832 12.5951L37.6566 12.1252C38.671 12.0055 39.5204 11.1862 39.7221 10.1324C39.9137 9.13171 39.4633 8.20244 38.5465 7.70745V7.70745ZM14.6238 35.0265C15.0321 35.5783 15.0458 36.5399 14.6561 37.3126C14.4514 37.7191 13.9634 38.4008 12.9972 38.4008H2.77318C2.34685 38.4008 1.92846 37.7957 1.91228 37.1554C1.88848 36.2268 2.66607 35.6533 4.04485 35.5832C6.79022 35.4443 9.88409 34.0747 11.1616 31.6787C11.4887 31.8408 11.8253 31.9149 12.1641 31.9281C12.3923 32.6205 12.3606 33.1051 12.2901 33.2174C12.0472 33.4631 11.9895 33.8375 12.1479 34.1455C12.3078 34.4558 12.6502 34.6261 12.9941 34.5675C13.754 34.4369 14.3021 34.5913 14.6238 35.0265ZM11.6343 30.0781C11.1515 29.6334 11.2736 29.0185 11.6675 27.7218C11.6907 27.6458 11.7136 27.5692 11.7365 27.4929L14.2689 29.7341C14.1712 29.7723 14.0739 29.8104 13.9771 29.8489C12.7183 30.3485 12.1162 30.5209 11.6343 30.0781ZM26.8076 9.31756C26.7084 9.22631 26.6508 9.10058 26.6453 8.96355C26.6395 8.82683 26.6865 8.69713 26.7783 8.59734C26.8696 8.49846 26.9947 8.44048 27.1314 8.43499C27.1391 8.43468 27.1464 8.43438 27.1537 8.43438C27.2825 8.43438 27.4043 8.48137 27.4979 8.56743L31.974 12.6925C31.974 12.6928 31.9743 12.6931 31.9746 12.6931C32.0738 12.7844 32.1314 12.9101 32.1372 13.0471C32.1427 13.1838 32.0957 13.3135 32.0039 13.4133C31.9148 13.5104 31.7927 13.5674 31.6593 13.5751C31.6456 13.5751 31.6322 13.5748 31.6184 13.5757C31.4933 13.5735 31.3755 13.5269 31.2846 13.4432L26.8076 9.31756ZM38.1516 9.83208C38.0924 10.1418 37.833 10.494 37.4693 10.537L32.6176 11.1111L28.7501 7.54693L28.9542 2.58476C28.9756 2.06352 29.1651 1.68205 29.4367 1.61247C29.7025 1.54503 30.0425 1.7794 30.3025 2.21123L32.7448 6.26396C32.8184 6.38634 32.9237 6.48674 33.0494 6.55449L37.7863 9.11431C38.0885 9.27758 38.2115 9.51897 38.1516 9.83208Z" fill="black"/>
<path d="M24.3408 25.8505L24.3274 25.8572C23.9322 26.0544 23.7713 26.5344 23.9685 26.9296C24.1086 27.2101 24.3912 27.3725 24.6847 27.3725C24.8044 27.3725 24.9264 27.3453 25.0409 27.2882L25.0543 27.2815C25.4498 27.0844 25.6103 26.6043 25.4132 26.2091C25.216 25.8139 24.736 25.6531 24.3408 25.8505V25.8505Z" fill="black"/>
</svg>
