<svg fill="none" height="122" viewBox="0 0 171 122" width="171" xmlns="http://www.w3.org/2000/svg"><g fill="#ffb612"><path d="m95.4273 78.2438c-.5532 0-1.0015.4469-1.0015.9982v3.007c0 .5513.4483.9982 1.0015.9982.5531 0 1.0014-.4469 1.0014-.9982v-3.007c0-.5513-.4483-.9982-1.0014-.9982z"/><path d="m98.9702 78.2898c-.5531 0-1.0014.4469-1.0014.9982v3.007c0 .5513.4483.9982 1.0014.9982.5532 0 1.0015-.4469 1.0015-.9982v-3.007c0-.5513-.4483-.9982-1.0015-.9982z"/><path d="m102.515 78.3374c-.553 0-1.001.4469-1.001.9982v3.007c0 .5513.448.9982 1.001.9982s1.002-.4469 1.002-.9982v-3.007c0-.5513-.449-.9982-1.002-.9982z"/><path d="m106.058 78.3835c-.553 0-1.001.4469-1.001.9983v3.0069c0 .5513.448.9982 1.001.9982s1.002-.4469 1.002-.9982v-3.0069c0-.5514-.449-.9983-1.002-.9983z"/><path d="m95.4273 87.0864c-.5532 0-1.0015.4469-1.0015.9983v3.0069c0 .5513.4483.9982 1.0015.9982.5531 0 1.0014-.4469 1.0014-.9982v-3.0069c0-.5514-.4483-.9983-1.0014-.9983z"/><path d="m98.9702 87.134c-.5531 0-1.0014.4469-1.0014.9983v3.0069c0 .5513.4483.9982 1.0014.9982.5532 0 1.0015-.4469 1.0015-.9982v-3.0069c0-.5514-.4483-.9983-1.0015-.9983z"/><path d="m102.515 87.1802c-.553 0-1.001.4469-1.001.9982v3.007c0 .5513.448.9982 1.001.9982s1.002-.4469 1.002-.9982v-3.007c0-.5513-.449-.9982-1.002-.9982z"/><path d="m106.058 87.2278c-.553 0-1.001.4469-1.001.9982v3.0054c0 .5513.448.9982 1.001.9982s1.002-.4469 1.002-.9982v-3.0054c0-.5513-.449-.9982-1.002-.9982z"/><path d="m95.4273 95.2903c-.5532 0-1.0015.4469-1.0015.9982v3.007c0 .5513.4483.9985 1.0015.9985.5531 0 1.0014-.4472 1.0014-.9985v-3.007c0-.5513-.4483-.9982-1.0014-.9982z"/><path d="m98.9702 95.3379c-.5531 0-1.0014.4469-1.0014.9982v3.007c0 .5513.4483.9979 1.0014.9979.5532 0 1.0015-.4466 1.0015-.9979v-3.007c0-.5513-.4483-.9982-1.0015-.9982z"/><path d="m102.515 95.3855c-.553 0-1.001.4469-1.001.9982v3.007c0 .5513.448.9983 1.001.9983s1.002-.447 1.002-.9983v-3.007c0-.5513-.449-.9982-1.002-.9982z"/><path d="m106.058 95.4316c-.553 0-1.001.4469-1.001.9983v3.0069c0 .5513.448.9982 1.001.9982s1.002-.4469 1.002-.9982v-3.0069c0-.5514-.449-.9983-1.002-.9983z"/><path d="m95.4273 103.43c-.5532 0-1.0015.447-1.0015.998v3.007c0 .551.4483.998 1.0015.998.5531 0 1.0014-.447 1.0014-.998v-3.007c0-.551-.4483-.998-1.0014-.998z"/><path d="m98.9702 103.477c-.5531 0-1.0014.447-1.0014.999v3.006c0 .552.4483.999 1.0014.999.5532 0 1.0015-.447 1.0015-.999v-3.006c0-.552-.4483-.999-1.0015-.999z"/><path d="m109.212 58.009.059-.086-.099-.0676-2.06-7.8828-.008-.0292c-.349-1.1918-1.282-2.0748-2.494-2.362-1.211-.2887-2.444.0814-3.294.9875l-7.4219 7.8967c-.7011-.195-1.4113-.367-2.1324-.5114l-4.1122-8.7214.0631-.1397-.1633-.0737-4.9488-10.4937c-.5716-1.2101-1.758-1.9626-3.1-1.9626-.0031 0-.0061 0-.0092 0-1.3451.003-2.533.7617-3.0984 1.978l-8.1906 17.6132h-1.4467v-8.3267h.3081c1 0 1.8135-.8108 1.8135-1.8075v-2.0195c0-.9967-.8135-1.8076-1.8135-1.8076h-.7719v-4.2555c.644-.2779 1.0955-.9168 1.0955-1.6601 0-.9967-.8135-1.8075-1.8135-1.8075h-1.1139v-2.5985h.1325c.9999 0 1.8134-.8108 1.8134-1.8075s-.8135-1.8076-1.8134-1.8076h-.208v-7.2747c.644-.3717 1.0785-1.0643 1.0785-1.8598 0-1.1871-.966-2.15-2.157-2.15s-2.1571.9629-2.1571 2.15c0 .857.5039 1.5956 1.2326 1.9396v7.198h-.1309c-1 0-1.8135.8109-1.8135 1.8075 0 .9967.8135 1.8076 1.8135 1.8076h.1325v2.5984h-1.114c-.9999 0-1.8134.8109-1.8134 1.8076 0 .8139.5423 1.5019 1.2849 1.7292v4.1849h-.9614c-.9999 0-1.8134.8108-1.8134 1.8075v2.0195c0 .9967.8135 1.8076 1.8134 1.8076h.3082v8.3267h-2.516c-1 0-1.8135.8108-1.8135 1.8075v2.0195c0 .9967.8135 1.8076 1.8135 1.8076h1.0723v11.7298c0 .2473.0508.4823.1402.6957-1.9382 3.9576-3.026 8.3989-3.026 13.0906 0 7.4989 2.7795 14.3621 7.3647 19.6204-1.1463 1.674-1.818 3.696-1.818 5.873 0 5.759 4.6992 10.443 10.4769 10.443 4.3049 0 8.0103-2.603 9.6204-6.312 1.4375.21 2.9058.322 4.4003.322 16.5659 0 30.0439-13.434 30.0439-29.9464 0-4.489-.998-8.7491-2.781-12.5761zm-46.4731-21.8826h1.5484v3.9914h-1.5484zm44.0171 67.7286c-.18-.175-.427-.283-.698-.283-.553 0-1.001.447-1.001.999v1.033c-.496.469-1.011.919-1.541 1.352v-2.431c0-.552-.448-.999-1.002-.999-.553 0-1.001.447-1.001.999v3.007c0 .278.114.528.297.709-3.135 2.182-6.7342 3.741-10.6199 4.498v-37.106h18.7969v23.7976c-.932 1.5804-2.015 3.0604-3.231 4.4244zm-34.9792 15.393c-4.673 0-8.474-3.789-8.474-8.447s3.801-8.446 8.474-8.446c4.6731 0 8.4741 3.788 8.4741 8.446s-3.801 8.447-8.4741 8.447zm-10.4631-20.3318c-1.0415-1.8552-1.8797-3.8393-2.4775-5.9233v-.9967h7.1213c.0631.0123.1294.0199.1972.0199s.134-.0061.1972-.0199h.4961v9.5918c-.8936.478-1.7102 1.08-2.4266 1.785-.9306-1.092-1.778-2.255-2.533-3.4801.0015-.0246.0031-.0492.0031-.0737 0-.3993-.2373-.7433-.5778-.903zm-1.3497-56.7236h6.9102v1.6417h-1.3851c-.1726-.0553-.3559-.0845-.547-.0845h-3.0445c-.191 0-.3744.0292-.5469.0845h-1.3851v-1.6417zm2.1216 3.5536h2.6655v8.2331h-2.6655zm-4.3295 10.4061h11.3244v1.6417h-11.3244zm21.7398-19.5912h.0046c.5655 0 1.0462.304 1.2881.8154l4.6561 9.8747-2.3882 5.2768-4.8825-6.7833-3.1786 4.3753-1.5561-2.4833 4.7685-10.254c.2389-.513.7211-.8201 1.2881-.8216zm-18.0035 36.7683h.7195l-2.8965 6.2289h-.7196zm2.9274 0h.8736l-2.8966 6.2289h-.8736zm2.2002-13.4529v11.4565h-5.9765v-11.4565zm-8.8639 25.4316c0-1.2731.0879-2.5247.2543-3.7533h7.1413v8.4465h-6.998c-.2604-1.5265-.3976-3.0945-.3976-4.6932zm17.5166 15.6489c.2943-.606.6687-1.1563 1.1078-1.6369 1.7719 2.7889 4.0059 3.7029 5.6206 3.9649.4422.072.8613.1 1.2449.1 1.2588 0 2.134-.301 2.1817-.318l1.1417-.401-.6086-1.042c-1.6809-2.8844-3.67-4.067-5.2693-4.5215 1.0092-.1214 2.0584-.0246 3.0815.3271l.6533-1.8874c-4.4558-1.5311-9.3107.6665-11.1303 4.9248-.4961-.072-1.0046-.11-1.5207-.11-1.0154 0-1.9983.147-2.9274.417v-10.7743h-1.6948v-10.4429h-2.5499l2.9782-6.4055c.6132-.2903 1.0385-.9122 1.0385-1.6325v-11.7299h.6486c.9999 0 1.8135-.8108 1.8135-1.8075v-2.0195c0-.6297-.3251-1.1841-.8151-1.5081l2.1647-4.6563 2.4406 3.8915 3.2925-4.5319 5.2863 7.3454 3.1107-6.8755 5.5128 11.69 5.3787-5.7237.7595 4.8867 4.3493-2.7751 3.513 4.8345 1.632-2.3604 1.696 6.4884-2.006 2.2192-1.062-2.4787c-.138-.3256-.44-.5529-.791-.5974-.352-.0461-.701.0983-.92.3778l-2.264 2.9025-1.605-2.0579c-.19-.2426-.482-.3854-.7904-.3854-.3082 0-.6009.1428-.7904.3854l-1.6656 2.1347-1.4852-1.9043c-.1834-.235-.4607-.3747-.7581-.3855-.2973-.0123-.5839.1137-.7811.3348l-2.0754 2.3282-1.892-2.4295c-.262-.3364-.7103-.47-1.1155-.3318-.4052.1383-.6764.5176-.6764.9445v4.4536c0 .5514.4484.9982 1.0015.9982s1.0015-.4468 1.0015-.9982v-1.5434l.8427 1.0812c.1834.2349.4607.3747.7581.3854.2973.0123.5839-.1136.7811-.3347l2.0754-2.3282 1.5361 1.9703c.1895.2427.4823.3855.7904.3855.3082 0 .6009-.1428.7904-.3855l1.6655-2.1346 1.6054 2.0578c.19.2427.482.3855.79.3855.31 0 .601-.1428.791-.3855l2.011-2.5769 1.009 2.3573c.134.3133.419.5375.756.5928.338.0553.68-.0629.909-.3163l2.173-2.4034 1.215 4.6532h-22.0399v39.4179c-1.1109.133-2.2418.204-3.3896.204-1.2819 0-2.5437-.088-3.781-.255.1541-.711.2373-1.447.2373-2.202 0-4.538-2.9181-8.407-6.9811-9.846zm8.1274.436c-1.2911.025-3.2633-.359-4.918-2.5506 1.2141-.0737 3.1385.2688 4.918 2.5506zm20.7459-51.8689c.499.1183.884.4807 1.032.9691l1.866 7.135-1.004 1.4543-2.959-4.0728-3.3537 2.1393-.53-3.4047 3.5807-3.8101c.353-.3763.864-.5299 1.368-.4101zm7.844 25.9047.035-.0093c1.171 3.0761 1.814 6.4086 1.814 9.8886 0 3.5137-.656 6.8785-1.849 9.9791z"/><path d="m86.3849 64.863c0-1.1103-.9059-2.0118-2.0183-2.0118h-7.9795c-1.1139 0-2.0184.903-2.0184 2.0118v6.9814h-2.2957c-1.1139 0-2.0183.903-2.0183 2.0118v17.2355c0 1.1103.9059 2.0118 2.0183 2.0118h7.9795c1.114 0 2.0184-.903 2.0184-2.0118v-6.8954h2.2957c1.1139 0 2.0183-.903 2.0183-2.0118zm-6.317 26.2287c0 .0092-.0077.0153-.0154.0153h-7.9795c-.0092 0-.0154-.0076-.0154-.0153v-17.2355c0-.0092.0077-.0153.0154-.0153h7.9795c.0093 0 .0154.0076.0154.0153zm4.2971-8.8919h-2.2957v-8.3436c0-1.1103-.9059-2.0118-2.0183-2.0118h-3.6824v-6.9814c0-.0092.0077-.0154.0154-.0154h7.9795c.0092 0 .0154.0077.0154.0154v17.3215c.0031.0092-.0046.0153-.0139.0153z"/><path d="m164.444 81.2185c-1.919 0-3.848-.02-5.77-.0584-.468-.0092-.839-.3947-.83-.8615.009-.4669.396-.8416.864-.8278 3.821.0768 7.667.0768 11.428 0 .468-.0138.855.3609.864.8278.009.4668-.362.8523-.83.8615-1.891.0399-3.804.0584-5.726.0584z"/><path d="m143.493 81.2276c-2.046 0-4.215-.0046-6.537-.0153-.469-.0015-.846-.3824-.845-.8493.002-.4653.381-.84.848-.84h.004c7.031.0322 12.661.0153 17.716-.0507.467-.0031.852.367.858.8339s-.368.8493-.837.8554c-3.394.0445-7.047.066-11.207.066z"/><path d="m133.77 81.1985c-.002 0-.003 0-.005 0-1.739-.0093-3.479-.0215-5.218-.0369-.469-.0046-.845-.3855-.84-.8523.005-.4669.39-.837.855-.837 1.738.0153 3.476.0276 5.212.0368.469.0031.846.3824.843.8493-.003.4638-.382.8401-.847.8401z"/><path d="m139.894 66.2957c-.361 0-.694-.2303-.808-.5912-.14-.4454.107-.9199.553-1.0597 1.481-.4653 2.98-.8277 4.43-1.1779.829-.1996 1.686-.4069 2.524-.6296 1.161-.3317 2.328-.6665 3.488-.9998 5.311-1.525 10.327-2.967 15.648-4.2278.456-.1075.912.172 1.02.6265.107.4546-.173.9092-.629 1.0167-5.282 1.2516-10.28 2.6875-15.571 4.2079-1.161.3332-2.329.6696-3.506 1.0043-.872.2319-1.738.4408-2.577.6435-1.422.344-2.893.6988-4.318 1.1472-.083.0276-.17.0399-.254.0399z"/><path d="m130.953 68.7268c-.367 0-.706-.2395-.814-.6081-.13-.4484.128-.9168.577-1.0474l.077-.0215c1.319-.3839 2.684-.7786 4.05-1.1118.455-.1106.914.1673 1.025.6204.111.453-.168.9107-.623 1.0212-1.329.3241-2.676.7142-3.978 1.092l-.077.0214c-.078.0231-.158.0338-.237.0338z"/><path d="m125.769 70.1044c-.39 0-.74-.2687-.827-.6634-.1-.4561.189-.9061.647-1.0059.591-.129 1.206-.2764 1.878-.4515.453-.1183.915.152 1.034.6035.118.4515-.153.9123-.606 1.0305-.695.1812-1.331.3333-1.944.4684-.062.0108-.122.0184-.182.0184z"/><path d="m135.644 51.1611c-.292 0-.575-.1489-.732-.4177-.237-.4024-.102-.9199.302-1.1564 2.205-1.2885 4.426-2.5693 6.577-3.8086 3.918-2.2591 7.619-4.3922 11.321-6.6221.401-.2411.922-.1136 1.164.2857s.114.9184-.287 1.1595c-3.718 2.2391-7.425 4.3752-11.35 6.6389-2.148 1.2378-4.368 2.5171-6.569 3.804-.132.0783-.28.1167-.426.1167z"/><path d="m121.75 59.2038c-.288 0-.569-.1475-.727-.4116-.241-.4008-.11-.9184.291-1.1579 1.667-.9952 3.382-1.9627 5.041-2.8995 2.036-1.1487 4.139-2.3358 6.159-3.5752.399-.2441.919-.1213 1.166.2765.245.3977.122.9168-.277 1.1625-2.045 1.2547-4.164 2.451-6.211 3.6059-1.65.9307-3.356 1.8936-5.006 2.878-.137.0814-.287.1213-.436.1213z"/><path d="m124.681 39.3745c-.217 0-.436-.083-.601-.2488-.33-.3318-.328-.8662.005-1.1948 2.459-2.4342 4.91-4.9574 7.281-7.3976 3.065-3.1544 6.233-6.4147 9.44-9.5092.336-.3241.872-.3149 1.199.0199.325.3348.316.8708-.02 1.1948-3.188 3.0745-6.346 6.3257-9.402 9.4693-2.377 2.4464-4.834 4.9758-7.304 7.4222-.167.1628-.382.2442-.598.2442z"/><path d="m112.831 51.3394c-.225 0-.45-.0891-.616-.2657-.321-.3394-.305-.8739.035-1.1933 2.048-1.9242 4.049-3.9944 5.986-5.997 1.191-1.2316 2.421-2.5048 3.662-3.7441.332-.3302.868-.3302 1.199-.0015.331.3302.331.8646.002 1.1948-1.231 1.2286-2.456 2.4971-3.643 3.7226-1.949 2.0164-3.966 4.1019-6.042 6.0538-.165.1536-.375.2304-.583.2304z"/><path d="m115.185 23.5334c-.146 0-.294-.0384-.43-.1167-.404-.2365-.538-.7556-.299-1.1564 1.359-2.2959 2.652-4.624 3.9-6.877 1.188-2.1423 2.417-4.3568 3.704-6.54369.237-.40236.756-.5375 1.16-.301s.539.75404.302 1.1564c-1.276 2.16849-2.499 4.37379-3.682 6.50689-1.255 2.2621-2.552 4.601-3.925 6.9169-.157.2672-.439.4146-.73.4146z"/><path d="m104.472 42.3538c-.139 0-.281-.0337-.412-.1059-.408-.2273-.556-.7418-.328-1.1488 1.277-2.2897 2.61-4.5902 3.9-6.814 1.633-2.818 3.323-5.7328 4.901-8.6308.223-.41.738-.562 1.149-.3394.412.2227.564.7357.341 1.1457-1.589 2.9179-3.284 5.8419-4.923 8.6707-1.285 2.2176-2.615 4.512-3.886 6.7895-.155.2764-.445.433-.742.433z"/><path d="m97.8984 17.452c-.0693 0-.1402-.0092-.2095-.0261-.453-.1152-.7272-.5759-.6117-1.0274l3.6958-14.43277c.116-.4515.578-.72486 1.031-.60968s.727.5759.612 1.0274l-3.6964 14.43275c-.0986.3809-.4437.6358-.8212.6358z"/><path d="m94.5826 30.4412c-.0724 0-.1448-.0092-.2172-.0276-.453-.1198-.7226-.5821-.6024-1.0336.7442-2.7981 1.6023-6.0538 2.3681-9.285.1079-.4546.5639-.7356 1.02-.6281.456.1075.738.5621.6301 1.0166-.7703 3.2527-1.6316 6.5223-2.3789 9.3311-.1017.3763-.4452.6266-.8197.6266z"/><path d="m79.5998 24.458c-.4622 0-.8397-.3701-.8474-.8308-.0308-1.9166-.0631-3.8409-.0955-5.7682-.094-5.5978-.1911-11.38591-.2311-17.006672-.0016-.468396.3744-.84925655.8428-.852328h.0061c.4653 0 .8444.374717.8474.838507.0401 5.613083.1372 11.396593.2312 16.989693.0323 1.9274.0647 3.8532.0955 5.7713.0077.4669-.3667.8508-.8336.8569-.0061.0016-.0107.0016-.0154.0016z"/><path d="m59.1936 12.4777c-.3605 0-.6949-.2303-.8089-.5927l-.2095-.6666c-.5809-1.83668-1.1802-3.73484-1.6209-5.66218-.1032-.45457.1818-.90761.6379-1.0105.456-.1029.9106.18121 1.0138.63579.4252 1.85976 1.0138 3.72413 1.5854 5.52859l.2111.6681c.1402.4453-.1079.9183-.5547 1.0581-.0847.0276-.171.0414-.2542.0414z"/><path d="m50.9454 38.7925c-.2882 0-.5701-.1475-.7288-.4116-1.6332-2.7259-3.3049-5.4918-4.9196-8.167-1.8612-3.0807-3.7856-6.2673-5.6637-9.4109-1.057-1.7692-2.0153-3.3848-2.9305-4.9389-.2373-.4024-.1017-.9199.302-1.1564s.9229-.1014 1.1602.301c.9136 1.5511 1.8704 3.1636 2.9258 4.9297 1.8766 3.1405 3.7995 6.3241 5.6607 9.4032 1.6162 2.6768 3.2894 5.4442 4.9242 8.1716.2403.4008.1094.9199-.2928 1.1579-.1402.083-.2896.1214-.4375.1214z"/><path d="m52.5331 41.265c-.2773 0-.5485-.1351-.7118-.3855-.1356-.2073-.2758-.4131-.4175-.6189-.2743-.3992-.5593-.8139-.8089-1.2546-.2311-.4055-.0878-.9215.3189-1.1518.4068-.2304.9245-.0876 1.1556.3179.2157.3793.4668.7448.7334 1.1333.1494.2166.2973.4331.4406.6527.2542.3916.1433.9138-.2496 1.1687-.1433.0937-.3035.1382-.4607.1382z"/><path d="m36.2202 45.9044c-.1772 0-.3574-.0553-.5099-.1704-.2158-.1628-.3637-.3717-.4838-.5406-.0216-.0292-.0478-.0676-.0709-.0983-.4576-.3041-.9214-.6204-1.2634-.9614-1.3004-1.2961-2.667-2.58-3.9874-3.8224-1.3297-1.2501-2.7056-2.5432-4.0244-3.8562-.205-.2043-.4222-.3978-.6533-.6035-.5531-.4915-1.1232-.9983-1.5253-1.6709-.9353-.5298-1.6039-1.2854-2.1987-1.9596-.4021-.4561-.7842-.8861-1.2002-1.2009-.3729-.2811-.4468-.8109-.1649-1.1841.282-.3716.8136-.4453 1.1864-.1643.5531.4177 1.0092.9337 1.4498 1.4313.5963.6742 1.1587 1.3115 1.9275 1.6939.1633.0814.2974.2135.379.3778.2558.5114.7504.9491 1.2727 1.4144.2388.2119.4853.4315.7241.6696 1.3004 1.2961 2.667 2.58 3.9874 3.8224 1.3297 1.2501 2.7056 2.5432 4.0244 3.8562.2481.2473.6826.536 1.1032.8155.0462.0307.0894.066.1294.1059.1156.1152.208.2458.2881.3594.0416.0584.1017.1444.1325.1751.3621.2825.4314.8047.1541 1.1733-.1648.2226-.4191.3378-.6764.3378zm.5116-1.5188c.0015 0 .0015.0015.003.0015-.0015 0-.0015 0-.003-.0015z"/><path d="m50.8502 59.8765c-.2203 0-.4422-.086-.607-.2565-1.8751-1.9212-3.8965-3.781-5.8517-5.5778-2.0846-1.915-4.2386-3.8961-6.2677-5.997-.3251-.3363-.3143-.8707.0231-1.1948.3374-.324.8736-.3133 1.1987.0231 1.9937 2.064 4.1307 4.0282 6.1953 5.9263 1.9721 1.8122 4.012 3.6873 5.9179 5.6423.3267.3348.319.8692-.0169 1.1948-.1649.1597-.3775.2396-.5917.2396z"/><path d="m32.8861 63.0846c-.1372 0-.2774-.0338-.4068-.1044-3.2725-1.7861-6.5836-3.5813-9.7867-5.3182-4.7193-2.5586-9.5988-5.2046-14.42594-7.8599-.40983-.2257-.55929-.7387-.3328-1.1472s.7411-.5559 1.15093-.3317c4.82251 2.6538 9.70051 5.2983 14.41661 7.8553 3.2032 1.7369 6.5158 3.5337 9.7914 5.3212.4098.2243.5608.7372.3359 1.1472-.1525.2795-.4437.4377-.7426.4377z"/><path d="m45.1855 69.7803c-.1294 0-.2604-.0291-.3836-.0921-1.3281-.6757-2.6239-1.4129-3.8765-2.1254-1.4406-.8186-2.9289-1.6663-4.462-2.4142-.4206-.2058-.5947-.7111-.3882-1.1303.2064-.4193.7133-.5928 1.134-.387 1.5807.7725 3.0937 1.6325 4.5559 2.4648 1.2357.7034 2.5145 1.4298 3.8072 2.0871.4175.2119.5824.7202.3697 1.1364-.1494.2918-.4468.4607-.7565.4607z"/><path d="m23.4497 76.3011c-.0755 0-.151-.0092-.2265-.0307-3.9921-1.1042-8.1305-2.0364-12.1333-2.9379-3.11537-.7018-6.33705-1.4282-9.43855-2.2237-.45297-.1167-.725683-.5775-.60859-1.029.1171-.4515.57932-.7233 1.0323-.6066 3.07684.7894 6.28619 1.5127 9.38924 2.213 4.0213.9061 8.1813 1.8429 12.2118 2.9578.4515.1244.7149.5897.5902 1.0397-.1048.3717-.4453.6174-.8166.6174z"/><path d="m42.3144 80.8145c-.0663 0-.1325-.0077-.1988-.023l-14.1285-3.3817c-.4545-.109-.7349-.5652-.6256-1.0182.1094-.453.567-.7341 1.0216-.6235l14.1285 3.3801c.4545.1091.7349.5652.6255 1.0182-.0924.3886-.4391.6481-.8227.6481z"/><path d="m.848195 93.3983c-.456057 0-.8335369-.3624-.84586276-.8201-.01386664-.4668.35436876-.8554.82275176-.8692 2.120046-.0599 4.287866-.1351 6.384806-.2089 4.21541-.1474 8.57421-.2994 12.80811-.3363.4699-.0077.8505.3701.8551.837.0046.4668-.3713.8477-.8397.8523-4.2139.0384-8.5603.1889-12.76497.3363-2.10002.0738-4.27091.149-6.395583.2089-.009244 0-.016948 0-.024652 0z"/><path d="m23.4687 92.7549c-.4591 0-.8351-.3655-.8474-.8247-.0108-.4669.359-.8539.8259-.8646l.8258-.02c5.9796-.1459 12.161-.2964 18.1252-.5191.4668-.0199.8613.3456.8782.8124.017.4669-.3467.8585-.815.8754-5.975.2242-12.1641.3747-18.1484.5191l-.8258.0199c-.0046.0016-.0123.0016-.0185.0016z"/></g></svg>