<svg fill="none" height="45" viewBox="0 0 42 45" width="42" xmlns="http://www.w3.org/2000/svg"><path clip-rule="evenodd" d="m40 5.00027v4.17847c0 1.45556-1.0276 2.65316-2.4037 2.86556-4.3541.672-11.2474 1.58-16.5963 1.58s-12.24221-.908-16.59626-1.58c-1.37615-.2124-2.40374-1.41-2.40374-2.86556v-4.17848c0-1.74236 1.47931-3.11823 3.21712-2.99213l15.27628 1.10849c.3373.02447.6759.02447 1.0132 0l15.2763-1.10849c1.7378-.1261 3.2171 1.24976 3.2171 2.99214zm-40-.00001c0-2.90395 2.46553-5.197047 5.36186-4.9868827l15.27624 1.1084827c.241.01748.4828.01748.7238 0l15.2762-1.1084831c2.8964-.2101649 5.3619 2.0829431 5.3619 4.9868931v4.17847c0 1.61716-.7723 3.07816-2 3.97586v21.5558c0 2.1548-1.1585 4.1808-3.1416 5.1541-1.824.8953-4.4343 2.0789-7.2495 3.0406-2.8005.9567-5.8759 1.7192-8.6089 1.7192s-5.8084-.7625-8.6089-1.7192c-2.81518-.9617-5.4255-2.1453-7.2495-3.0406-1.98307-.9733-3.1416-2.9993-3.1416-5.1541v-21.5558c-1.227668-.8977-2-2.3587-2-3.97586zm4 9.00434v20.7058c0 1.4469.77259 2.7451 2.0228 3.3587 1.77956.8735 4.3074 2.0185 7.0149 2.9434 2.7221.9299 5.5539 1.6118 7.9623 1.6118s5.2402-.6819 7.9623-1.6118c2.7075-.9249 5.2353-2.0699 7.0149-2.9434 1.2502-.6136 2.0228-1.9118 2.0228-3.3587v-20.7058c-.0328.0057-.0657.0112-.0987.0163-4.3641.6735-11.3875 1.6034-16.9013 1.6034s-12.5372-.9299-16.90133-1.6034c-.03302-.0051-.06591-.0106-.09867-.0163z" fill="#fabb00" fill-rule="evenodd"/></svg>